<?xml version="1.0" encoding="utf-8"?>
<!-- Generator: Adobe Illustrator 24.0.2, SVG Export Plug-In . SVG Version: 6.00 Build 0)  -->
<svg version="1.1" xmlns="http://www.w3.org/2000/svg" xmlns:xlink="http://www.w3.org/1999/xlink" x="0px" y="0px"
	 viewBox="0 0 245.9 38.2" style="enable-background:new 0 0 245.9 38.2;" xml:space="preserve">
<style type="text/css">
	.st0{fill:#FFFFFF;}
</style>
<g id="Layer_2">
	<g id="Layer_2_2_">
		<g>
			<path class="st0" d="M31.2,21.2c0-0.2,0-3,0.1-3.3c0-0.1,0-0.2,0-0.3l-0.1-0.8c0-0.1,0-0.2,0-0.3c0-0.3,0-0.6,0-0.9
				c0.1-0.7,0-1.3-0.1-1.9c0-0.2,0-0.3-0.1-0.5c0-0.3-0.2-0.5-0.6-0.7c-0.2-0.1-0.4-0.2-0.6-0.2l-2.6-0.1l-4.5-0.1l-4.4,0.3h-0.7
				c-0.2,0-0.3,0.1-0.5,0.2l-0.6,0.5c-0.2,0.2-0.3,0.4-0.2,0.7c0,0.1,0,0.1,0,0.2v0.4c0,0.9,0.2,2.9,0.3,3.9c0,0.2,0.2,3,0.2,3.3
				c0,0.1,0,0.2,0,0.3l0.2,0.8c0,0.1,0,0.2,0,0.3c0,0.3,0.1,0.6,0,0.9c0,0.7,0.1,1.3,0.3,1.9c0,0.2,0.1,0.3,0.1,0.5
				c0.1,0.3,0.4,0.6,0.9,0.8c0,0,0,0,0.1,0l0,0c0.1,0,0.1,0,0.2,0l0,0c0,0,0,0,0.1,0l2.6,0.1l3.2,0.1l4.4-0.3h1
				c0.2,0,0.3-0.1,0.5-0.2l0.4-0.3c0.4-0.2,0.6-0.5,0.7-0.9v-0.4C31.3,24.2,31.2,22.2,31.2,21.2z M27.8,25.4l-7.5,0.1l-1.8,0.1
				c-0.3-1.4-0.5-2.7-0.6-4c0-0.5-0.2-3.7-0.2-4.3v-0.5c0-0.7-0.1-2-0.1-2.8l1-0.1l8.9-0.1l1.7-0.1c0.2,1.4,0.3,2.7,0.3,4
				c0,0.5-0.1,3.7-0.1,4.3l-0.1,0.5c-0.1,0.7-0.1,1.9-0.1,2.8L27.8,25.4z"/>
			<path class="st0" d="M26,17c-0.1-0.1-0.5-0.3-0.5-0.4c-0.6-0.4-1-0.5-1.6-0.5c-0.6,0-1,0.1-1.6,0.4c-0.1,0.1-0.3,0.1-0.4,0.2
				c-0.1,0.1-0.3,0.2-0.3,0.3c-0.9,0.8-1.6,1.7-1.6,2.8c0,0.3,0,0.7,0,0.9c0,0.1,0.1,0.4,0.2,0.5c0,0.1,0.2,0.4,0.3,0.5
				c0.5,1,1.4,1.5,2.6,1.8c0.1,0,0.3,0.1,0.4,0.1c0.2,0,0.3,0,0.5,0c0.3,0,0.7-0.2,0.9-0.3c0.1,0,0.3-0.1,0.4-0.1
				c0.5-0.2,0.8-0.3,1.1-0.6c0.5-0.4,0.8-0.9,1-1.3c0.2-0.4,0.4-1,0.4-1.5c0-1-0.5-1.8-1.2-2.6C26.2,17.2,26.2,17.1,26,17z
				 M25.7,21.4c-0.1,0.1-0.1,0.1-0.2,0.2l-0.1,0.2c-0.4,0.3-0.9,0.5-1.4,0.5c-0.5,0-0.9-0.1-1.3-0.3c0,0-0.1-0.1-0.2-0.2
				c0,0-0.1,0-0.1-0.1c-0.2-0.1-0.3-0.2-0.4-0.4c-0.2-0.2-0.4-0.5-0.5-0.7c-0.1-0.3-0.1-0.4-0.1-0.7c0-0.4,0.1-0.8,0.4-1.1
				c0.1-0.1,0.1-0.2,0.2-0.3c0.1-0.1,0.1-0.2,0.2-0.2c0.1-0.1,0.3-0.3,0.4-0.4c0.4-0.3,0.8-0.5,1.2-0.5c0.1,0,0.3,0,0.4,0
				s0.1,0,0.2,0c0.9,0.3,1.7,1.1,1.7,2.2c0,0.1,0.1,0.5,0,0.6C26.1,20.9,26,21.1,25.7,21.4z"/>
			<path class="st0" d="M28.4,15.6c0-0.1-0.1-0.2-0.2-0.3c0,0,0-0.1-0.1-0.1c0,0-0.1,0-0.1-0.1c-0.2-0.2-0.4-0.3-0.7-0.3
				c-0.1,0-0.1,0-0.2,0c0,0-0.1,0-0.1,0.1l0,0c-0.2,0.2-0.3,0.4-0.3,0.7v0.1v0.1c0,0.1,0,0.1,0.1,0.2c0,0,0,0,0,0.1
				c0.1,0.1,0.1,0.2,0.2,0.2c0.1,0.1,0.2,0.1,0.4,0.2c0.1,0,0.2,0,0.3,0c0.2,0,0.5-0.2,0.6-0.3l0.1-0.1l0.1-0.2
				C28.4,15.8,28.4,15.7,28.4,15.6z"/>
		</g>
	</g>
</g>
<g id="Layer_1">
	<g id="Layer_1_1_">
	</g>
	<g id="Layer_2_1_">
		<g>
			<path class="st0" d="M92.1,21.5l-0.2-0.8c-0.2-0.9-0.4-1.7-0.5-2.5c-0.4-2.4-0.9-3.6-1.2-6.5l0,0c0-0.1,0-0.2-0.1-0.3
				c-0.1-0.2-0.4-0.3-0.5-0.3c0,0,0,0-0.1,0.1l0,0c0,0,0,0,0,0.1l0,0l0,0c-0.2,0.3-0.4,0.8-0.5,1.3l-0.1,0.8
				c-0.3,1.6-0.7,2.7-0.8,3.8c0,0.3-0.1,0.5-0.1,0.9c0,0.2-0.1,0.3-0.1,0.5l-0.1,1.3c0,0.2,0,0.3-0.1,0.5c-0.1,0.4-0.1,1-0.2,1.4
				c-0.1,0.7-0.2,1.3-0.2,2l0,0c0,0,0,0.2,0,0.3c0,0.3-0.1,0.7-0.1,1.1c0,0.2,0,0.5-0.1,0.8c0,0.5-0.1,1.4,0.3,1.4
				c0.8,0,0.9-0.5,0.9-0.9c0-0.1,0-0.2,0-0.3l0,0c0.1-0.5,0.1-1.1,0.1-1.6c0.1-0.1,0.8-0.4,0.8-0.4c0.3-0.2,0.7-0.4,1-0.5
				c0.1-0.1,0.4-0.2,0.4-0.2c0.1,0,0.2-0.1,0.4-0.2c0.1,0.5,0.2,1.2,0.4,1.7l0.1,0.7c0.1,0.7,0.4,1.1,0.8,1.3
				c0.1,0.1,0.2,0.1,0.3,0.2c0.1,0,0.1,0,0.1,0c0.1,0,0.3-0.2,0.3-0.4c0.1-0.3,0-0.7-0.1-1C92.8,24,92.5,22.7,92.1,21.5z M90.2,21.8
				c-0.2,0.1-0.7,0.4-0.8,0.5c0,0-0.5,0.3-1.1,0.5c0.1-1.6,0.2-3,0.5-4.6c0.1-0.3,0.1-1.1,0.3-2.1l0.1-0.8c0-0.1,0.1-0.3,0.1-0.4
				c0,0.2,0.1,0.4,0.2,0.7c0.1,0.4,0.2,0.9,0.2,1.3c0,0.2,0.1,0.3,0.1,0.5l0.1,0.4c0,0.2,0.1,0.3,0.1,0.5c0.1,0.3,0.1,0.8,0.2,1.1
				c0.1,0.7,0.2,1.2,0.3,1.9C90.6,21.7,90.4,21.7,90.2,21.8z"/>
			<path class="st0" d="M76,27.1c-0.3-3-0.3-5.8-0.4-8.3c0-0.9-0.1-1.7,0-2.6v-0.8c0-1.3,0-2.6,0-3.9c0-0.3,0-0.5-0.1-0.8
				c-0.1-0.1-0.3-0.2-0.4-0.2h-0.1c-0.1,0.1-0.4,0.1-0.5,0.2c-0.3,0.3-0.2,0.4-0.2,1.1v0.8c0,1.6,0,3.4,0.1,5c0,0.3,0,0.8,0,1.1
				c0,0.2,0,0.3,0,0.5v0.1h-0.1c-0.1,0-0.2,0-0.2,0c-0.1,0-0.2,0-0.4,0l0,0c-0.7,0-0.8,0-1.6-0.1c-0.3,0-0.5,0-0.8-0.1
				c-0.4-0.1-1.4-0.2-1.5-1.1v-0.1v-0.2c0-0.9,0-1.1-0.2-2c0-0.1,0-0.2,0-0.3v-1c0-0.1,0-0.2,0-0.4c0-0.4-0.1-0.8-0.1-1.2
				c0-0.1-0.1-0.3-0.1-0.3c-0.1-0.1-0.2-0.1-0.3-0.1c-0.3,0-0.8,0.3-0.8,0.8c0,0.9,0,1.9,0.3,2.6c0.1,0.2,0.1,0.4,0.1,0.8
				c0,0.2,0,0.4,0.1,0.5c0,0.2,0.1,0.5,0.1,0.8c0.1,0.8,0.3,1.6,0.4,2.4c0.1,0.3,0.2,1.1,0.2,1.1c0.1,0.4,0.1,0.8,0.1,1.2
				c0,0.1,0.2,1.3,0.2,1.5c0.1,0.4,0.2,0.9,0.4,1.4c0.1,0.3,0.5,0.5,0.9,0.5l0,0c0.1,0,0.2,0,0.2-0.1c0.1-0.1,0.1-0.2,0.1-0.4
				c0-0.2-0.1-0.3-0.1-0.5v-0.1c0-0.1,0-0.2-0.1-0.3c0-0.2-0.1-0.4-0.1-0.7c-0.1-0.5-0.3-2.3-0.4-2.8c0-0.5,0.4-0.9,1-0.9h0.2
				c0.2,0,0.5,0,0.9,0c0.1,0-0.4,0-0.3,0c0.2,0,0.4,0,0.7,0c0.4,0,0.9,0,1.3-0.1h0.1c0.1,0,0.1,0,0.2,0h0.1h0.1v0.1
				c0,0.2,0,0.3,0,0.5c0,0.4-0.1,1.2-0.1,1.6c0,1.1,0,2,0.2,2.9c0,0.2,0.1,0.5,0.1,0.8c0.1,0.5,0.3,1,0.7,1.3
				c0.1,0.1,0.1,0.1,0.2,0.1c0.2,0,0.4-0.2,0.5-0.4C76,27.3,76,27.2,76,27.1L76,27.1z"/>
			<path class="st0" d="M101.5,24.1l-0.2-0.3c-0.3-0.4-0.5-0.8-0.8-1.2c-0.7-1.2-1.3-2.6-2-4.1c0,0,0-0.1-0.1-0.1
				c1-1.1,4.2-4.4,4.5-4.8c0.1-0.1,0.1-0.3,0.1-0.4s-0.1-0.2-0.2-0.3l-0.1-0.1c-0.2-0.1-0.4-0.2-0.5-0.3c-0.9-0.4-2.1-0.9-2.9-1.1
				c-1.3-0.2-1.1-0.4-2.2-0.5c-0.2,0-0.4,0-0.8,0c0,0,0,0-0.1,0c0,0,0,0-0.1,0c-0.2,0-0.4,0.2-0.4,0.4c-0.1,0.3-0.1,0.7-0.1,1
				c0,0.3,0,0.7,0,0.9l0,0c0,0.2,0,0.4,0,0.7s0,0.4,0,0.7c0,0.3,0,0.7,0,1c0,0.5,0,1.1,0,1.7c0,0.5,0,1.1,0,1.7c0,2.6,0,5.2,1,7.8
				c0.2,0.4,1,0.9,1.3,0.2c0,0,0.1-0.3-0.3-1.2c-0.2-0.3-0.2-0.8-0.3-1.1c0,0-0.1-0.7-0.1-0.8c-0.1-0.9-0.1-1.5-0.2-2.7
				c0-0.3,0-0.8,0-1.1v-0.2c0-0.1,0.2-0.3,0.3-0.5c0,0,0,0,0,0.1c0.1,0.1,0.1,0.2,0.2,0.3c0.2,0.5,0.4,1.1,0.8,1.5
				c0.1,0.2,0.2,0.4,0.4,0.7c0.1,0.1,0.1,0.1,0.1,0.2l0.2,0.7c0.1,0.1,0.1,0.2,0.2,0.2c0.1,0.2,0.2,0.3,0.3,0.5
				c0.4,0.8,1,1.5,1.4,2.3l0.2,0.3c0.2,0.3,0.5,0.8,0.9,0.8c0.1,0,0.3-0.2,0.3-0.2c0.1,0,0.2-0.3,0.2-0.4c0-0.2,0-0.4-0.1-0.7
				C102.4,25.2,101.9,24.7,101.5,24.1z M97.2,17.5h-0.1L97,17.4c0,0-0.1,0-0.1-0.1l-0.1-0.1l0,0c0-0.1,0-0.1,0-0.2
				c0-1.1,0-2.2,0.1-3.3v-1.2H97c0.2-0.1,0.4-0.1,0.7-0.1c0.1,0,0.2,0,0.3,0c0.7-0.1,0.9,0.1,1.1,0.2c0.7,0.2,1.4,0.4,1.9,1v0.2
				c0,0-0.9,0.9-1.1,1.1c-0.8,0.7-2,2.4-2.3,2.6C97.6,17.4,97.5,17.4,97.2,17.5C97.4,17.5,97.2,17.5,97.2,17.5z"/>
			<path class="st0" d="M128.9,23.5c-0.2-0.3-0.5-0.8-0.9-1c-0.1-0.1-0.3-0.2-0.4-0.4c-0.1-0.1-0.1-0.1-0.2-0.2l-0.3-0.4
				c-0.1,0-0.1-0.1-0.2-0.1c-0.1-0.1-0.2-0.2-0.3-0.3c-0.4-0.5-1-1-1.5-1.4l-0.2-0.1c0.1-0.1,0.2-0.2,0.2-0.3
				c0.1-0.1,3.6-4.4,3.9-4.8c0.1-0.1,0.1-0.3,0.1-0.4c0-0.1-0.1-0.2-0.2-0.3l-0.1-0.1c-0.2-0.1-0.3-0.2-0.5-0.3
				c-0.8-0.4-1.4-0.9-2.3-1.1c-1.1-0.2-1.2-0.3-2.2-0.5c-0.2,0-0.4,0-0.7,0c0,0,0,0-0.1,0l0,0c-0.2,0-0.3,0.2-0.4,0.4
				c-0.1,0.3-0.1,0.7-0.1,1c0,0.3,0.1,1.2,0.1,1.4c0,0.3,0.1,1.4,0.1,1.7c0,0.5,0,1.1,0,1.6s0,1.1,0,1.6c0,2.5,0,3.9,0.2,5.7
				c0,0.4,0.2,2,0.8,2c0.8,0,0.7-1.3,0.5-1.9c0-0.4-0.1-2.3-0.2-3.5c0-0.3,0-0.8,0-1.1v-0.2l0,0c0.4,0.4,1,1,1.2,1.1l0.2,0.3
				c0.3,0.2,0.5,0.5,0.9,0.8c0.8,0.8,1.9,2.2,2.3,2.2c0.1,0,0.2-0.1,0.2-0.1c0.1-0.3,0.1-0.7,0-0.8C129,23.7,129,23.6,128.9,23.5z
				 M123.9,13.1h0.1c0.2,0,0.3-0.1,0.5-0.1c0.1,0,0.7,0,0.8,0c0.3,0,1.5,0.5,2,1.1v0.2c0,0-0.4,0.9-0.5,1c-0.7,0.5-1.7,2.3-2,2.5
				c-0.1,0.1-0.2,0.1-0.3,0.1c0,0,0,0-0.1,0h-0.1h-0.1c0,0,0,0-0.1-0.1l-0.1-0.1l0,0c0-0.1,0-0.1,0-0.2c0-1.1-0.1-2.2-0.1-3.3
				L123.9,13.1z"/>
			<path class="st0" d="M155.4,23.3c-0.3-0.4-0.7-0.8-1.1-1.1c-0.2-0.1-0.3-0.2-0.5-0.4c-0.1-0.1-0.1-0.1-0.2-0.2l-0.4-0.4
				c-0.1,0-0.1-0.1-0.2-0.1c-0.1-0.1-0.3-0.2-0.4-0.3c-0.5-0.5-1.2-1-1.9-1.4l-0.2-0.2l0,0c0.1-0.2,0.2-0.3,0.2-0.3
				c0.1-0.2,3.5-4.9,3.7-5.4c0.1-0.1,0.1-0.3,0.1-0.4s-0.1-0.2-0.2-0.3l-0.1-0.1l0,0c-0.3-0.2-0.7-0.1-0.9,0.2l-0.5,0.8
				c0,0-0.3,1-0.5,1.2c-0.7,0.7-1.7,2.6-2,2.7c-0.1,0.1-0.2,0.1-0.3,0.1c0,0,0,0-0.1,0l-0.1,0.1l-0.1-0.1c0,0,0,0-0.1-0.1l-0.1-0.1
				l0,0c0-0.1,0-0.1,0-0.2c0-1.2,0-2.4,0-3.6v-1.2v-1.1c0-0.3-0.5-0.7-0.9-0.7l0,0c0,0,0,0-0.1,0l0,0c-0.2,0-0.3,0.2-0.3,0.4
				c0,0.3-0.1,0.7-0.1,1.1c0,0.3,0.1,1.3,0.1,1.5c0,0.3,0.1,1.5,0.1,1.9c0,0.7,0,1.2,0.1,1.9c0,0.7,0.1,1.2,0.1,1.9
				c0.1,2.7,0.1,4.4,0.3,6.3c0.1,0.5,0.2,2.2,0.9,2.2c0.8,0,0.5-1.4,0.5-2.1c-0.1-0.4-0.2-2.5-0.3-3.8c0-0.4,0-0.8,0-1.2v-0.2l0,0
				c0.5,0.4,1.3,1.1,1.5,1.3l0.3,0.3c0.3,0.2,0.7,0.5,1,0.8c0.9,0.8,2.3,2.2,2.7,2.2c0.1,0,0.2-0.1,0.2-0.2c0.1-0.4,0-0.7-0.1-0.9
				C155.5,23.5,155.5,23.4,155.4,23.3z"/>
			<path class="st0" d="M120.1,18.4L120.1,18.4c-0.2,0-0.3,0-0.4,0c-0.2,0-0.4,0-0.5,0c-0.3,0-0.7,0-1.1,0c-0.3,0-0.8-0.1-1.1-0.1
				c-0.1,0-0.2,0-0.3,0c-0.1,0-0.3-0.1-0.4-0.3l0,0l0,0c0.1-0.3,0.3-0.3,0.5-0.5c0.2-0.1,0.4-0.2,0.7-0.4c0.5-0.3,1.1-0.7,1.6-1
				c0.3-0.2,0.9-0.4,1.2-0.7c0.1-0.1,0-0.4,0-0.5c0-0.1,0-0.2-0.1-0.2c-0.1-0.1-0.2-0.2-0.3-0.3c-1.1-0.8-2.2-1.4-3.3-1.9
				c-0.8-0.3-1.5-0.5-2.3-0.9l-0.3-0.1c-0.1,0-0.3-0.1-0.4-0.1s-0.1,0-0.2,0c-0.2,0-0.3,0-0.4,0.1s-0.1,0.3-0.1,0.5
				c0,0.1,0,0.1,0.1,0.2c0.1,0.4,0.2,0.9,0.2,1.4c0,1.3,0,2.6,0,3.9c0,0.8,0,1.4,0.1,2.3c0,1,0.1,1.9,0.1,2.7c0,0.1,0,0.4,0,0.7
				c0,0.5,0,1.1,0.1,1.4c0,0.4,0.1,0.7,0.1,0.8s0.1,0.3,0.1,0.7c0,0.3,0.1,0.7,0.2,1v0.1c0.1,0.2,0.1,0.2,0.3,0.3c0,0,0.1,0,0.1-0.1
				c0.1-0.1,0.2-0.1,0.3-0.2c0.2-0.2,0.4-0.4,0.5-0.7l0,0l0,0c0.8-0.7,1.4-1.3,2-2.1c0.1-0.1,0.2-0.2,0.3-0.4c0,0,0.1-0.2,0.2-0.3
				c0.3-0.4,0.9-1.2,1-1.3c0.2-0.3,0.3-0.5,0.5-0.9c0.2-0.3,0.3-0.5,0.5-0.9c0.4-0.7,0.7-1.3,0.7-1.6l0,0l0,0v-0.2
				C120.3,18.6,120.2,18.4,120.1,18.4z M114.6,13L114.6,13L114.6,13c0.2-0.1,0.3-0.1,0.5-0.1c0.4,0,0.9,0.1,1.4,0.2
				c0.2,0.1,0.4,0.2,0.7,0.3c0.4,0.2,0.8,0.5,1.1,0.8c0.1,0.1,0.2,0.2,0.3,0.3c0.1,0.1,0.2,0.3,0.1,0.4c0,0.1-0.1,0.2-0.2,0.3
				c-0.3,0.2-0.7,0.4-1.1,0.7c-0.4,0.2-1,0.4-1.5,0.8c-0.3,0.2-0.7,0.3-1,0.5l0,0c-0.1,0-0.1,0.1-0.2,0.1c0,0,0,0-0.1,0h-0.1l0,0
				l0,0l-0.1-0.1C114.3,16.6,114.5,13.5,114.6,13z M118.3,20.1c0,0.1-0.1,0.2-0.2,0.3c-0.1,0.2-0.3,0.4-0.4,0.8
				c-0.2,0.3-0.3,0.7-0.5,0.9c-0.5,0.9-1.6,2-2,2.4c-0.1,0.1-0.1,0.1-0.1,0.1c-0.1,0.1-0.1,0.2-0.2,0.2h-0.1c-0.1,0-0.2-0.1-0.2-0.2
				s0-0.2,0-0.2l0,0c0-0.3,0-0.7,0-0.9c0-0.2,0-0.4,0-0.8c0-0.2,0-0.3,0-0.5c0-0.3,0-0.7,0-1c0-0.5,0.1-1,0.2-1.5
				c0.1-0.3,0.2-0.4,0.5-0.4l0,0c0.7,0,1.2,0.1,1.6,0.1c0.2,0,0.5,0.1,0.8,0.2c0.1,0,0.2,0,0.2,0.1c0.1,0,0.2,0.1,0.3,0.1
				C118.4,19.7,118.4,19.9,118.3,20.1z"/>
			<path class="st0" d="M108,27.1c-0.1,0-0.1,0-0.2,0c-0.3-0.2-0.5-0.5-0.7-0.9l-0.1-0.5c-0.1-0.8-0.2-1.5-0.2-2.3c0-0.3,0-0.7,0-1
				V22l-0.1-0.9v-0.3c0-0.2-0.1-2.2-0.1-3.2l-1.2,0.4l-1.7,0.8c-0.1,0-0.2,0.1-0.3,0.1s-0.2,0-0.3-0.1s-0.2-0.2-0.2-0.4
				c0-0.2,0.1-0.3,0.3-0.4l1.3-0.8l2.1-1.1c-0.1-1.2-0.1-2.9-0.1-3.8v-0.5c0-0.4,0.1-0.8,0.4-1c0.1-0.1,0.2-0.1,0.3-0.2h0.1
				c0.1,0,0.2,0.1,0.2,0.2s0.1,0.2,0.1,0.3c0.1,0.1,0.1,0.2,0.1,0.3c0,0.4,0,1.1,0,1.9s0,1.5,0,2l0.5-0.1l1.4-0.9
				c0.1-0.1,0.2-0.1,0.3-0.1c0.1,0,0.2,0,0.2,0h0.1c0.2,0.1,0.2,0.3,0.2,0.4l-0.2,0.4c0,0.1-0.1,0.2-0.2,0.2l-0.5,0.5l-1.7,1.1
				c0,1.4,0.1,3.5,0.1,3.9c0.1,1.7,0.3,3.5,0.5,5.6c0,0.1,0,0.2,0,0.2C108.5,26.7,108.2,27.1,108,27.1z"/>
			<path class="st0" d="M84.3,20.9c-0.2-0.1-0.4-0.1-0.5,0.1c0,0-0.2,0.2-0.5,0.5c-0.8,0.9-1.4,2-2.2,3.4c0,0-0.1,0.1-0.1,0.2
				c-0.1,0.1-0.1,0.2-0.2,0.3l-0.2,0.1h-0.1c-0.2-0.3-0.3-0.7-0.3-1c0,0-0.1-1.3-0.1-2.4c0-0.3,0-1.2,0-1.5v-0.2
				c0-0.2,0.3-0.5,0.5-0.7l1.4-1.3c0.1-0.1,1.4-1.2,1.4-1.2c0.4-0.3,1-0.8,1.2-1.2c0.1-0.1-0.1-0.7-0.3-0.7c-0.1,0-0.2,0.1-0.3,0.1
				l-0.4,0.2c0,0-0.7,0.7-0.9,0.8c-0.7,0.4-0.5,0.5-1.4,1.3c-0.1,0.1-0.3,0.3-0.5,0.4c-0.1,0.1-0.2,0.1-0.2,0.1s0,0-0.1,0h-0.1
				L80,18.3c0,0,0,0,0-0.1V18l0,0c0-0.1,0-0.1,0-0.2c0.1-1,0.2-1.9,0.3-2.8l0.1-1.1l0.8-0.7l0.5-0.3l0.9-0.7l0.9-0.5l0.4-0.3
				l0.4-0.5v-0.3c0-0.2-0.3-0.4-0.5-0.3l-0.4,0.1c0,0-1.6,1.1-2.3,1.3c0,0-0.9,0.5-1.2,0.7c-0.1,0.1-0.3,0.2-0.4,0.4
				c-0.1,0.3-0.2,0.3-0.2,0.7c0,0.2,0,0.5-0.1,0.8l0,0c0,0.2,0,0.4,0,0.5c0,0.2,0,0.4-0.1,0.7c0,0.3-0.1,0.5-0.1,0.9
				c0,0.5-0.1,1-0.1,1.5c0,0.5-0.1,1-0.1,1.5c-0.2,2.3,0,4.5,0.4,7c0.2,1,1.1,1.1,1.4,0.7s0.4-0.5,0.7-0.9c0.2-0.2,0.4-0.5,0.7-0.8
				l0,0c0.8-1,1.4-1.9,2.1-2.9c0.1-0.1,0.1-0.2,0.2-0.3c0-0.1,0.1-0.1,0.1-0.2c0.1-0.2,0.1-0.4,0-0.7L84.3,20.9z"/>
			<path class="st0" d="M144.9,21.4l-0.2-0.7c-0.2-0.9-0.4-1.6-0.5-2.3c-0.4-2.2-1.1-4.7-1.5-7.4l0,0c0-0.1,0-0.2,0-0.2
				c0-0.1,0-0.1,0-0.2c0-0.1-0.3-0.2-0.4-0.1h-0.1c-0.1,0-0.1,0.1-0.2,0.1c-0.1,0.2-0.2,0.4-0.3,0.7c-0.1,0.2-0.1,0.3-0.2,0.7
				l-0.1,0.7c-0.3,1.5-0.3,3-0.5,4.7c0,0.3-0.1,0.7-0.1,1c0,0.2-0.1,0.3-0.1,0.5l-0.1,1.2c0,0.2,0,0.3-0.1,0.5
				c-0.1,0.4-0.1,0.9-0.2,1.3c-0.2,1-0.3,2.1-0.3,3c0,0.2,0,0.4-0.1,0.8c0,0.5-0.1,1.3,0.3,1.3c0.8,0,0.9-0.5,0.9-0.8
				c0-0.1,0-0.2,0-0.3l0,0c0-0.3,0.1-0.7,0.1-1h0.1c0.1-0.1,0.8-0.4,0.9-0.4c0.3-0.2,0.7-0.4,1-0.5c0.1-0.1,0.4-0.3,0.4-0.3
				c0.1,0,0.3-0.2,0.5-0.3c0.1,0.4,0.2,0.9,0.3,1.3l0.1,0.7c0.1,0.5,0.4,1,0.8,1.2c0.1,0.1,0.2,0.1,0.3,0.1h0.1
				c0.1,0,0.2-0.1,0.2-0.3c0-0.4,0.1-0.8,0-1C145.6,23.7,145.3,22.5,144.9,21.4z M143.6,21.7c-0.2,0.1-0.4,0.2-0.7,0.3
				c-0.2,0.1-0.7,0.4-0.7,0.5c0,0-0.7,0.3-1.1,0.7c0.1-1.9,0.2-3.4,0.4-5c0.1-0.8,0.2-1.5,0.4-2.4l0.1-0.7c0-0.1,0-0.2,0.1-0.4
				c0.1,0.2,0.1,0.4,0.2,0.7c0.1,0.4,0.2,0.8,0.2,1.2c0,0.2,0.1,0.3,0.1,0.5l0.1,1.2c0,0.2,0.1,0.3,0.1,0.4c0.1,0.3,0.1,0.7,0.2,1
				C143.4,20.4,143.5,21.1,143.6,21.7L143.6,21.7z"/>
			<path class="st0" d="M137.3,21.4c-0.2-0.2-0.4,0-0.5,0.1c0,0-0.2,0.2-0.5,0.5c-0.8,0.9-2.2,2.8-2.2,2.8c-0.1,0.1-0.1,0.2-0.3,0.3
				l-0.1,0.1h-0.1c-0.3-0.3-0.4-2-0.4-2.8c0-0.3,0-1.5,0-1.5c0-0.2,0.3-0.5,0.5-0.8l1.5-1.4c0.1-0.1,1.2-1,1.2-1
				c0.5-0.3,0.8-0.5,1.1-1c0.1-0.1,0.1-0.3,0.1-0.3c0-0.1-0.2-0.4-0.5-0.4c-0.1,0-0.3,0.1-0.4,0.2l-0.3,0.2c0,0-0.3,0.2-0.4,0.3
				c-0.7,0.5-0.5,0.7-1.4,1.3c-0.2,0.1-0.3,0.3-0.5,0.5c-0.1,0.1-0.2,0.1-0.2,0.1s0,0-0.1,0h-0.1l-0.1-0.1c0,0,0,0-0.1-0.1
				c0,0,0-0.1-0.1-0.1l0,0c0-0.1,0-0.1,0-0.2c0.1-1,0.2-2,0.3-2.9l0.1-1.1l0.8-0.7l0.5-0.3l0.9-0.7l1.1-0.4l0.5-0.3l0.4-0.5V11
				c0-0.2-0.3-0.4-0.5-0.3l-0.4,0.2c0,0-1.9,1.1-2.5,1.2c0,0-1,0.5-1.2,0.8c-0.2,0.1-0.3,0.2-0.4,0.4c-0.1,0.3-0.2,0.3-0.2,0.7
				c0,0.2,0,0.5-0.1,0.9l0,0c0,0.2,0,0.4,0,0.7c0,0.2,0,0.4-0.1,0.7c0,0.3-0.1,0.5-0.1,0.9c0,0.5-0.1,1.1-0.1,1.5
				c0,0.5-0.1,2.3-0.1,2.8c0,1.6,0,2.9,0.7,5.2c0.1,0.4,1.1,1.1,1.4,0.5c0.3-0.4,0.4-0.5,0.8-1c0.2-0.3,0.4-0.5,0.7-0.9
				c0,0,1.3-1.1,2-2.2c0.1-0.1,0.2-0.2,0.2-0.3c0.1-0.1,0.1-0.1,0.1-0.2c0.1-0.2,0.1-0.4,0-0.7L137.3,21.4z"/>
			<path class="st0" d="M200.3,19.1c-0.2-0.1-0.4-0.2-0.7-0.2c-0.7-0.1-1.5-0.2-2.4-0.2c-0.1,0-0.1,0-0.2,0h-0.1c-0.1,0-0.2,0-0.3,0
				c-0.3,0-0.2-0.3-0.1-0.5c0.1-0.1,1.3-1.2,1.3-1.2c0.4-0.3,1.6-1.5,2-2c0.1-0.1,0.1-0.3,0.1-0.3c0-0.1,0-0.2-0.1-0.3l-0.1-0.1
				c-0.1-0.1-0.3-0.2-0.4-0.3c-0.5-0.4-1.4-1-2.2-1.2c-1-0.3-1.1-0.4-2-0.7c-0.2,0-0.3-0.1-0.5-0.1l0,0l0,0c-0.2,0-0.3,0.1-0.3,0.3
				c-0.1,0.3-0.1,0.5-0.1,0.9c0,0.2,0,0.5,0,0.8l0,0c0,0.2,0,0.4,0,0.5c0,0.2,0,0.4,0,0.7c0,0.3,0,0.5-0.1,0.9c0,0.5,0,1-0.1,1.5
				c0,0.5,0,1-0.1,1.5c-0.1,2.3,0,4.7,0.5,7c0.1,0.4,1,1.1,1.3,0.5c0.2-0.4,0.4-0.5,0.7-0.9c0.2-0.3,0.4-0.5,0.5-0.9l0,0
				c0.7-1,1.3-2,2-2.9c0.1-0.1,0.1-0.2,0.2-0.3c0-0.1,0.1-0.1,0.1-0.2l0.2-0.3c0.3-0.5,0.8-1.2,1.2-1.7c0-0.1,0.1-0.1,0-0.2
				C200.4,19.1,200.3,19.1,200.3,19.1z M194.8,14.7l0.1-1.1h0.1c0.1,0,0.3-0.1,0.4-0.1c0.1,0,0.2,0,0.3,0c0.4,0,1,0.2,1.1,0.2
				c0.4,0.2,1,0.4,1.3,1v0.2c0,0-0.7,0.8-0.9,0.9c-0.5,0.5-0.9,1-1.6,1.6c-0.1,0.1-0.3,0.3-0.5,0.4c-0.1,0.1-0.2,0.1-0.2,0.1
				s0,0-0.1,0h-0.1l-0.1-0.1c0,0,0,0,0-0.1v-0.1l0,0c0-0.1,0-0.1,0-0.2C194.6,16.6,194.7,15.6,194.8,14.7z M198.4,20.2
				c-0.1,0.3-0.3,0.8-0.7,1.1c-0.8,0.9-1.4,2-2.1,3.4c0,0,0,0.1-0.1,0.1c-0.1,0.2-0.1,0.3-0.3,0.5l-0.1,0.1l-0.1-0.1
				c-0.2-0.3-0.3-0.7-0.3-1v-0.1c-0.1-0.9-0.2-1.7-0.2-2.8c0-0.3,0.1-0.7,0.1-1v-0.2c0-0.2,0.2-0.4,0.4-0.5c0.2-0.1,0.4-0.1,0.7-0.1
				c0.1,0,0.2,0,0.2,0c0.1,0,0.3,0,0.4,0c0.4,0,0.8,0.1,1.2,0.2c0.1,0,0.2,0.1,0.3,0.1s0.1,0,0.2,0.1h0.1l0.2,0.1L198.4,20.2z"/>
			<path class="st0" d="M215.8,24.8c-0.1-1.1-0.3-2.2-0.5-3.4c-0.1-0.4-0.1-0.9-0.2-1.4c0-0.2,0-0.3-0.1-0.5c0-0.5-0.1-0.8-0.1-1.3
				c0-0.2,0-0.3-0.1-0.5c0-0.4-0.1-0.5-0.1-0.9c-0.1-1.1-0.4-2.2-0.5-3.9c0-0.3,0-0.4-0.1-0.8c0-0.7-0.2-1.2-0.4-1.5
				c-0.1-0.1-0.7,0-0.7,0.2c0,0.1,0,0.2,0,0.3s0,0.2,0,0.3l0,0c-0.4,3-0.8,4.1-1.2,6.5c-0.1,0.8-0.3,1.6-0.5,2.5l-0.2,0.8
				c-0.2,0.7-0.3,1.4-0.5,2.1l0,0c0,0,0,0.1,0,0.2c-0.1,0.5-0.2,1-0.3,1.5c-0.1,0.3-0.2,0.7-0.1,1c0,0.2,0.2,0.4,0.3,0.4h0.1
				c0.1,0,0.2-0.1,0.3-0.2c0.3-0.2,0.5-0.7,0.8-1.3l0.1-0.7c0-0.1,0.1-0.2,0.1-0.4c0.2-0.1,0.4-0.2,0.4-0.3c0.3-0.2,0.5-0.4,0.9-0.5
				c0.1-0.1,0.4-0.2,0.4-0.2c0.1-0.1,0.4-0.2,0.7-0.4c0.2,1.2,0.3,2.4,0.5,3.5l0,0c0,0.1,0,0.2,0.1,0.3c0.1,0.2,0.1,0.8,1,0.8
				c0.4,0,0.2-0.9,0.2-1.4C216,25.2,216,25,215.8,24.8z M213.9,21.2c-0.2,0.1-0.4,0.2-0.7,0.3c-0.2,0.1-0.5,0.4-0.7,0.5
				c0,0-0.2,0.1-0.4,0.3c0.2-1,0.4-2,0.5-2.9c0-0.3,0.1-0.7,0.2-1.1c0-0.2,0.1-0.3,0.1-0.5l0.1-0.4c0-0.2,0.1-0.3,0.1-0.5
				c0-0.3,0.1-0.5,0.1-0.9c0,0.1,0,0.2,0.1,0.4c0.1,1,0.2,1.7,0.2,2.1c0.1,0.9,0.2,1.7,0.3,2.5C214.1,21.1,214,21.2,213.9,21.2z"/>
			<path class="st0" d="M173.7,25.5L173.7,25.5c-0.2-2-0.3-2.6-0.4-4.1c0-0.5-0.1-3.9-0.1-4.6v-0.4c0-0.5,0-1.5-0.1-2.3
				c0-0.1,0-0.3,0-0.4c0-0.7,0-0.8-0.3-1.1c-0.1-0.1-0.3-0.2-0.3-0.2c-0.1,0-0.3,0-0.4,0.2s-0.1,0.2-0.1,0.3
				c-0.1,0.2-0.2,0.4-0.2,0.7V14c0,0.2,0,0.5,0,0.9c-0.1,0.5-0.1,1.1-0.2,1.7c0,0.3,0,0.4-0.1,0.8c-0.1,1-0.2,1.7-0.4,2.6
				c-0.4,2.3-1.2,5.2-1.5,5.1c0-0.1,0-0.1-0.1-0.1c-0.4-1.1-0.5-1.2-0.9-2.4c-0.1-0.2-0.1-0.4-0.2-0.7c-0.1-0.4-0.2-1.4-0.2-1.7
				c-0.2-1.7-0.2-2.8-0.1-5.2c0,0,0.2-1,0.2-1.1c0-0.2,0.1-0.4-0.5-0.5c-0.3-0.1-0.7,0.4-0.8,1c-0.1,0.3-0.1,0.9-0.2,1.1
				c0,1.1,0,1.4-0.1,2.5c0,0.5,0,0.9,0.1,1.3c0,0.2,0,0.3,0.1,0.5c0,0.4,0.1,0.9,0.2,1.3c0,0.2,0.1,0.3,0.1,0.5
				c0.1,0.3,0.1,0.4,0.2,0.8c0.2,1,0.7,1.7,1.1,3.2c0.1,0.2,0.1,0.2,0.2,0.4c0.2,0.4,0.2,0.8,0.4,1c0.1,0.1,0.2,0.2,0.4,0.1
				c0.1,0,0.1,0,0.2,0c0.4-0.2,0.5-0.7,0.8-1.2c0.1-0.2,0.2-0.2,0.2-0.5c0.3-1,0.4-1.3,0.7-2.4c0.1-0.4,0.2-0.9,0.3-1.3
				c0-0.2,0.1-0.3,0.1-0.5s0-0.2,0-0.4v-0.1c0,0.4,0,0.8,0,0.9c0,0.1,0,0.2,0,0.3l0.1,0.8c0,0.1,0,0.2,0,0.3c0,0.3,0,0.5,0,0.9
				c0,0.7,0,0.9,0.1,1.5c0,0.1,0,0.3,0.1,0.4c0,0.3,0,0.7,0.3,0.9c0.1,0,0.4,0,0.4,0c0.4-0.1,0.3-0.7,0.3-0.9
				C173.7,25.8,173.7,25.7,173.7,25.5z"/>
			<path class="st0" d="M230.5,11.6c-0.3-0.2-0.7-0.4-1-0.4l0,0c0,0-0.1,0-0.2,0c-0.4-0.1-0.9,0-1,0.2c-0.3,0.1-0.4,0.2-0.5,0.4
				c0,0.1,0,0.2,0,0.4c0,0.1,0,0.2,0,0.4v0.4c0,1.1,0.1,2.7,0.2,3.8c0,0.2,0.1,3.4,0.1,3.6c0,0.1,0,0.2,0,0.3l0.1,0.8
				c0,0.1,0,0.2,0,0.3c0,0.3,0,0.5,0,0.9c0,0.7,0,0.9,0.1,1.5c0,0.1,0,0.7,0,0.9c0,0.3,0.3,0.9,0.7,1l0,0l0,0h0.1
				c0.7,0.1,0.9-0.1,1.2-0.5c0.1-0.2,0.3-0.3,0.4-0.5c0.7-0.9,0.5-1,1-2c0.2-0.4,0.7-1.7,0.7-1.9c0.1-0.3,0.2-1.1,0.3-1.7
				c0.3-2.8,0.3-4.6-1.2-7.1C231.2,12.2,231,11.9,230.5,11.6z M232,17.6c0,1.1-0.1,1.9-0.3,2.6c-0.5,2-1.6,4.2-2,4.4c0,0,0,0,0-0.1
				l0,0c-0.2-2-0.4-2.5-0.5-4c0-0.5-0.1-3.9-0.1-4.6v-0.4c0-0.8,0-2,0-2.8c0.3,0,0.7,0.1,0.9,0.2c1.2,0.4,1.7,2.6,2,4
				C232,17.2,232,17.3,232,17.6z"/>
			<path class="st0" d="M209.4,11.2c-0.1-0.1-0.3-0.1-0.4,0l-1.1,0.5l-3,1.2l-1,0.4c-0.1,0-0.2-0.1-0.3-0.1c-0.3-0.1-0.5,0.4-0.7,1
				c-0.1,0.3-0.1,0.9-0.2,1.1c0,1.1,0,1.4-0.1,2.5c0,0.5,0,0.9,0.1,1.3c0,0.2,0,0.3,0.1,0.5c0,0.4,0.1,0.9,0.1,1.3
				c0,0.2,0.1,0.3,0.1,0.5c0.1,0.3,0.1,0.4,0.1,0.8c0.2,1,0.5,1.7,1,3.2c0.1,0.2,0.1,0.2,0.2,0.4c0.2,0.5,0.2,0.8,0.5,1
				c0.1,0,0.3,0,0.5-0.1c0.3-0.1,0.4-0.3,0.7-0.7c0.1-0.2,0.2-0.4,0.3-0.5c0.4-0.9,0.3-1,0.7-2c0.1-0.4,0.4-1.6,0.4-1.7
				c0.1-0.3,0.2-1,0.2-1.5c0.1-1.6,0.5-3.4,0.1-5.4c-0.1-0.3-0.1-0.5-0.2-0.9c-0.1-0.3-0.2-0.5-0.2-0.7l1.5-0.8l0.5-0.2
				c0.1,0,0.1-0.1,0.2-0.2l0.2-0.3C209.7,11.5,209.6,11.4,209.4,11.2L209.4,11.2z M206.8,18.5c0,1-0.2,1.7-0.3,2.4
				c-0.4,2-1.3,4.8-1.5,4.4l0,0c-0.1-0.2-0.1-0.3-0.1-0.4c-0.4-1.1-0.5-1.2-0.8-2.4c-0.1-0.2-0.1-0.4-0.2-0.7
				c-0.1-0.4-0.2-1.4-0.2-1.7c-0.2-1.7-0.1-2.8,0-5.1c0,0,0.1-0.3,0.1-0.5c0.1,0,0.2,0,0.3,0l1.3-0.4l0.8-0.3
				c0.1,0.1,0.1,0.2,0.2,0.4c0.7,1.2,0.4,2.4,0.5,3.7C206.9,17.9,206.9,18.1,206.8,18.5z"/>
			<path class="st0" d="M183.2,24.7c-0.2-0.5-0.3-1.1-0.7-1.5c-0.1-0.2-0.2-0.4-0.3-0.7c0-0.1-0.1-0.1-0.1-0.2l-0.2-0.7
				c0-0.1-0.1-0.2-0.1-0.2c-0.1-0.2-0.2-0.3-0.2-0.5c-0.3-0.8-0.8-1.5-1.2-2.2l-0.2-0.3c0-0.1-0.1-0.1-0.1-0.2
				c1.1-1.3,2.8-3.5,3-3.9c0.1-0.1,0.1-0.3,0.1-0.4c0-0.1-0.1-0.2-0.2-0.3l-0.1-0.1c-0.2-0.1-0.3-0.2-0.5-0.3
				c-0.8-0.4-1.4-0.9-2.3-1.1c-1.2-0.2-1.2-0.3-2.2-0.5c-0.2,0-0.4,0-0.7,0c0,0,0,0-0.1,0l0,0c-0.2,0-0.3,0.2-0.4,0.4
				c-0.1,0.3-0.1,0.7-0.1,1c0,0.3,0.1,1.2,0.1,1.4c0,0.3,0.1,1.4,0.1,1.7c0,0.5,0,1.1,0,1.6s0,1.1,0,1.6c0,2.5,0,4,0.2,5.8
				c0,0.4,0.2,2.1,0.8,2c0.8,0,0.7-1.3,0.5-1.9c0-0.4-0.1-2.3-0.2-3.5c0-0.3,0-0.8,0-1.1v-0.2c0-0.2,0.8-1.1,0.9-1.2
				c0,0,0-0.1,0.1-0.1c0.3,0.7,0.8,1.5,1,1.9l0.1,0.4c0.2,0.4,0.4,0.9,0.7,1.2c0.5,1.1,1.3,3.2,1.7,3.4c0.1,0,0.2,0,0.3,0
				c0.2-0.3,0.3-0.5,0.2-0.9C183.3,24.9,183.3,24.8,183.2,24.7z M178.6,18C178.6,18,178.5,18,178.6,18l-0.2,0.1l-0.1-0.1
				c0,0,0,0-0.1-0.1l-0.1-0.1l0,0c0-0.1,0-0.1,0-0.2c0-1.1-0.1-2.2-0.1-3.3v-1.1h0.1c0.2,0,0.3-0.1,0.5-0.1c0.1,0,0.7,0,0.8,0
				c0.3,0,1.5,0.5,2,1.1v0.2c0,0-0.4,0.9-0.5,1.1c-0.7,0.5-1.7,2.3-2,2.5C178.8,18,178.7,18,178.6,18z"/>
			<path class="st0" d="M224.9,24.6c-0.1-0.5-0.3-1.1-0.5-1.6c-0.1-0.2-0.2-0.4-0.3-0.7c0-0.1-0.1-0.2-0.1-0.3l-0.1-0.7
				c0-0.1-0.1-0.2-0.1-0.2c-0.1-0.2-0.1-0.3-0.2-0.5c-0.2-0.9-0.7-1.6-1-2.4l-0.2-0.3c-0.1-0.2-0.2-0.4-0.3-0.5
				c1.1-1.3,2.5-3.3,2.7-3.6c0.1-0.1,0.1-0.3,0.1-0.4c0-0.1-0.1-0.2-0.2-0.3l-0.1-0.1c-0.2-0.1-0.3-0.2-0.5-0.3
				c-0.7-0.4-1.4-0.9-2.2-1.1c-1.1-0.2-1.1-0.3-2.1-0.5c-0.2,0-0.4,0-0.5,0c0,0,0,0-0.1,0l0,0c-0.2,0-0.3,0.2-0.3,0.4
				c-0.1,0.3-0.1,0.7-0.1,1c0,0.3,0.1,1.2,0.1,1.4c0,0.3,0.1,1.4,0.1,1.7c0,0.5,0,1.1,0,1.6s0,1.1,0,1.6c0,2.5,0,3.9,0.2,5.7
				c0,0.4,0.2,2,0.8,2c0.8,0,0.5-1.3,0.5-1.9c0-0.4-0.1-2.3-0.2-3.5c0-0.3,0-0.8,0-1.1v-0.2c0-0.2,0.8-1.1,0.9-1.2
				c0,0,0.1-0.2,0.3-0.4c0.2,0.8,0.8,2,1,2.3l0.1,0.5c0.2,0.4,0.4,0.9,0.5,1.3c0.4,1.2,1.1,3.5,1.5,3.6c0.1,0,0.2,0,0.2,0
				c0.2-0.3,0.3-0.5,0.2-0.9C224.9,24.9,224.9,24.7,224.9,24.6z M220.5,17.3c-0.1,0.1-0.2,0.1-0.2,0.1s0,0-0.1,0h-0.1l-0.1-0.1
				c0,0,0,0-0.1-0.1l-0.1-0.1l0,0c0-0.1,0-0.1,0-0.2c0-1.1-0.1-2.2-0.1-3.3v-1.1h0.1c0.2,0,0.3-0.1,0.5-0.1c0.1,0,0.7,0,0.8,0
				c0.3,0,1.4,0.5,1.9,1.1v0.2c0,0-0.4,0.9-0.5,1.1C221.8,15.4,220.7,17.1,220.5,17.3z"/>
			<path class="st0" d="M190.8,11.3l-0.4,0.1c0,0-1.7,1-2.4,1.2c0,0-0.9,0.5-1.2,0.7c-0.1,0.1-0.3,0.2-0.4,0.4
				c-0.1,0.3-0.2,0.3-0.2,0.7c0,0.2,0,0.5-0.1,0.8l0,0c0,0.2,0,0.4,0,0.5c0,0.2,0,0.4,0,0.7c0,0.3,0,0.4,0,0.8
				c0,0.5-0.1,1.1-0.1,1.6c0,0.8-0.1,2.1,0,2.9c0,1.3,0,2.5,0.1,3.9c0,0.4,0.3,0.8,0.8,0.8c0.8,0,0.3-1.3,0.3-1.3
				c0-0.2-0.1-1.5-0.1-2.4c0-0.3,0-1.5,0-1.5c0-0.2,0.3-0.5,0.4-0.7l1.4-1.4c0.1-0.1,1.2-1,1.2-1c0.4-0.3,0.7-0.5,1-1
				c0.1-0.1,0.1-0.3,0.1-0.3c0-0.1-0.2-0.4-0.5-0.4c-0.1,0-0.3,0.1-0.4,0.2l-0.3,0.2c0,0-0.2,0.2-0.4,0.3c-0.7,0.4-0.5,0.5-1.4,1.3
				c-0.1,0.1-0.3,0.3-0.5,0.4c-0.1,0.1-0.2,0.1-0.2,0.1s0,0-0.1,0H187l-0.1-0.1c0,0,0,0,0-0.1c0,0,0-0.1-0.1-0.1l0,0
				c0-0.1,0-0.1,0-0.2c0.1-1,0.1-1.7,0.2-2.7l0.1-1.1l0.8-0.7l0.5-0.3l0.9-0.7l1-0.4l0.4-0.3l0.4-0.5v-0.2
				C191.3,11.4,191,11.2,190.8,11.3z"/>
			<path class="st0" d="M240.7,17.1c-0.1-0.3-0.2-0.4-0.4-0.4c-0.7,0-1.3-0.3-1.9-0.7c0,0-0.1-0.1-0.2-0.1c0,0-0.1,0-0.1-0.1
				c-0.1-0.1-0.3-0.1-0.4-0.2c-0.3-0.1-0.7-0.3-1-0.7c-0.2-0.2-0.2-0.3-0.2-0.4c0-0.2,0.1-0.3,0.3-0.5c0.2-0.2,0.4-0.4,0.5-0.7
				c0.3-0.3,0.5-0.7,0.9-1c0.2-0.2,0.4-0.4,0.7-0.7c0.2-0.2,0.2-0.5,0-0.9v-0.1h-0.1c-0.4,0.1-0.8,0.3-1.1,0.8l-0.1,0.1l0,0
				c-0.2,0.2-0.3,0.4-0.5,0.5c-0.5,0.4-0.9,1-1.3,1.5c0,0.1-0.1,0.1-0.1,0.2c-0.3,0.4-0.3,0.9,0,1.3c0.2,0.3,0.5,0.5,0.8,0.8
				c0.4,0.3,1,0.7,1.5,1c0.2,0.1,0.5,0.3,0.8,0.5c0.1,0.1,0.2,0.1,0.3,0.2s0.2,0.1,0.3,0.2c0.3,0.2,0.4,0.4,0.3,0.9
				c0,0.5-0.2,1.1-0.4,1.6c-0.5,1-1.1,1.9-1.7,2.7c-0.3,0.4-0.8,0.9-1.3,1.2l-0.1,0.1c-0.3,0.2-0.7,0.4-1,0.7
				c-0.1,0.1-0.2,0.2-0.2,0.4c0,0.1,0.1,0.3,0.2,0.4c0.1,0.1,0.2,0.1,0.3,0.1c0.1,0,0.2,0,0.2-0.1h0.1c0.2-0.1,0.4-0.2,0.7-0.3
				c0.9-0.7,1.6-1.3,2.2-2.1c0.1-0.2,0.3-0.3,0.4-0.5c0.1-0.1,0.2-0.3,0.3-0.4c0.1-0.2,0.3-0.4,0.4-0.8c0-0.1,0.1-0.1,0.1-0.2
				s0.1-0.2,0.1-0.2c0.3-0.5,0.5-1.2,0.8-2.1C240.9,18.4,240.9,17.7,240.7,17.1z"/>
			<path class="st0" d="M164.8,19.7c-0.5-0.7-2.8-2.6-3.9-3.5c-2.1-1.6-2.4-2.2-2.7-2.6c-0.1-0.1-0.2-0.3-0.2-0.3
				c0-0.2,0.2-0.2,0.2-0.2c0.2,0,0.1-0.1,1,0c1,0.1,1.6,0.5,2.4,1c0.1,0,0.7,0.4,0.7,0.5l0,0c0.1,0.1,0.2,0.2,0.4,0.4
				c0.1,0.2,0.3,0.5,0.3,0.5c0,0.2,0.3,0.5,0.5,0.5h0.2c0.2,0,0.4-0.1,0.3-0.3c0-0.2-0.1-0.7-0.5-1.2c-0.2-0.3-0.5-0.5-0.8-0.8
				c-0.3-0.2-0.7-0.5-0.7-0.5l0,0c-0.1-0.1-0.4-0.3-1-0.5c-0.8-0.3-1.3-0.5-1.7-0.7c-0.3-0.1-0.9-0.1-1.1-0.1c-0.1,0-0.3,0-0.4,0
				s-0.2,0-0.4,0c-0.3,0-0.5,0.1-0.7,0.1s-0.1,0.1-0.1,0.1c-0.1,0-0.1,0.1-0.2,0.1c-0.2,0.2-0.4,1.1,0,1.4c1.2,0.8,6,4.6,7.2,6.2
				c0.1,0.2,0.3,0.7,0.3,1c0.1,1.1-1.2,3.2-1.9,3.8c0,0-0.2,0.2-0.4,0.2c-0.1,0-0.3-0.1-0.4-0.2c-0.7-0.8-1.1-1.3-1.4-2.6
				c-0.3-1.4-0.4-3-0.4-3.4c0-0.1,0-0.2-0.1-0.2c-0.1-0.1-0.4-0.1-0.7,0.1l0,0l0,0c-0.2,0.7-0.1,2.2,0.1,3.4l0,0
				c0.2,0.8,0.7,2.5,2.4,4.4c0.2,0.2,0.3,0.3,0.7,0.3c0.1,0,0.2-0.1,0.2-0.1c0.2-0.1,1.1-0.9,1.5-1.9c0.4-0.7,2-3.2,1.6-4.4
				C165.1,20.3,165,20,164.8,19.7z"/>
			<g>
				<g>
					<path class="st0" d="M61.2,21.7c0.1-0.1,0.1-0.2,0.1-0.4c0.1-0.3,0.2-0.5,0.2-1c0.1-0.8,0.2-1.1,0.2-2c0-0.2,0-0.5,0-0.9
						c0-0.4-0.2-0.9-0.7-0.9c-0.8,0-0.5,0.1-0.7,0.3c0,0.1,0.1,0.9,0.1,0.9c-0.1,1.9-0.2,2.6-0.8,3.9c-0.1,0.2-0.3,1-0.5,1.3
						c-0.1,0.2-0.2,0.3-0.3,0.4c-0.5,0.8-0.7,0.9-1.3,1.6c-0.1,0.2-0.8,1-1,1.3c-0.1,0.1,0.7,0.3,0.8,0.3c0.3-0.1,0.4-0.3,0.8-0.7
						c0.1-0.2,0.2-0.1,0.3-0.3c0.8-1,1.3-1.5,1.6-2.2c0.1-0.2,0.1-0.3,0.3-0.5c0.1-0.1,0.1-0.2,0.2-0.3C61,22.4,61.1,22.2,61.2,21.7
						z"/>
				</g>
				<g>
					<path class="st0" d="M63.8,17.6c0-0.2,0-0.2,0-0.4c0-0.3-0.1-0.7-0.2-1c-0.3-0.8-0.3-1.1-0.7-1.9c-0.1-0.2-0.2-0.7-0.3-0.9
						c-0.2-0.3-0.8-0.5-1-0.7C60.9,12.7,60.8,14,61,14c0.2,0,0.5,0.5,0.5,0.5c0.5,0.8,1.1,2.2,1.3,3.6c0,0.2,0.1,1.1,0.1,1.4
						c0,0.2,0,0.3,0,0.5c-0.1,1-0.2,1.1-0.3,2.1c0,0.2-0.2,1.3-0.2,1.6c0,0.1,0.8,0,0.9-0.1c0.3-0.2,0.3-0.4,0.3-1
						c0-0.2,0.1-0.2,0.1-0.4c0.2-1.2,0.4-1.9,0.4-2.6c0-0.2,0-1,0-1.2C63.9,18.3,63.9,17.9,63.8,17.6z"/>
				</g>
				<path class="st0" d="M61.5,12.8c-0.1,0-0.8-0.1-0.9-0.1c-0.4,0.1-2,1.1-2.3,1.4c-0.1,0.2-1.1,1.2-1.6,2.1
					c-0.7,1-0.9,1.9-1.1,2.9c-0.1,0.2-0.1,0.9-0.1,1.1c0,0.1,0,0.2,0,0.2c0,0.2,0,0.4,0,0.7c0,0.1,0,0.3,0,0.4s0,0.2,0,0.3
					c0,0.2,0,0.3,0.1,0.4c0,0.3,0.1,0.8,0.1,1.1c0.1,0.9,0.1,1.1,0.4,2c0.1,0.2,0.1,0.2,0.2,0.4c0.1,0.4,0.2,0.8,0.7,1.1
					c0.1,0,0.1,0,0.2,0.1c0.8,0.2,0.5-0.3,0.5-0.3c0-0.1,0-0.2-0.1-0.2c0-0.4,0-0.3,0.1-0.9c-0.3,0.2-1-2.2-1.2-4.1
					c0-0.3,0-0.8,0-1.1c0.1-1,0.3-1.6,0.8-2.5c0.8-1.5,1.9-2.7,2.4-3c0.4-0.3,1.3-0.5,1.4-0.4c0.1-0.4,0.1-0.3,0.2-0.8
					c0.1-0.1,0.9-0.1,0.9-0.1C62.2,13.1,61.7,12.9,61.5,12.8z"/>
				<g>
					<path class="st0" d="M58.6,19.3c0.1-0.1,0.1-0.2,0.2-0.3c0.1-0.2,0.2-0.3,0.3-0.5c0.3-0.5,0.4-0.7,0.9-1.2
						c0.1-0.1,0.2-0.1,0.3-0.2c0.2-0.2,0.3-0.2,0.8-0.3c0.1,0,0.1,0,0.2,0c0.8,0,0.3,0.4,0.3,0.4c0,0.1-0.1,0.1-0.1,0.2
						c-0.1,0.3-0.1,0.2-0.2,0.5c-0.5-0.3-1.5,1.6-1.7,2.2c-0.1,0.1-0.5,1.4-0.7,1.5c-0.2,0.7-0.3,0.8-0.4,0.9
						c-0.1,0.1-0.3,0.1-0.4,0.1c0,0-0.2-0.1-0.3-0.2c-0.2-0.2-0.1-0.5-0.1-0.8c0-0.1,0.3-1,0.4-1.1c0.1-0.2,0.2-0.5,0.3-0.8
						c0-0.1,0.1-0.2,0.1-0.3C58.5,19.5,58.6,19.3,58.6,19.3z"/>
				</g>
				<path class="st0" d="M62.8,24.9c0,0.1,0,0.1,0,0.2s-0.1,0.3-0.1,0.4c0,0.3-0.1,0.4-0.2,0.8c0,0.1-0.1,0.2-0.1,0.2
					c-0.1,0.2-0.1,0.3-0.4,0.4c-0.1,0-0.3-0.1-0.4-0.1c-0.4-0.1-0.2-0.4-0.2-0.4v-0.1l0,0c0.4-1,0.5-1.3,0.8-2.2
					c0.1-0.3,0.4-2.1,0.5-2.4v-0.2c0-0.4,0.3-1.2,0.3-1.6c0-0.1,0.2-0.2,0.3-0.3c0-0.1,0.1-0.1,0.2-0.1h0.1c0.1,0,0.2,0.1,0.2,0.1
					c0.2,0.1,0.1,0.3,0.1,0.5v0.2c-0.1,0.5-0.1,1.5-0.3,2.1c0,0.1-0.4,1.7-0.4,1.9s0,0.1,0,0.2L62.8,24.9z"/>
			</g>
		</g>
	</g>
</g>
</svg>
