<?xml version="1.0" encoding="utf-8"?>
<!-- Generator: Adobe Illustrator 24.0.2, SVG Export Plug-In . SVG Version: 6.00 Build 0)  -->
<svg version="1.1" id="Layer_1" xmlns="http://www.w3.org/2000/svg" xmlns:xlink="http://www.w3.org/1999/xlink" x="0px" y="0px"
	 viewBox="0 0 571 112.7" style="enable-background:new 0 0 571 112.7;" xml:space="preserve">
<g id="Layer_2_1_">
</g>
<g id="Layer_1_1_">
	<g>
		<path d="M115,72c0-0.2,0.1-0.5,0.1-0.7c0.1-1.2,0.2-2.3,0.2-3.3c0.2-0.1,0.9-0.5,1.2-0.6l0.4-0.2c0.7-0.4,1.3-0.7,2-1.2l1.2-0.7
			l0.5-0.4c0,0,0.1,0,0.1-0.1c0.2,1.2,0.5,2.3,0.9,3.6l0.4,1.3c0.2,1.2,0.9,2.1,1.6,2.7c0.2,0.1,0.5,0.2,0.7,0.4v-0.1l0,0l0.4,0.1
			c0.2-0.1,0.7-0.6,0.7-1c0.1-0.5,0-1.1-0.1-1.7l-0.1-0.2c-0.5-2.3-1.1-4.7-1.7-6.9l-0.5-2.1c-0.5-1.8-0.9-3.4-1.1-5
			c-0.4-1.8-0.6-3.3-1-4.7c-0.5-2.4-1-4.8-1.6-8.6c0-0.2-0.1-0.5-0.1-0.6c-0.1-0.4-0.6-0.6-1.1-0.6c0,0,0,0-0.1,0l0,0l0,0l0,0
			l-0.2,0.1l-0.2,0.2c-0.5,0.6-0.9,1.5-1,2.7l-0.2,1.5c-0.2,1.6-0.6,2.9-0.9,4.2c-0.2,1.2-0.5,2.3-0.7,3.4c-0.1,0.7-0.1,1-0.2,2
			l-0.1,1l-0.2,2.6l-0.1,1.1c-0.1,1-0.2,1.8-0.4,2.8c-0.2,1.2-0.4,2.6-0.5,3.8c-0.1,0.1-0.1,0.7-0.1,0.7l-0.4,3.8
			c-0.1,0.9-0.2,2.1,0.2,2.6c0.1,0.1,0.2,0.2,0.4,0.2l0,0C114.6,73.6,114.9,72.6,115,72z M115.6,65.1c0.2-2.9,0.5-5.9,1-9.3l0.1-0.9
			c0.1-0.9,0.2-1.8,0.5-3.2l0.4-2.1l0.2,1.1c0.2,0.9,0.4,1.7,0.5,2.8l0.2,1l0.2,0.9l0.2,1.1c0.1,0.7,0.2,1.5,0.4,2.1
			c0.2,1.2,0.5,2.4,0.7,3.7l-0.4,0.2c-0.2,0.1-0.5,0.2-0.7,0.4c-0.4,0.2-1.3,0.9-1.5,1.1c-0.1,0.1-0.7,0.4-1.6,1
			C115.8,65,115.7,65,115.6,65.1z"/>
		<path d="M67.5,52.7c0,0.4,0.1,0.7,0.1,1.2s0.1,1,0.2,1.5c0.2,1.5,0.5,2.9,0.7,4.4l0.5,2.7c0.1,0.7,0.2,1.6,0.2,2.3
			c0,0.2,0.4,2.8,0.5,3.2c0.2,0.9,0.5,1.8,0.9,2.8c0.2,0.9,1.2,1.1,2,1.2c0.2,0,0.4-0.1,0.5-0.2c0.1-0.2,0.2-0.5,0.1-0.9
			c0-0.4-0.1-0.7-0.2-1.2L72.9,69c-0.1-0.4-0.2-0.9-0.2-1.3l-0.2-1.5c-0.2-1.5-0.5-3.4-0.6-4.4c-0.1-1.1,0.9-1.6,1.8-1.7H74
			c0.1,0,0.2,0,0.4,0c0.1,0,0.4,0,0.5,0l0,0c0.4,0,0.7,0,1.2,0h0.1c0.9,0,1.8-0.1,2.8-0.2c0.1,0,0.2,0,0.5,0l0.4,0.1v1.1
			c0,0.6,0,1.3,0,2c0,0.5-0.1,1-0.1,1.3c0,2.3,0.1,3.9,0.4,6l0.2,1.5c0.1,1.1,0.6,2.1,1.5,2.7c0.1,0.1,0.2,0.2,0.5,0.2l0,0
			c0.4,0,1-0.4,1.1-1c0-0.2,0-0.5,0-0.7c-0.5-4.3-0.6-8.1-0.7-11.9c-0.1-1.7-0.1-3.3-0.2-4.9c-0.1-1.7-0.1-3.4-0.1-5.3v-1.7
			c0-2.6,0.1-5.1,0.1-8c0-0.6,0-1-0.4-1.3c-0.4-0.4-0.7-0.4-0.9-0.4s-0.2,0-0.4,0.1c-0.1,0-0.2,0.1-0.4,0.1
			c-0.2,0.1-0.6,0.2-0.7,0.4c-0.5,0.6-0.5,0.9-0.5,1.8v2c0,3.3,0,6.6,0.2,10c0,0.7,0.1,1.5,0.1,2.2l-0.1,1.2H79
			c-0.2,0-0.5,0.1-0.9,0.1c-0.9,0-1.2,0-1.8-0.1l-1.5-0.1c-0.6,0-1.1-0.1-1.6-0.1c-0.9-0.1-2.7-0.5-2.9-2.1v-0.6
			c-0.1-1.7-0.1-2.2-0.5-3.9c0-0.2,0-0.4,0-0.6v-2l-0.1-1c0-0.7-0.1-1.5-0.2-2.2c0-0.2-0.1-0.6-0.2-0.7c-0.2-0.1-0.5-0.2-0.7-0.2
			c-0.7,0-1.6,0.7-1.6,1.6c-0.1,1.8,0.1,3.8,0.5,5.4C67.3,51.8,67.5,52.2,67.5,52.7z"/>
		<path d="M136.5,72.9c0,0,0.2-0.7-0.6-2.3c-0.2-0.5-0.4-1-0.4-1.3c0-0.2-0.1-0.5-0.1-0.7c0-0.1-0.2-1.3-0.2-1.5
			c-0.2-1.7-0.2-2.9-0.5-5.5c0-0.7,0-1.5,0.1-2.2v-0.5c0-0.1,0.1-0.4,0.6-1l0.4,0.7c0.5,1.1,1,2.2,1.7,3.2c0.2,0.4,0.5,0.9,0.7,1.2
			l0.2,0.5l0.5,1.3l0.4,0.5c0.2,0.4,0.5,0.6,0.6,1c0.9,1.6,2,3.2,2.9,4.7l0.5,0.6c0.4,0.6,1.1,1.6,1.8,1.7c0.1,0,0.5-0.1,0.7-0.4
			c0.2-0.1,0.4-0.7,0.4-1c0-0.1,0-0.2,0-0.4c0-0.4,0-0.6-0.1-0.9c-0.9-1.2-1.7-2.3-2.6-3.6l-0.5-0.6c-0.6-0.9-1.1-1.6-1.6-2.4
			c-1-1.6-1.8-3.6-2.8-5.6c-0.4-0.9-0.9-1.8-1.2-2.7c0-0.1-0.1-0.2-0.1-0.2l1.1-1.1c2.6-2.7,7.5-7.7,8.1-8.6
			c0.1-0.2,0.2-0.7,0.2-0.9s-0.1-0.4-0.5-0.6c-0.1-0.1-0.2-0.1-0.2-0.2l-1.2-0.6c-1.7-0.9-4.2-1.8-6-2.2c-1.3-0.2-1.8-0.5-2.4-0.6
			s-1-0.4-2.1-0.5c-0.2,0-0.6-0.1-1-0.1H133l0,0l0,0l0,0h-0.2c-0.5,0.1-0.9,0.4-1,1s-0.1,1.3-0.2,2c0,0.6,0,1.2,0,1.8h0.1l0,0
			l-0.1,0.2c0,0.4,0,0.7,0,1.1c0,0.5,0,1,0,1.5c0,0.6,0,1.2,0,1.8c0,1,0,2,0.1,3.1V53c0,1.1,0.1,2.3,0.1,3.4v1.5
			c0,4.8,0.1,9.7,2,14.5c0.2,0.6,1.1,1.1,1.7,1.1C135.9,73.6,136.3,73.4,136.5,72.9z M134.5,46.1v-2.4l0.4-0.1
			c0.5-0.1,0.9-0.2,1.2-0.2c0.2,0,0.5-0.1,0.7-0.1c0.1,0,0.4,0,0.5,0c0.7,0,1.2,0.1,1.5,0.2l0.2,0.1c1.3,0.4,2.7,0.9,3.7,2l0.1,0.5
			c0,0-1.7,1.8-2.2,2.2c-0.9,0.7-2.2,2.3-3.2,3.6c-0.6,0.9-1.2,1.5-1.3,1.6s-0.4,0.2-0.7,0.4l-0.2,0.1l-0.5-0.4c0,0-0.1-0.1-0.1-0.4
			c0-0.1-0.1-0.2-0.1-0.5L134.5,46.1z"/>
		<path d="M197.2,68.8c-0.1-0.9-0.2-4.7-0.5-7c0-0.7,0-1.5,0.1-2.2v-0.2v-0.1c0.7,0.9,1.8,1.8,2.3,2.2l0.5,0.7
			c0.6,0.4,1.1,1,1.7,1.6c0.4,0.4,0.7,0.9,1.2,1.2c1.3,1.5,2.8,3.1,3.4,3.1c0.1,0,0.5-0.1,0.5-0.2c0.4-0.7,0.4-1.3,0-1.7l-0.4-0.5
			c-0.5-0.7-1.1-1.5-1.8-2.1c-0.2-0.2-0.5-0.5-1-0.9l-0.2-0.2l-0.6-0.9l-0.4-0.4c-0.2-0.2-0.5-0.4-0.6-0.6c-1-1.1-2.1-2-3.1-2.8
			l-0.4-0.2l0,0c0,0,0.9-1.1,1.3-1.7c2-2.3,6.5-8,7-8.7c0.1-0.2,0.2-0.6,0.2-0.9c0-0.2-0.1-0.4-0.4-0.6c-0.1-0.1-0.1-0.1-0.2-0.2
			l-1.1-0.6c-0.4-0.2-0.7-0.4-1.1-0.6c-1.1-0.6-2.2-1.3-3.4-1.6c-1.1-0.2-1.7-0.5-2.2-0.6c-0.6-0.1-1.1-0.4-2.1-0.5
			c-0.4-0.1-0.7-0.1-1-0.1h-0.5c-0.5,0.1-0.7,0.4-0.9,0.9c-0.1,0.6-0.1,1.2-0.1,2c0,0.2,0,1,0.1,1.5c0,0.5,0.1,1,0.1,1.2
			c0,0.4,0,1.2,0.1,2.1c0,0.6,0,1.1,0,1.3c0,1.1,0,2.2,0,3.3s0,2.2,0,3.3v1.6c0,4,0,6.7,0.4,9.9c0.2,2.7,0.7,4,1.6,4l0,0
			c0.4,0,0.6-0.1,0.9-0.4C197.4,71.5,197.2,69.6,197.2,68.8z M197.5,44.5c0,0,0.1,0,0.2,0c0.5,0,1.2,0,1.3,0c0.6,0,2.9,1,3.8,2.2
			v0.5c0,0-0.9,1.7-1.2,2.1c-0.7,0.7-2,2.2-2.8,3.4c-0.6,0.7-1.1,1.3-1.2,1.5c-0.1,0.1-0.4,0.2-0.7,0.2l-0.1,0.1l-0.4-0.4
			c0,0-0.1-0.1-0.1-0.4c0-0.1,0-0.2,0-0.4c0-1,0-2.1-0.1-3.3c-0.1-1.1-0.1-2.2-0.1-3.3v-2.1l0.2-0.1
			C196.8,44.7,197.2,44.7,197.5,44.5z"/>
		<path d="M256.3,61.6c0-0.9,0-1.6,0-2.4v-0.5v-0.1l0,0c1,1,2.4,2.2,3.1,2.6l0.6,0.7c0.6,0.4,1.2,1,2,1.6c0.4,0.4,0.9,0.9,1.3,1.3
			c1.7,1.5,3.3,3.1,4,3.1l0,0c0.1,0,0.5-0.2,0.5-0.4c0.2-0.9,0.1-1.5-0.2-1.8l-0.5-0.5c-0.7-0.7-1.3-1.6-2.2-2.2
			c-0.4-0.2-0.6-0.5-1.1-0.9l-0.2-0.2l-0.7-1l-0.4-0.4c-0.2-0.2-0.5-0.4-0.7-0.6c-1.1-1.1-2.4-2-3.7-2.8l-0.6-0.2l0,0
			c0,0,0.9-1.2,1.3-1.8c1.8-2.7,6.4-8.9,6.9-9.9c0.1-0.2,0.1-0.7,0.1-0.9s-0.1-0.4-0.4-0.7c-0.1-0.1-0.1-0.1-0.2-0.2
			c-0.2-0.1-0.5-0.1-0.7-0.1c-0.5,0-0.9,0.2-1.2,0.6l-1.1,1.6c0,0-0.7,2-1.1,2.3c-0.7,0.9-1.8,2.4-2.7,3.8c-0.5,0.9-1,1.6-1.1,1.7
			c-0.1,0.1-0.4,0.2-0.7,0.4l-0.1,0.1l-0.4-0.4c0,0-0.1-0.1-0.1-0.4c0-0.1-0.1-0.2-0.1-0.5c0-1.2,0-2.4,0-3.7s0-5.9,0-5.9v-2.3
			c0-0.7-1-1.5-1.8-1.5h-0.2c-0.5,0.1-0.7,0.4-0.9,1c-0.1,0.7-0.1,1.5-0.1,2.1c0,0.4,0.1,1,0.1,1.7c0,0.6,0.1,1.2,0.1,1.5
			c0,0.4,0.1,1.5,0.1,2.3c0,0.6,0.1,1.2,0.1,1.5c0,1.2,0.1,2.4,0.1,3.7c0.1,1.2,0.1,2.4,0.1,3.7l0.1,1.8c0.1,4.4,0.2,7.3,0.6,10.8
			c0.4,2.9,0.9,4.4,1.7,4.4l0,0c0.2,0,0.6-0.1,0.7-0.4c0.7-0.9,0.5-2.9,0.4-3.9C256.8,68.4,256.5,64,256.3,61.6z"/>
		<path d="M175.7,72.9c0.4-0.4,0.9-0.9,1.2-1.3c1.5-1.2,2.7-2.7,3.9-4.2l0.6-0.7l0.6-0.9c0.6-0.9,1.8-2.3,2-2.6
			c0.4-0.6,0.7-1.2,1.1-1.7c0.4-0.6,0.7-1.2,1.1-1.7c0.7-1.3,1.2-2.6,1.3-3.3c0-0.1,0.1-0.4,0.1-0.5c0-0.4-0.2-0.6-0.7-0.7
			c-0.2,0-0.5,0-0.6,0h-2c-0.5,0-1,0-1.3,0c-0.7,0-1.5-0.1-2.2-0.2l-0.7-0.1c-0.4,0-0.7-0.1-0.9-0.7c0.1-0.5,0.5-0.6,0.9-0.9l1.5-1
			c1.1-0.6,2.2-1.3,3.2-2.1c0.4-0.2,0.9-0.5,1.2-0.7c0.4-0.2,0.9-0.5,1.1-0.6c0.1-0.1,0.1-0.5,0-1c0-0.1,0-0.2,0-0.2
			c0-0.1-0.1-0.4-0.2-0.6c-0.2-0.2-0.5-0.4-0.7-0.6c-2.2-1.6-4.4-2.8-6.5-3.8c-1.6-0.7-3.2-1.2-4.7-1.7l-0.6-0.2
			c-0.2-0.1-0.6-0.1-0.7-0.2c-0.1,0-0.2,0-0.4,0l0,0c-0.4,0-0.7,0.1-0.9,0.4c-0.2,0.2-0.2,0.6-0.2,1.2c0,0.1,0,0.4,0.1,0.5
			c0.2,0.9,0.4,1.8,0.4,2.8c0,2.7,0.1,5.3,0.1,7.8c0,1.5,0.1,2.9,0.1,4.7c0.1,2,0.1,3.8,0.2,5.5l0.1,1.5c0,1,0.1,2.1,0.1,2.7
			c0.1,0.9,0.1,1.2,0.2,1.6c0,0.2,0.1,0.6,0.2,1.3c0.1,0.7,0.2,1.3,0.5,2l0.1,0.2c0.1,0.4,0.4,0.6,0.7,0.6l0.2-0.1
			C175.4,73.3,175.6,73.1,175.7,72.9z M177.1,56.8c1.3,0,2.3,0.1,3.3,0.2c0.5,0,1.1,0.2,1.7,0.4l0.5,0.1c0.2,0,0.5,0.1,0.6,0.2
			c0.4,0.2,0.5,0.6,0.2,1c-0.1,0.2-0.2,0.5-0.5,0.7c-0.2,0.4-0.6,1-1,1.6s-0.7,1.3-1.1,1.8c-1.1,1.7-3.2,4-3.9,4.8l-0.2,0.2
			c-0.1,0.2-0.2,0.2-0.5,0.2v0.1l0,0L176,68c-0.2-0.1-0.4-0.2-0.5-0.5c-0.1-0.1-0.1-0.4-0.1-0.6c0-0.7,0-1.2-0.1-2
			c0-0.5,0-0.9,0-1.3v-1.1c0-0.6,0-1.3,0-2c-0.1-1.1,0.2-2.1,0.5-3.1C176.2,57,176.5,56.8,177.1,56.8L177.1,56.8L177.1,56.8
			L177.1,56.8z M179.8,44.9c0.5,0.1,0.9,0.4,1.3,0.6c0.7,0.5,1.6,1,2.2,1.5c0.2,0.1,0.5,0.4,0.7,0.6c0.2,0.2,0.4,0.5,0.2,0.7
			c0,0.2-0.1,0.5-0.5,0.6c-0.7,0.5-1.3,0.9-2.2,1.2c-1,0.4-1.8,0.9-3.1,1.6c-0.6,0.4-1.2,0.7-2,1.1c-0.1,0.1-0.2,0.1-0.6,0.1
			l-0.1,0.1l0,0l0,0l-0.1-0.2c-0.1-0.1-0.1-0.1-0.1-0.2c-0.1-1,0.1-7.5,0.4-8.3c0.2,0,0.6-0.1,0.9-0.1h0.1l0,0l0,0
			C178.1,44.4,178.9,44.5,179.8,44.9z"/>
		<path d="M161.8,73.3c-0.1,0-0.2,0-0.4-0.1c-0.7-0.5-1.2-1.1-1.3-1.8l-0.1-1.1c-0.2-1.6-0.5-3.3-0.5-4.9c0-0.7,0-1.3-0.1-2.1v-0.9
			l-0.4-1.8v-0.9c0-0.4-0.1-3.3-0.1-5.6l-0.9,0.1l-1.6,0.9l-3.6,1.5c-0.2,0.1-0.4,0.1-0.6,0.1s-0.6-0.1-0.7-0.2
			c-0.2-0.2-0.5-0.5-0.5-0.9s0.2-0.7,0.6-1l2.7-1.5l4.3-2.2c-0.2-2.9-0.5-7.3-0.5-9.4v-1.1c0-1,0.4-1.6,1-2.1
			c0.1-0.1,0.4-0.2,0.6-0.4c0.1,0,0.2,0,0.2,0c0.2,0,0.4,0.1,0.5,0.4c0.1,0.2,0.2,0.5,0.4,0.7c0.1,0.2,0.2,0.6,0.2,0.9
			c0,0.9,0,2.3,0.1,3.8c0.1,1.8,0.1,3.4,0.1,4.4v1.1l1-0.2l2.8-1.6c0.2-0.1,0.5-0.2,0.7-0.2c0.1,0,0.4,0,0.5,0.1l0.2,0.1l0.1,0.2
			l0.2,0.2c0.1,0.2,0.1,0.4,0,0.6l-0.4,1c-0.1,0.2-0.2,0.4-0.5,0.5l-1.5,0.6l-3.4,2.2v2.2c0.1,2.2,0.1,4.3,0.1,4.9
			c0.2,3.8,0.6,7.5,1.2,11.9c0,0.2,0,0.4,0,0.5C162.6,72.6,162,73.3,161.8,73.3z"/>
		<path d="M95.5,73.7c0.5,0,0.9-0.2,1.1-0.6c0.4-0.5,0.6-0.9,0.9-1.1c0.1-0.2,0.4-0.4,0.6-0.7l1.2-1.7c1.5-1.8,2.9-3.8,4-5.9
			c0.1-0.2,0.2-0.5,0.5-0.6c0.1-0.1,0.2-0.2,0.2-0.4c0.2-0.4,0.2-0.9,0-1.2l-0.4-0.5c-0.1-0.1-0.2-0.2-0.5-0.2s-0.6,0.1-0.7,0.4
			c0,0-0.5,0.5-1.1,1.1c-1.5,1.8-2.9,3.9-4.4,6.7c0,0.1-0.2,0.2-0.2,0.4c-0.1,0.1-0.1,0.2-0.2,0.2c-0.1,0.1-0.1,0.2-0.4,0.4h-0.3
			c-0.4-0.5-0.5-1.1-0.6-1.7V68c0,0-0.4-2.6-0.2-4.8c0-0.2,0-0.6,0-1c0-0.7,0-1.6,0-2.1l0.1-0.4c0.1-0.5,0.7-1.1,1-1.3l2.8-2.7
			c0.1-0.1,1.7-1.5,2.7-2.3c1-0.6,2-1.7,2.6-2.4c0.1-0.1,0-0.6-0.1-0.7c-0.1-0.2-0.2-0.6-0.7-0.7c-0.2,0-0.5,0.1-0.7,0.2l-0.9,0.5
			c0,0-1.5,1.3-1.7,1.6c-0.6,0.5-0.9,0.7-1.2,1.1c-0.4,0.4-0.7,0.7-1.6,1.5c-0.1,0.1-0.2,0.2-0.4,0.4c-0.2,0.2-0.4,0.4-0.6,0.6
			c-0.1,0.1-0.4,0.1-0.5,0.2l-0.2,0.1L95,55.4c0,0-0.1-0.1-0.1-0.4c0-0.1,0-0.2,0-0.4l0.6-5.8l0.2-2.1l1.5-1.2l1.1-0.6l1.7-1.2
			l1.7-1.1l1-0.7l0.9-1.1v-0.6c0-0.4-0.4-0.7-0.9-0.7c-0.1,0-0.2,0-0.2,0l-0.9,0.4c0,0-3.3,2.2-4.4,2.6c-0.1,0-1.8,1.1-2.3,1.3
			c-0.2,0.2-0.7,0.5-0.9,1c-0.1,0.2-0.1,0.4-0.2,0.5c-0.1,0.2-0.2,0.4-0.2,0.7c0,0.5-0.1,1-0.1,1.6l-0.1,1.2c0,0.4-0.1,0.9-0.1,1.2
			c-0.1,0.6-0.1,1.1-0.1,1.7c-0.1,1-0.1,2-0.2,3.1c0,0-0.1,2.2-0.2,3.1c-0.4,4.5,0,8.9,0.9,14C93.9,73.1,94.8,73.7,95.5,73.7z"/>
		<path d="M239.3,66.7c0.6-0.4,1.2-0.7,2-1.2l1.1-0.7l0.6-0.5c0.1,0,0.1-0.1,0.1-0.1l1,3.9c0.2,1.1,0.7,2,1.5,2.4
			c0.2,0.1,0.5,0.2,0.7,0.4h0.4c0.2-0.1,0.4-0.4,0.4-0.7c0-0.4,0-0.6,0.1-1c0-0.4,0.1-0.9,0-1.1c-0.6-2.3-1.2-4.7-1.8-7l-0.4-1.3
			c-0.5-1.6-0.9-3.2-1.1-4.7c-0.2-1.5-0.6-2.9-1-4.5c-0.7-3.3-1.5-6.7-2.1-10.5c0-0.1-0.1-0.4-0.1-0.6c0-0.1,0-0.2,0-0.2
			c0-0.2-0.4-0.4-0.7-0.4c-0.1,0-0.2,0-0.5,0c-0.1,0-0.2,0.1-0.4,0.2c-0.4,0.4-0.5,0.9-0.7,1.6c-0.1,0.2-0.2,0.6-0.2,1L238,43
			c-0.4,2.1-0.6,4.2-0.7,6.2c-0.1,1-0.2,2.1-0.4,3.1c-0.1,0.6-0.2,1.3-0.4,2.1l-0.1,1l-0.2,2.4l-0.1,1.2c-0.1,0.9-0.2,1.6-0.4,2.4
			c-0.4,2.1-0.6,4.2-0.7,6.2l-0.1,1.6c-0.1,0.9-0.1,2,0.2,2.3c0.1,0.1,0.2,0.2,0.5,0.2l0,0c1.5-0.1,1.7-1,1.8-1.6
			c0-0.2,0.1-0.5,0.1-0.7c0.1-0.6,0.1-1.2,0.1-1.8v-0.1h0.1c0.1-0.1,0.9-0.5,1.2-0.7L239.3,66.7z M237.7,65.1l0.1-2.2
			c0.1-2.7,0.4-5.1,0.7-7.8c0.2-1.6,0.5-3.2,0.9-4.9l0.2-1.3c0-0.1,0.1-0.4,0.1-0.5l0.2,1c0.2,0.7,0.4,1.6,0.5,2.4l0.2,1l0.2,2.3
			l0.2,1c0.1,0.6,0.4,1.3,0.4,2c0.2,1.3,0.5,2.7,0.9,4c-0.2,0.1-0.5,0.2-0.6,0.4c-0.2,0.1-0.5,0.2-0.7,0.4c-0.4,0.2-1.2,0.9-1.3,1.1
			c-0.1,0.1-0.7,0.5-1.6,1C238,65,237.8,65.1,237.7,65.1z"/>
		<path d="M218.9,72.3c0.4-0.5,0.6-0.9,0.9-1.1c0.1-0.2,0.4-0.4,0.6-0.7c0.5-0.6,0.9-1.1,1.2-1.7c0,0,2.7-2.3,3.9-4.5
			c0.1-0.2,0.4-0.5,0.5-0.6s0.2-0.2,0.4-0.4c0.2-0.4,0.2-1,0-1.3l-0.4-0.6c-0.1-0.1-0.4-0.1-0.5-0.1c-0.2,0-0.6,0.1-0.7,0.4
			c0,0-0.5,0.5-1.1,1.2c-1.3,1.6-3.6,4.4-4.2,5.4l-0.2,0.4c-0.1,0.1-0.1,0.2-0.2,0.2c-0.1,0.1-0.1,0.2-0.4,0.4l-0.4,0.1
			c-0.5-0.6-0.9-3.8-1-5.8c0-0.7,0-3.2,0-3.2c0.1-0.5,0.7-1.2,1-1.5l2.9-2.8c0.1-0.1,1.6-1.3,2.4-2c1-0.6,1.5-1.1,2.2-2.1
			c0.1-0.2,0.2-0.6,0.2-0.7c0-0.1-0.1-0.4-0.2-0.5s-0.5-0.4-0.9-0.4l0,0c-0.2,0-0.6,0.2-0.9,0.4l-0.7,0.5c0,0-0.5,0.4-1,0.7
			c-0.6,0.5-1,0.9-1.2,1.2c-0.4,0.4-0.7,0.7-1.6,1.5c-0.1,0.1-0.2,0.2-0.4,0.4s-0.5,0.5-0.7,0.6c-0.1,0.1-0.4,0.1-0.7,0.2l-0.1,0.1
			l-0.4-0.4c0,0-0.1-0.1-0.1-0.4c0-0.1,0-0.2,0-0.4l0.6-6l0.2-2.2l1.6-1.2l1.1-0.6l1.7-1.3l2.2-1l1-0.7l0.9-1.1v-0.6
			c0-0.4-0.4-0.7-0.9-0.7c-0.1,0-0.2,0-0.4,0l-0.9,0.4c0,0-3.8,2.1-5,2.4c0,0-2,1.1-2.4,1.5c-0.4,0.2-0.7,0.5-0.9,1
			c-0.1,0.2-0.1,0.4-0.2,0.6c-0.1,0.2-0.1,0.4-0.2,0.7c0,0.5-0.1,1-0.1,1.7c0,0.4,0,0.9-0.1,1.2l-0.1,1.2c-0.1,0.6-0.1,1.2-0.1,1.8
			c-0.1,1-0.1,2.1-0.1,3.1s-0.1,4.5-0.1,5.6v0.7c0,3.1,0.1,5.5,1.2,9.7c0.1,0.6,1.3,1.6,2.2,1.6C218.4,72.8,218.6,72.6,218.9,72.3z"
			/>
	</g>
	<g>
		<path d="M403.8,55.9c-0.5-0.2-1-0.4-1.3-0.4c-1.3-0.2-3.1-0.5-4.9-0.5h-1.1c-0.2,0-0.5,0-0.6,0s-0.2-0.1-0.4-0.1
			c-0.1-0.2,0.1-0.5,0.2-0.7c0.1-0.1,1.7-1.5,2.8-2.3c1-0.6,3.4-3.1,4-3.9c0.1-0.2,0.2-0.6,0.2-0.7c0-0.2-0.1-0.4-0.2-0.6
			c-0.1-0.1-0.1-0.1-0.2-0.2l-0.9-0.6c-1.2-0.9-3.2-2-4.7-2.3c-0.9-0.2-1.5-0.5-2-0.6c-0.6-0.2-1.2-0.4-2.1-0.7
			c-0.4-0.1-0.7-0.1-1.3-0.1c-0.4,0-0.7,0.2-0.9,0.7c-0.1,0.6-0.2,1.2-0.2,1.7s-0.1,1-0.1,1.6c0,0.4,0,0.9-0.1,1.2l-0.1,1.2
			c0,0.6-0.1,1.1-0.1,1.7c0,1-0.1,2.1-0.1,3.1s-0.1,2.1-0.1,3.1c-0.2,5.4,0.1,9.9,1.2,14.2c0.1,0.6,1.3,1.5,2.1,1.5
			c0.4,0,0.6-0.1,0.7-0.4c0.4-0.5,0.6-0.9,0.9-1.1c0.1-0.2,0.4-0.4,0.6-0.7l1.2-1.7c1.5-2,2.9-3.9,4-6c0.1-0.2,0.2-0.5,0.5-0.6
			c0.1-0.1,0.2-0.2,0.2-0.4l0.5-0.7c0.7-1.1,1.6-2.3,2.4-3.6c0.1-0.1,0.1-0.2,0.1-0.4C404.1,56,403.9,55.9,403.8,55.9z M399.8,58
			l-0.1,0.4c-0.4,0.7-0.7,1.5-1.3,2.1c-1.5,1.8-2.9,4-4.3,6.9c0,0.1-0.1,0.2-0.1,0.2c-0.1,0.4-0.2,0.7-0.7,1l-0.1,0.1l-0.2-0.2
			c-0.5-0.5-0.6-1.2-0.7-1.8v-0.2c-0.4-1.7-0.5-3.6-0.5-5.8c0-0.7,0.1-1.3,0.2-2l0.1-0.4c0.1-0.5,0.4-0.9,0.9-1s0.9-0.2,1.3-0.2
			c0.1,0,0.4,0,0.5,0h0.1l0,0l0,0c0.2,0,0.6,0,0.9,0c0.9,0.1,1.6,0.2,2.4,0.5l0.7,0.1c0.1,0,0.4,0.1,0.5,0.1l0.2,0.1L399.8,58
			L399.8,58z M393.6,44.8c0.2,0,0.4,0,0.6,0l0,0l0,0l0,0c1,0,2.1,0.4,2.3,0.5c1,0.5,2.1,1,2.7,2v0.4c0,0-1.5,1.5-1.8,1.8
			c-0.6,0.5-1.1,1-1.5,1.5c-0.5,0.6-1.1,1.2-2,1.8c-0.4,0.2-0.7,0.6-1.1,0.9c-0.1,0.1-0.4,0.1-0.6,0.2l-0.1,0.1l-0.4-0.4
			c0,0-0.1-0.1-0.1-0.4c0-0.1,0-0.2,0-0.4l0.5-5.9l0.1-2.1h0.2C393,44.9,393.3,44.8,393.6,44.8z"/>
		<path d="M443.5,66.2c-0.2-1.6-0.5-3.3-0.9-5c-0.1-0.9-0.4-1.7-0.5-2.7l-0.1-1.1c-0.1-1-0.1-1.5-0.1-2.4l-0.1-1.1
			c-0.1-0.7-0.1-1-0.2-1.7c-0.1-0.9-0.2-1.8-0.5-2.8c-0.2-1.3-0.6-2.8-0.7-4.7l-0.1-1.5c-0.1-1.3-0.4-2.2-1-2.9
			c-0.1-0.1-0.2-0.1-0.5-0.1c-0.4,0-1.1,0.1-1.1,0.5v0.6c0,0.2-0.1,0.4-0.1,0.6c-0.5,3.7-1.1,5.9-1.6,8.2c-0.4,1.3-0.6,2.7-1,4.4
			c-0.2,1.5-0.6,3.1-1.1,4.8l-1.1,4l-0.4,1.3c0,0-0.1,0.1-0.1,0.4l-0.9,3.1c-0.1,0.5-0.2,1.1-0.1,1.6c0,0.4,0.5,0.9,0.7,1v-0.1l0,0
			h0.4c0.2-0.1,0.6-0.1,0.7-0.4c0.7-0.5,1.2-1.3,1.6-2.4l0.5-1.7v-0.4l1.1-0.5c0.6-0.4,1.2-0.7,1.8-1.1l1-0.6c0.2-0.1,0.6-0.4,1-0.6
			c0.1,0,0.1-0.1,0.2-0.1c0.4,2.2,0.7,4.5,1.1,6.7c0,0.2,0.1,0.5,0.1,0.7c0.1,0.5,0.4,1.5,1.8,1.5h0.1c0.1,0,0.4-0.1,0.5-0.2
			c0.4-0.5,0.1-1.5,0-2.6L443.5,66.2z M435.9,63c0.4-1.6,0.9-3.6,1.2-5.6c0.1-0.6,0.2-1.2,0.5-2.1l0.2-1l0.2-0.7l0.2-1
			c0.1-0.4,0.1-0.9,0.2-1.2l0,0v0.4c0.1,1.1,0.2,2.1,0.4,2.8c0,0.5,0.1,0.9,0.1,1.2l0.7,4.8c-0.1,0.1-0.2,0.2-0.4,0.2
			c-0.2,0.1-0.5,0.2-0.6,0.2c-0.2,0.1-0.5,0.2-0.6,0.4c-0.4,0.2-1.2,0.9-1.3,1c0,0-0.1,0.1-0.6,0.4C436.1,62.9,436,62.9,435.9,63z"
			/>
		<path d="M340,69.1l-0.2-2c-0.4-2.6-0.5-3.8-0.6-6.4c0-1.1-0.4-8-0.2-9.2v-1c0-0.9,0-2.2-0.1-3.4v-1.5V45c0.1-1.2-0.1-1.5-0.6-2.3
			c-0.1-0.2-0.7-0.5-0.9-0.5c-0.2,0-0.7,0.1-0.9,0.5s-0.2,0.5-0.2,0.6c-0.2,0.5-0.4,0.9-0.4,1.3v1c0,0.5,0,1.1,0,1.8l-0.1,1.1
			c-0.1,0.7-0.1,1.6-0.2,2.4l-0.1,1.5c-0.2,1.8-0.5,3.6-0.9,5.3c-1.2,6-2.4,10.3-2.9,10.3l-0.1-0.4c-0.2-0.7-0.5-1.2-0.6-1.6
			c-0.4-1-0.6-1.6-1.1-3.1c-0.1-0.5-0.2-0.7-0.4-1.3c-0.1-0.6-0.4-2.1-0.5-2.9l-0.1-0.6c-0.5-3.4-0.4-5.5-0.1-10.4v-0.2
			c0.2-0.9,0.4-1.7,0.4-2c0-0.1,0-0.1,0-0.2c0-0.5,0-0.7-1.2-1c-0.9,0-1.2,1.5-1.3,2.1c-0.1,0.7-0.4,1.7-0.4,2.2
			c0,1.1,0,1.8-0.1,2.7c0,0.7,0,1.3,0,2.4c0,0.9,0,1.5,0.1,2.2c0,0,0.1,1,0.1,1.5c0,0.6,0.1,1.1,0.2,1.6c0,0.4,0.1,0.7,0.1,1.1
			c0,0.4,0.5,2.7,0.5,2.7c0.2,1.2,0.6,2.2,1.2,3.6c0.4,0.9,0.7,1.7,1.1,2.8c0.1,0.2,0.1,0.4,0.2,0.5s0.1,0.1,0.2,0.4l0.1,0.4
			c0.2,0.7,0.5,1.2,0.9,1.6c0.1,0.2,0.4,0.2,0.6,0.2c0.1,0,0.2,0,0.5,0c0.1,0,0.2,0,0.4-0.1c0.9-0.5,1.2-1.5,1.5-2.4
			c0.1-0.2,0.1-0.4,0.2-0.5s0.1-0.2,0.2-0.5c0.7-2.1,0.9-2.7,1.3-4.8c0.1-0.7,0.2-1.5,0.5-2.2l0.4-1.7v-0.2c0,0.5,0,1.6,0,1.6
			l0.2,1.6v0.7c0,0.6,0.1,1.2,0.1,1.7c0,1.1,0,1.6,0.2,2.4l0.2,2c0.1,0.6,0.1,1.1,0.7,1.5c0,0,0.1,0,0.4,0c0.2,0,0.6,0,0.6,0
			c0.9-0.1,0.9-1,0.7-1.7C340,69.5,340,69.3,340,69.1z"/>
		<path d="M479.6,43.3l-0.4-0.2c-0.6-0.4-1.3-0.7-2.1-0.9c0-0.1-0.2-0.1-0.4-0.1c-0.1,0-0.1,0-0.2,0c-0.2,0-0.4,0-0.6,0
			c-0.6,0-1.2,0.1-1.6,0.4c-0.7,0.2-1,0.5-1.1,0.7c-0.1,0.1-0.1,0.4,0,0.9c0,0.2,0,0.5,0,0.9v0.9c0,2,0.2,5.3,0.5,7.5
			c0,0.4,0.2,6.4,0.2,6.9V61l0.2,1.6v0.5l0,0l0,0v0.2c0,0.6,0.1,1.1,0.1,1.6c0,1.1,0,1.5,0.2,2.3l0.1,0.6c0,0.1,0,0.5,0,0.9
			s0,0.6,0,0.7c0.1,0.7,0.6,1.6,1.3,2.1v-0.1l0.2,0.1c0.2,0,0.5,0.1,0.6,0.1c1,0,1.3-0.4,1.8-1.1l0.4-0.4c0.2-0.2,0.4-0.4,0.6-0.7
			c1-1.2,1.2-1.6,1.6-2.7c0.1-0.2,0.2-0.6,0.5-1.1c0.4-0.9,1.2-3.3,1.3-3.7c0.2-0.7,0.5-2.2,0.6-3.4c0.6-5.3,0.7-8.8-2.6-13.6
			C480.9,44,480.4,43.7,479.6,43.3z M478,45.3c2.4,0.7,3.7,4.7,4,7.7c0.1,0.6,0.1,1,0.1,1.6c0,1.8-0.2,3.4-0.6,5
			c-1.1,3.9-3.6,8.2-4,8.2l0,0c-0.2-1.6-0.4-2.6-0.6-3.6c-0.2-1.3-0.4-2.4-0.6-4.3c-0.1-1-0.4-7.6-0.2-8.8v-1c0-1,0-2.6,0-3.9v-1.5
			l0,0l0,0l0,0C476.9,44.9,477.4,45.1,478,45.3z"/>
		<path d="M424.4,40.1c-0.1-0.1-0.4-0.1-0.6-0.1c-0.1,0-0.4,0-0.5,0.1l-2.3,1.1l-6.5,2.6l-2.1,0.9c-0.1-0.1-0.5-0.2-1-0.2
			c-0.9,0-1.2,1.5-1.3,2.2s-0.4,1.8-0.4,2.3c0,1.1-0.1,2-0.1,2.7s0,1.5-0.1,2.4c0,1,0,1.6,0.1,2.3l0.1,1.5c0,0.6,0.1,1.1,0.1,1.6
			c0,0.4,0.1,0.7,0.1,1.2c0,0.4,0.5,2.7,0.5,2.7c0.2,1.2,0.6,2.3,1.1,3.7c0.2,0.9,0.6,1.7,1,2.8c0.1,0.2,0.1,0.4,0.2,0.5
			c0,0.1,0.1,0.1,0.2,0.4l0.1,0.5c0.2,0.9,0.5,1.3,1,1.7h0.2c0.2,0,0.6-0.1,1-0.2c0.7-0.2,1-0.7,1.3-1.5l0.6-1.2
			c0.6-1.3,0.7-1.7,1-2.7c0.1-0.4,0.2-0.9,0.4-1.3c0.2-0.9,0.9-3.3,1-3.7c0.1-0.9,0.4-2.2,0.5-3.3c0-0.9,0.1-1.8,0.2-2.7
			c0.4-2.7,0.6-5.4,0-8.7c-0.1-0.7-0.2-1.1-0.5-2c-0.2-0.6-0.4-1.1-0.6-1.2l0,0l3.1-1.6l1.1-0.4c0.2-0.1,0.4-0.2,0.5-0.4l0.4-0.7
			C425,41,424.9,40.5,424.4,40.1z M415.1,69.3l-0.2-0.9c-0.2-0.7-0.5-1.2-0.6-1.7c-0.4-1-0.6-1.6-1.1-3.2c-0.1-0.5-0.2-0.9-0.4-1.3
			c-0.1-0.6-0.2-2.1-0.4-2.9l-0.1-0.7c-0.5-3.6-0.4-5.8,0-10.8l0.2-1.1c0.1,0,0.2,0,0.4,0c0.1,0,0.2,0,0.4,0l2.8-0.9l1.3-0.5
			c0.1,0.2,0.1,0.4,0.4,0.6l0.1,0.2c1.1,1.8,1.1,3.7,1,5.5c0,0.6,0,1.3,0,2.1c0,0.6,0,1,0,1.6c-0.1,1.8-0.4,3.4-0.7,4.9
			C416.9,64.7,415.4,69.3,415.1,69.3z"/>
		<path d="M362.7,68.5c-0.4-1-1.2-3.3-1.8-4.3c-0.2-0.4-0.4-0.7-0.7-1.3l-0.1-0.4l-0.4-1.2l-0.2-0.5c-0.1-0.4-0.4-0.6-0.5-1
			c-0.6-1.6-1.5-3.1-2.4-4.5l-0.4-0.7l-0.2-0.4c3.9-4.8,5.9-7.3,6.2-7.8c0.1-0.2,0.2-0.6,0.1-0.9c0-0.2-0.1-0.4-0.4-0.6
			c-0.1-0.1-0.1-0.1-0.2-0.2l-1.1-0.6c-0.4-0.2-0.7-0.4-1.1-0.6c-1.1-0.6-2.2-1.3-3.6-1.6c-1.1-0.2-1.7-0.5-2.3-0.6
			s-1.1-0.4-2.1-0.5c-0.4,0-0.6-0.1-1-0.1h-0.6c-0.5,0.1-0.7,0.4-0.9,0.9c-0.1,0.6-0.1,1.3-0.1,2c0,0.2,0,1,0.1,1.6
			c0,0.5,0.1,1,0.1,1.2c0,0.4,0,1.3,0.1,2.2c0,0.6,0,1.1,0,1.3c0,1.1,0,2.2,0,3.3s0,2.2,0,3.3V58c0,4,0.1,6.7,0.4,9.9
			c0.2,2.7,0.7,4,1.6,4l0,0c0.4,0,0.6-0.1,0.9-0.4c0.7-0.9,0.5-2.7,0.4-3.4c-0.1-0.9-0.4-4.8-0.5-7c0-0.7,0-1.5,0.1-2.2v-0.5
			c0-0.4,1-1.6,1.5-2.1l0.2-0.4l0.1-0.2l0,0c0.6,1.3,1.5,3.1,1.8,3.7l0.4,1c0.5,0.7,0.9,1.6,1.2,2.4c0.2,0.6,0.6,1.2,0.9,1.8
			c0.7,1.7,2.2,4.8,2.8,5.6c0.1,0.1,0.1,0.2,0.2,0.2c0,0,0,0,0.1,0.1l0.1,0.1l0,0l0.1,0.1c0.1,0,0.4,0,0.4-0.1
			c0.5-0.6,0.7-1.2,0.5-1.7L362.7,68.5z M352.5,54l-0.1,0.1l-0.4-0.4c0,0-0.1-0.1-0.1-0.4c0-0.1,0-0.2,0-0.5c0-1,0-2.2-0.1-3.3
			s-0.1-2.3-0.1-3.4V44l0.2-0.1c0.4-0.1,0.7-0.2,1.1-0.2c0,0,0.1,0,0.2,0c0.5,0,1.2,0,1.3,0c0.6,0,2.9,1,3.9,2.2v0.5
			c0,0-0.9,1.7-1.2,2.1c-0.7,0.7-2,2.2-2.8,3.4c-0.6,0.7-1.1,1.5-1.2,1.6C353,53.8,352.9,53.8,352.5,54z"/>
		<path d="M464.8,68.3c-0.2-1.1-0.6-2.2-1.1-3.2c-0.2-0.4-0.4-0.9-0.6-1.5l-0.1-0.4l-0.4-1.3l-0.2-0.5c-0.1-0.4-0.4-0.6-0.5-1
			c-0.6-1.6-1.3-3.2-2.2-4.7l-0.4-0.6c-0.1-0.4-0.4-0.7-0.7-1c3.6-4.3,5.5-6.5,5.9-7.1c0.1-0.2,0.2-0.6,0.1-0.9
			c0-0.2-0.1-0.4-0.4-0.6c-0.1-0.1-0.1-0.1-0.2-0.2l-1.1-0.6c-0.4-0.2-0.7-0.4-1.1-0.6c-1.1-0.6-2.2-1.2-3.6-1.6
			c-1.1-0.2-1.7-0.4-2.3-0.6c-0.6-0.1-1.1-0.4-2.1-0.5c-0.4,0-0.6-0.1-1-0.1h-0.6c-0.5,0.1-0.7,0.4-0.9,0.9
			c-0.1,0.6-0.1,1.2-0.1,1.8c0,0.2,0,0.9,0.1,1.5c0,0.5,0.1,1,0.1,1.2c0,0.4,0,1.2,0.1,2.1c0,0.6,0,1.1,0,1.3c0,1,0,1.8,0,2.8v0.4
			c0,1.1,0,2.2,0,3.2v1.6c0,3.9,0.1,6.5,0.4,9.6c0.2,2.6,0.7,3.9,1.6,3.9l0,0c0.4,0,0.6-0.1,0.9-0.4c0.7-0.7,0.5-2.6,0.4-3.4
			c-0.1-0.9-0.4-4.7-0.5-6.7c0-0.7,0-1.5,0.1-2.1v-0.5c0-0.4,1-1.5,1.5-2.1l0.2-0.2c0,0,0.2-0.2,0.5-0.6c0,0,0.1-0.1,0.1-0.2
			c0.6,1.5,1.5,3.7,2,4.5l0.2,1c0.5,0.7,0.7,1.6,1.2,2.6c0.2,0.6,0.5,1.2,0.7,2c0.9,2.3,1.8,4.9,2.4,5.1c0.1,0,0.1,0.1,0.2,0.1
			s0.2,0,0.4-0.1c0.6-0.6,0.7-1.2,0.6-1.7L464.8,68.3z M454.9,54.2l-0.1,0.1l-0.4-0.4c0,0-0.1-0.1-0.1-0.4c0-0.1,0-0.2,0-0.4
			c0-1,0-2.1-0.1-3.2c-0.1-1.1-0.1-2.2-0.1-3.3v-2l0.2-0.1c0.4-0.1,0.7-0.2,1.1-0.2c0,0,0.1,0,0.2,0c0.5,0,1.2,0,1.3,0
			c0.6,0,2.9,1,3.9,2.1V47c0,0-0.9,1.7-1.2,2c-0.7,0.7-2,2.2-2.8,3.3c-0.6,0.7-1.1,1.3-1.2,1.5C455.5,54.1,455.3,54.1,454.9,54.2z"
			/>
		<path d="M381.1,40.1c-0.1,0-0.2,0-0.4,0l-0.9,0.4c0,0-3.8,2.1-5,2.3c0,0-2,1.1-2.4,1.3s-0.7,0.5-0.9,1c0,0.2-0.1,0.4-0.2,0.5
			c-0.1,0.2-0.1,0.4-0.2,0.7c0,0.5-0.1,1.1-0.1,1.6l-0.1,1.2l-0.1,1.2c0,0.4,0,0.6,0,0.9c0,0.2,0,0.4,0,0.6c0,1-0.1,2-0.1,2.9v0.4
			c-0.1,1.6-0.1,4.3-0.1,5.9v0.9c0,2.3,0.1,4.5,0.1,7.1c0,0.9,0.7,1.6,1.7,1.6c0.4,0,0.6-0.1,0.9-0.4c0.5-0.7,0-2.2,0-2.3
			c0-0.2,0-1.5-0.1-2.7l-0.1-2.1c0-0.6,0-3.1,0-3.1c0.1-0.5,0.7-1.1,1-1.3l3.1-2.8c0.1-0.1,1.6-1.2,2.4-2c1-0.6,1.5-1.1,2.2-2
			c0.1-0.2,0.2-0.6,0.2-0.7c0-0.1-0.1-0.2-0.2-0.4s-0.5-0.4-0.9-0.4l0,0c-0.2,0-0.6,0.2-0.9,0.4l-0.7,0.5c0,0-0.6,0.4-1,0.7
			c-0.6,0.5-1,0.7-1.2,1.1c-0.4,0.4-0.7,0.7-1.6,1.5c-0.1,0.1-0.2,0.2-0.4,0.4c-0.2,0.2-0.5,0.4-0.7,0.6c-0.1,0.1-0.4,0.1-0.6,0.2
			l-0.1,0.1l-0.4-0.4c0,0-0.1-0.1-0.1-0.4c0-0.1,0-0.2,0-0.4c0.1-1,0.1-1.8,0.2-2.7c0-1,0.1-1.8,0.2-2.8l0.1-2.1l1.6-1.2l1.1-0.6
			l1.8-1.2l2.2-1l1-0.7l0.9-1.1v-0.6C381.9,40.4,381.5,40.1,381.1,40.1z"/>
		<path d="M504,54.2c-0.2-0.6-0.5-0.9-1-0.9c-1.5-0.1-2.7-0.6-3.9-1.2l-0.7-0.4c-0.4-0.1-0.6-0.2-1-0.4c-0.7-0.2-1.5-0.6-2.1-1.2
			c-0.5-0.5-0.5-0.5-0.5-0.9s0.2-0.6,0.7-1.1l1.2-1.2c0.6-0.6,1.2-1.2,1.8-1.8c0.5-0.4,1-0.9,1.5-1.2c0.6-0.5,0.4-1.1,0-1.7l0,0l0,0
			l0,0h-0.1c-0.9,0.2-1.6,0.6-2.3,1.3l-0.2,0.2c-0.4,0.4-0.7,0.7-1.2,1.1c-1.1,0.9-2,1.8-2.8,2.9l-0.4,0.4c-0.6,0.9-0.6,1.7,0,2.6
			c0.6,0.6,1.1,1.1,1.6,1.5c1,0.6,2.1,1.2,3.2,2l1.6,1c0.2,0.1,0.5,0.2,0.7,0.5c0.2,0.1,0.4,0.2,0.6,0.4c0.6,0.4,0.9,0.9,0.7,1.6
			c-0.1,1.1-0.5,2.1-1,3.1c-1.1,1.8-2.3,3.6-3.7,5.1c-0.7,0.9-1.7,1.6-2.7,2.2l-0.2,0.1c-0.6,0.4-1.3,0.9-2.1,1.2
			c-0.4,0.2-0.5,0.5-0.5,0.9s0.2,0.6,0.6,0.9c0.2,0.1,0.5,0.1,0.6,0.1c0.2,0,0.4,0,0.7-0.2c0.4-0.2,0.9-0.4,1.2-0.6
			c2-1.2,3.4-2.6,4.5-4c0.2-0.4,0.6-0.7,0.9-1.1c0.2-0.2,0.5-0.6,0.7-1c0.4-0.4,0.6-0.9,1-1.5c0.1-0.1,0.1-0.2,0.2-0.5
			c0.1-0.1,0.1-0.4,0.2-0.5c0.7-1,1.2-2.2,1.7-3.9C504.5,56.8,504.4,55.4,504,54.2z"/>
		<path d="M319.3,58c-1.1-1.3-5.9-5.5-8.2-7.5c-4.3-3.6-5-4.5-5.8-5.4c-0.1-0.1-0.4-0.7-0.4-0.7c0-0.4,0.5-0.5,0.5-0.5
			c0.4,0,0.2-0.1,2.1,0.1c2.1,0.2,3.6,1.1,4.9,2c0.1,0.1,1.2,1,1.3,1.1c0,0,0,0,0.1,0c0.2,0.2,0.5,0.5,0.9,1
			c0.2,0.4,0.7,1.1,0.7,1.1c0.1,0.4,0.7,1.1,1.2,1.2c0,0,0.4,0,0.5,0c0.5,0,0.9-0.2,0.7-0.6c0-0.5-0.4-1.5-1.2-2.6
			c-0.5-0.6-1.1-1.2-1.6-1.6c-0.7-0.6-1.3-1-1.3-1l0,0c-0.4-0.2-1-0.6-2.1-1.2c-1.6-0.7-2.8-1.1-3.8-1.3c-0.7-0.2-1.8-0.2-2.2-0.2
			c-0.2,0-0.6,0-1,0s-0.6,0-0.9,0c-0.7,0-1.2,0.1-1.3,0.4c-0.1,0.1-0.2,0.1-0.4,0.2c-0.1,0.1-0.2,0.1-0.4,0.4c-0.4,0.5-1,2.3,0,2.9
			c2.6,1.6,12.5,9.6,15.1,13.1c0.4,0.5,0.6,1.5,0.7,2c0.2,2.2-2.4,6.6-3.8,8.1c0,0.1-0.6,0.5-0.9,0.5c-0.2,0-0.7-0.1-1-0.5
			c-1.3-1.7-2.2-2.7-2.9-5.4c-0.7-2.9-1-6.5-1-7.1c0-0.2-0.1-0.4-0.2-0.6c-0.2-0.2-0.9-0.2-1.5,0.1l0,0l0,0c-0.4,1.2-0.4,4.5,0.1,7
			l0,0c0.5,1.7,1.3,5.1,5,9.2c0.4,0.4,0.6,0.6,1.3,0.6c0.1,0,0.4-0.1,0.5-0.2c0.5-0.2,2.2-2,3.3-3.8c0.9-1.5,4-6.7,3.3-9.3
			C319.9,59.4,319.7,58.6,319.3,58z"/>
	</g>
</g>
</svg>
