<?xml version="1.0" encoding="utf-8"?>
<!-- Generator: Adobe Illustrator 24.0.2, SVG Export Plug-In . SVG Version: 6.00 Build 0)  -->
<svg version="1.1" id="Layer_1" xmlns="http://www.w3.org/2000/svg" xmlns:xlink="http://www.w3.org/1999/xlink" x="0px" y="0px"
	 viewBox="0 0 115.3 112.7" style="enable-background:new 0 0 115.3 112.7;" xml:space="preserve">
<style type="text/css">
	.st0{fill:#FFFFFF;}
</style>
<g>
	<g>
		<path class="st0" d="M40.9,46.6c-0.8,1.1-1.6,2.2-2.6,3.1l0,0c0,0,0,0,0,0c-0.2,0.3-0.5,0.7-0.8,1c-0.1,0.1-0.3,0.3-0.4,0.4
			c0,0-0.1,0.1-0.1,0.1c-0.2,0-0.4-0.2-0.4-0.4c0-0.1,0-0.1-0.1-0.2c-0.2-0.5-0.3-1-0.4-1.5c-0.1-0.5-0.1-0.8-0.2-1
			c0-0.3-0.1-0.5-0.2-1.2c0-0.4-0.1-1.3-0.1-2c0-0.4,0-0.8-0.1-1c-0.1-1.3-0.2-2.6-0.2-4.1c-0.1-1.2-0.1-2.4-0.2-3.4
			c-0.1-1.9-0.1-3.8-0.2-5.8c0-0.7-0.1-1.4-0.3-2c0-0.1-0.1-0.2-0.1-0.4c0-0.4,0-0.7,0.2-0.9c0.1-0.1,0.3-0.2,0.5-0.2
			c0.1,0,0.2,0,0.3,0c0.2,0,0.3,0.1,0.5,0.1c0.2,0,0.2,0.1,0.4,0.1c1.1,0.4,2.2,0.7,3.2,1.2c1.5,0.7,2.9,1.6,4.4,2.8
			c0.2,0.1,0.3,0.3,0.5,0.4c0.1,0.1,0.2,0.2,0.2,0.4c0,0.1,0,0.2-0.2,0.3c0,0,0,0,0,0c-0.4,0.5-0.9,1-1.3,1.4
			c-0.7,0.5-1.4,1-2.1,1.5c-0.3,0.2-0.5,0.4-0.8,0.6c-0.3,0.2-0.6,0.5-0.7,0.9c0,0,0,0,0,0s0,0,0,0c0.1,0.4,0.4,0.5,0.6,0.5
			c0.2,0,0.3,0,0.5,0c0.5,0,1,0.1,1.5,0.1c0.5,0,0.9,0,1.4,0c0.3,0,0.5,0,0.8,0c0.2,0,0.3,0,0.5,0c0,0,0,0,0.1,0
			c0.2,0,0.3,0.2,0.3,0.5c0,0.1,0,0.3,0,0.4c0,0,0,0,0,0s0,0,0,0c0,0.5-0.3,1.4-0.8,2.4c-0.2,0.4-0.5,0.9-0.7,1.3
			c-0.2,0.4-0.5,0.9-0.7,1.3c-0.1,0.2-0.9,1.3-1.3,2c-0.2,0.3-0.3,0.5-0.3,0.5C41.2,46.2,41,46.4,40.9,46.6 M38.3,38.5
			c-0.4,0-0.6,0.3-0.7,0.7c-0.2,0.8-0.4,1.6-0.3,2.5c0,0.5,0,1,0,1.6c0,0.3,0,0.5,0,0.8c0,0.4,0,0.8,0,1.2c0,0.4,0,0.9,0.1,1.4
			c0,0,0,0,0,0.1c0,0.1,0,0.3,0.1,0.4c0.1,0.2,0.2,0.3,0.4,0.4c0.1,0,0.1,0,0.2,0c0.2,0,0.3-0.1,0.4-0.3c0,0,0.1-0.1,0.2-0.2
			c0.5-0.6,2-2.5,2.7-3.8c0.3-0.4,0.5-0.9,0.8-1.5c0.2-0.5,0.4-0.9,0.6-1.2c0.1-0.2,0.2-0.4,0.3-0.6c0.1-0.3,0-0.7-0.2-0.8
			c-0.1-0.1-0.3-0.1-0.5-0.2c-0.1,0-0.3-0.1-0.4-0.1c-0.4-0.1-0.8-0.2-1.2-0.2C40,38.6,39.3,38.5,38.3,38.5
			C38.3,38.5,38.3,38.5,38.3,38.5z M37.2,29.6c-0.2,0-0.4,0-0.6,0.1c0,0,0,0-0.1,0c0,0,0,0,0,0.1c0,0.5,0.2,5.3,0.2,5.9
			c0,0.1,0.1,0.1,0.1,0.2c0,0,0,0,0.1,0.1c0,0,0,0,0.1,0.1c0,0,0,0,0.1,0c0,0,0.1,0,0.1,0c0.1,0,0.2-0.1,0.3-0.1c0,0,0,0,0.1,0
			c0.4-0.3,0.8-0.5,1.2-0.8c0.7-0.5,1.4-0.9,2-1.3c0.5-0.3,1-0.7,1.4-1c0.2-0.1,0.3-0.3,0.3-0.5c0-0.2-0.1-0.4-0.3-0.6
			c-0.2-0.2-0.3-0.3-0.5-0.4c-0.5-0.3-1-0.6-1.6-1c-0.3-0.2-0.6-0.3-0.9-0.4C38.5,29.7,37.8,29.6,37.2,29.6z"/>
	</g>
	<g>
		<path class="st0" d="M30.1,49.7c-0.1,0-0.2,0-0.3-0.1c-0.5-0.4-0.8-1-0.9-1.7c0-0.3-0.1-0.6-0.1-1c-0.1-1.3-0.3-2.7-0.3-4.1
			c0-0.6,0-1.1,0-1.7c0-0.3,0-0.4,0-0.7c0,0,0-0.1,0-0.1c0,0-0.1,0-0.1,0c-0.1,0-0.1,0-0.2,0c-0.1,0-0.2,0-0.3,0c0,0-0.1,0-0.1,0
			c-0.6,0.1-1.2,0.1-1.7,0.1c-0.3,0-0.6,0-0.9-0.1c-0.1,0-0.2,0-0.3,0c-0.4,0-0.7-0.1-1.1-0.1c-0.1,0-0.1,0-0.2,0
			c-0.6,0-1.3,0.4-1.3,1.1c0,0.8,0.1,1.3,0.2,2c0,0.3,0.1,0.6,0.2,0.8c0,0.2,0.1,0.3,0.1,0.4c0,0,0,0.1,0,0.1c0,0.2,0.1,0.5,0.1,0.7
			c0,0.2,0,0.4-0.1,0.5c-0.1,0.1-0.2,0.1-0.3,0.1c0,0,0,0,0,0c-0.5-0.1-1-0.3-1.2-0.8c-0.2-0.6-0.4-1.3-0.5-1.8
			c-0.1-0.2-0.1-0.2-0.1-0.4c0.1-0.5,0-1-0.1-1.5c0,0-0.2-0.9-0.2-1.4c-0.2-1-0.3-2-0.5-3c0-0.3-0.1-0.6-0.1-0.9
			c0-0.2,0-0.5-0.1-0.7c0-0.3-0.1-0.6-0.2-0.9c-0.3-1.1-0.4-1.2-0.3-2.3c0-0.5,0.6-0.9,1-0.9c0.2,0,0.3,0.1,0.5,0.2
			c0.1,0.1,0.2,0.2,0.2,0.4c0,0.5,0.1,1,0.1,1.5c0,0.2,0,0.3,0,0.5c0,0.1,0,0.1,0,0.2c0,0.1,0,0.2,0,0.3c0.2,1.1,0.3,1.3,0.3,2.4
			c0,0.1,0,0.1,0,0.2c0,0,0,0.1,0,0.2c0.1,1,1.4,1.3,2,1.4c0.4,0.1,0.7,0.1,1.1,0.2c1.1,0.1,2.1,0.2,3,0.2c0,0,0,0,0.1,0
			c0.2,0,0.3,0,0.5,0c0.1,0,0.2,0,0.3,0c0,0,0.1,0,0.1,0c0,0,0-0.1,0-0.1c0-0.2,0-0.5,0-0.7c0-0.5,0-0.9,0-1.4
			c-0.1-2.1-0.1-4.2-0.1-6.2c0-0.4,0-0.5,0-0.9c0-0.8,0.2-1.4,0.6-1.8c0.1-0.1,0.3-0.2,0.5-0.3c0.1,0,0.1,0,0.2,0
			c0.2,0,0.3,0.1,0.4,0.4c0.1,0.5,0.4,1,0.4,1.3c0,1.6-0.1,3.3-0.2,4.9c0,0.4,0,0.6,0,0.9c0,1.2,0,2.2,0,3.3
			c0.1,3.5,0.4,6.9,0.6,10.4c0,0,0,0,0,0c0,0.2,0,0.3,0,0.4C30.8,49.5,30.4,49.7,30.1,49.7z"/>
	</g>
	<g>
		<g>
			<g>
				<path class="st0" d="M13.4,45.7c0.2,0.1,3,1.9,3.2,2.1c0.7,0.5,2,1.5,2.7,1.8c0.2,0.1,0.3,0.2,0.5,0.3c0.1,0.1,0.2,0.2,0.3,0.2
					c2.1,1.2,4.4,2.2,6.6,3.2c0.5,0.2,4.3,1.6,4.4,1.6c0.4,0.2,1.6,0.5,2.2,0.6c2.3,0.5,5.1,1.2,5.1,1.2c2.4,0.3,3,0.3,5.5,0.3
					c1,0,1.4,0,2.4-0.1c1.2,0,2.5-0.2,3.7-0.5c1.7-0.4,2.3-1,2.8-1.5c0.2-0.2,0.2-1.1,0-1.3c-0.2-0.5-1.7-2.4-2.4-4
					c-0.2-0.4-0.3-0.9-0.4-1.5c-0.2-0.9,0.1-1.7,0.7-2.5c0.3-0.4,0.7-0.7,1-1c0.8-0.7,1.7-1.5,2.5-2.2c0.5-0.4,0.8-0.6,1.3-1.1
					c0.1-0.1,0.2-0.2,0.4-0.3c0.4-0.4,0.4-0.6,0-1c-0.2-0.2-0.3-0.3-0.5-0.4c-0.1-0.1-0.1-0.1-0.2-0.2c-0.3-0.2-0.5-0.4-0.8-0.7
					c-0.6-0.5-1.1-1-1.7-1.5c-1-0.9-2-2.1-2.2-2.4c-0.2-0.3-0.5-0.6,0.1-1.1c0,0,3.8-3.2,3.8-3.2c0.1,0,0.1-0.1,0.2-0.1
					c0.2-0.1,0.3-0.2,0.5-0.2c0.4-0.2,0.4-0.4,0.3-0.8c0-0.2-0.1-0.3-0.2-0.5c0-0.1,0-0.1-0.1-0.1c-0.8-2.3-2.2-4.5-3.6-6.5
					c-0.2-0.3-0.5-0.7-0.8-1c-0.5-0.6-1.1-0.9-1.8-0.9c-0.4,0-0.8-0.1-1.2-0.2c-0.2,0-0.6-0.2-0.7-0.2c0,0,0,0-0.1,0
					c-1.4,0-2.3,0-2.4,0c-1.9-0.1-3.8,0.1-4.1,0.1c-2.4,0.2-3.7,0.6-5.6,1c-0.5,0.1-2,0.6-2.5,0.7c-0.3,0.1-3.6,0.8-4,0.9
					c0,0-0.1,0-0.2,0c-0.2,0.1-0.5,0.1-0.8,0.1c-0.1,0-1.9,0.4-2,0.3c-0.1,0-2.7,0.8-2.8,0.8c-0.1,0,0.7-1.3,1.1-1.9
					c0-0.1,0.9-1.1,1-1.2c0,0-2.7,0.6-2.7,0.7c0,0-1.8,2.4-2,2.9c-0.2,0.5-0.9,1-1,1.1c-2.3,1.5-3.8,2.6-4.5,3
					c-2.9,1.5-5.2,3.5-7.7,5.3c-0.4,0.3-0.8,0.7-1.1,1c-0.2,0.2-0.4,0.5-0.5,0.7c0,0.1-0.1,0.2-0.1,0.2c0,0,0,0.1,0,0.1
					c0.1,0.1,0.1,0.2,0.1,0.2c0.2,0.3,0.5,0.7,0.8,1c0.5,0.8,0.9,1.5,1.6,2.3c0.4,0.4,0.8,1,1.1,1.5c0.5,0.7,0.7,0.8,1,1.2
					c0.4,0.4,0.2,0.8,0.1,1.3c-0.2,0.6-0.3,1.1-0.4,1.6c0.7,0.7,0.6,0.3,1.3,1c0.4-0.4,0.4-0.6,0.7-1C11.8,44.8,12.9,45.4,13.4,45.7
					z M10.2,40.5c-0.4-0.5-0.9-1.2-1.4-1.8c-0.3-0.4-0.7-0.9-1-1.3c-0.1-0.2-0.2-0.3-0.3-0.5c-0.1-0.1-0.1-0.2-0.2-0.3
					c0-0.1-0.2-0.2-0.2-0.5c0,0,1.5-1.4,2.2-2c0.2-0.2,1.2-0.9,1.5-1.1c2.6-1.6,5-3.2,7.7-4.6c0.4-0.2,0.9-0.4,1.3-0.7
					c0.1-0.1,0.3-0.1,0.4-0.2c0.2-0.1,0.5-0.2,0.7-0.4c1.3-0.7,2.1-0.9,3.1-1.5c0.5-0.3,1.4-0.5,2.1-0.7c1.5-0.5,4-1.1,5.8-1.4
					c0.2,0,0.5-0.1,0.7-0.2c0.7-0.3,1.4-0.4,2.1-0.4c0.2,0,0.4,0,0.7-0.1c0.1,0,0.2,0,0.3-0.1c2.3-0.4,4.6-0.7,6.9-1c0,0,0,0,0,0
					c0.1,0,0.4-0.1,1.2-0.2c0.7-0.1,1.6-0.1,3,0c0.8,0,1.4,0.1,2.1,0.1c0.6,0,1.1,0.3,1.4,0.9c0.9,1.7,2,3,2.9,4.9
					c0.2,0.3,0.3,0.5,0.3,0.8c0.2,0.5,0,0.9-0.4,1.1c-0.2,0.1-1.7,1.6-2,1.7c-0.8,0.4-0.9,1.1-1.7,1.5c-0.4,0.2-0.4,0.4-0.8,0.7
					c-0.1,0.1-0.2,0.5,0,0.8c0,0.1,0.2,0.5,0.2,0.5c0.3,0.4,0.4,0.5,0.6,0.8c0.7,0.9,0.7,0.7,1.4,1.6c0.5,0.6,1.3,1.2,1.8,1.7
					c0.2,0.2,0.4,0.5,0.7,0.7c0.1,0.1,0.1,0.1,0.2,0.2c0.1,0.1,0.2,0.2,0.2,0.2c0.4,0.5,0.4,0.8,0,1.3c-0.7,0.7-1.6,1.4-2.3,2
					c-0.2,0.2-0.4,0.3-0.6,0.6c-0.3,0.3-0.7,0.7-1,1c-0.4,0.3-0.8,0.7-1.1,1.1c-0.6,0.6-0.8,1.2-0.5,2c0.3,0.9,0.7,1.7,1,2.6
					c0.4,1,1,1.8,1.1,2.1c0,0.1,0.7,0.8,0.8,1.1c0.2,0.8,0.1,1.3-0.7,1.6c-0.3,0.1-1.3,0.4-1.7,0.4c-1.5,0.1-1.6,0.4-3.4,0.4
					c-1.1,0-1.2,0.2-2.5,0.1c-1.5-0.1-2.4-0.2-3.5-0.4c-1.4-0.2-2.8-0.6-4.4-0.9c-0.7-0.2-1.3-0.2-1.9-0.4c-2-0.6-4.1-1.3-6-2.2
					c-2.5-1.2-5.1-2.5-7.6-3.8C16.1,46.2,12.7,43.6,10.2,40.5z"/>
			</g>
		</g>
	</g>
	<g>
		<path class="st0" d="M97.3,26.3c-1.1-1.9-2.8-3.8-4.5-5.2c-0.3-0.3-0.9-0.9-1.2-1.1c-0.2-0.1-0.3-0.3-0.5-0.5
			c-2.9-2.4-6-4.4-9.4-6.1c-0.2-0.1-0.4-0.2-0.6-0.3c-2.1-1.4-4.7-2.4-7-3.1c-2.5-0.7-5.2-1.3-7.8-1.8c-1.6-0.3-2.2-0.3-3.7-0.5
			c-0.1,0-0.1,0-0.1,0c-1.3-0.2-2.5-0.2-3.7-0.2c-0.2,0-0.4,0-0.5,0c-1,0-1.9,0-2.9,0c-1.1,0-2.3,0-3.4,0c-1.1,0-2.4,0.1-3.6,0.6
			c-0.5,0.2-1.1,0.3-1.6,0.3c-1.3,0.1-2.6,0.3-3.8,0.8c-0.3,0.1-0.6,0.2-0.9,0.3c-1.2,0.2-2.4,0.6-3.7,1.2c-0.2,0.1-0.4,0.2-0.6,0.3
			c-1.2,0.6-2.5,1.2-3.8,1.8c-0.6,0.3-1.2,0.7-1.8,1.1c-0.2,0.1-0.4,0.2-0.5,0.4c-0.3,0.2-0.6,0.4-0.9,0.6c-0.3,0.2-0.7,0.5-1,0.7
			c-0.6,0.4-1.3,0.8-1.9,1.2c-0.6,0.4-1.4,1-1.9,1.4c-1.4,1.2-3.3,3.3-3.7,3.6c1.7-0.6,0.3,0.8,2,0.1c0-0.1,1.3-1.4,1.4-1.5
			c0.2-0.2,0.3-0.3,0.5-0.5c0.5-0.4,0.9-0.9,1.5-1.3c3.6-2.5,7.4-5,11.6-6.6c2.6-1,5.4-1.7,8.2-2.2c1.5-0.3,3-0.6,4.5-0.7
			C53.2,9.1,54.6,9,55.9,9c0.5,0,0.9,0,1.3,0.1c0.7,0.1,1.4,0.1,2,0.1c0.8,0.1,1.7,0.1,2.5,0.2c1.3,0.1,2.5,0.3,3.5,0.4
			c1.5,0.2,1.9,0.4,3,0.6c5.2,0.9,9.7,2.7,14.2,5.2c3.9,2.1,7.6,4.7,10.7,7.9c0.7,0.7,1.5,1.8,2.1,2.6
			C95.5,26.4,97.5,26.6,97.3,26.3z"/>
	</g>
	<g>
		<path class="st0" d="M82.7,47.9c-0.9-3.1-1.3-6.3-1.2-9.6c0-0.7,0-1.4,0-2.1c0-0.7,0-1.4,0-2c0-0.4,0-0.8,0-1.2c0-0.3,0-0.5,0-0.8
			c0-0.3,0-0.5,0-0.8c0,0,0,0,0,0c0-0.4,0-0.7,0-1.1c0-0.4,0-0.8,0.1-1.2c0.1-0.3,0.2-0.5,0.5-0.5c0,0,0,0,0.1,0s0,0,0.1,0
			c0.2,0,0.5,0,0.7,0.1c1.1,0.3,1.8,0.8,2.1,0.9c0.9,0.4,1.9,0.9,2.7,1.4c0.2,0.1,0.4,0.2,0.6,0.4c0.1,0,0.1,0.1,0.2,0.1
			c0.1,0.1,0.2,0.2,0.2,0.4c0,0.1,0,0.4-0.1,0.5c-0.4,0.6-1.5,2.3-2.1,2.8c0,0-1.2,1.3-1.3,1.5c-0.1,0.2-0.3,0.7,0.1,0.7
			c0.1,0,0.3,0,0.5,0c0.1,0,0.1,0,0.2,0c0.1,0,0.2,0,0.3,0c1.2-0.1,2.9,0,3.8,0.1c0.3,0,0.6,0.1,0.9,0.2c0.1,0,0.2,0.1,0.2,0.2
			c0,0.1,0,0.2-0.1,0.2c-0.5,0.9-1,1.8-1.5,2.6c-0.1,0.2-2.8,4.1-3.6,5.5c0,0,0,0,0,0c-0.2,0.4-0.5,0.8-0.7,1.2
			c-0.3,0.5-0.5,0.7-0.8,1.3C84.2,49.3,82.9,48.5,82.7,47.9z M84.5,38.5c-0.3,0-0.6,0.1-0.9,0.2c-0.3,0.1-0.6,0.6-0.6,1
			c0,0.1,0,0.2,0,0.3c-0.1,0.5-0.1,0.9-0.1,1.4c0.1,1.5,0.2,2.7,0.5,3.9c0,0.1,0,0.1,0,0.2c0.1,0.4,0.2,0.9,0.6,1.2
			c0.1,0,0.1,0.1,0.1,0.1c0.1,0,0.3-0.5,0.6-0.8c0-0.1,0.7-1.2,0.7-1.2c0.5-1,1.4-2.6,2.1-3.6c0.3-0.5,0.8-1,1.1-1.7
			c0-0.1,0.3-0.4,0.4-0.5c-0.1,0-0.6-0.1-0.7-0.1c-0.1,0-2.3-0.3-2.9-0.4C85.2,38.4,84.6,38.4,84.5,38.5z M82.9,30.6
			c-0.1,0,0,1,0,1.6c-0.1,1.3-0.1,2.6-0.2,3.9c0,0.1,0,0.2,0,0.3c0,0,0,0,0,0.1c0,0.1,0.1,0.2,0.1,0.2c0,0,0,0,0.1,0.1
			c0.1,0.1,0.1,0.1,0.2,0.2c0.1,0,0.1,0,0.1-0.1c0,0,0.1,0,0.1,0c0.1,0,0.2-0.1,0.3-0.2c0.3-0.2,0.5-0.4,0.7-0.6c1-1,1.2-1.6,2-2.3
			c0.2-0.2,0.9-1.2,0.9-1.2c0-0.1,0-0.2,0-0.3c-0.5-0.7-2.9-1.3-3.6-1.6C83.4,30.5,83.2,30.5,82.9,30.6z"/>
	</g>
	<g>
		<g>
			<g>
				<g>
					<g>
						<path class="st0" d="M103.1,42.6c0-0.1-0.2-0.2-0.2-0.2c-0.9-1.1-1.3-2.2-1.5-4.2c0-0.2,0-0.7,0-0.9c0,0,0,0,0-0.1
							c0-0.1,0-0.3,0-0.5c0-0.3-0.1-0.5-0.2-0.6c-0.1-0.1-0.3-0.2-0.5-0.2c-0.1,0-0.3,0-0.5,0c-0.2,0-0.5,0.1-0.8,0.2
							c-0.8,0.3-1.9,0.9-2.7,1.7c-1,1.1-1.6,2-2.2,3.3c-0.8,1.8-0.9,3.7-0.8,5c0,0.4,0.2,0.8,0.4,0.9c0.2,0.1,0.7,0.2,0.9,0.2
							c0.3,0,0.6,0,0.9,0c0.2,0,0.5,0,0.5-0.1c0.9-0.2,2.1-0.6,3-1.2c0.5-0.4,1-0.7,1.5-0.9c0.7-0.4,1.3-0.9,1.8-1.4
							c0.1-0.1,0.2-0.2,0.3-0.4C103.3,43.1,103.3,42.9,103.1,42.6z M101.2,41.4c0.1,0.1,0.2,0.2,0.2,0.4c0.1,0.1,0.1,0.2,0.2,0.3
							c0.1,0.1,0.1,0.2,0.2,0.2c0,0,0.1,0.1,0.1,0.2c0.2,0.4,0,0.6-0.2,0.8c-1.2,1.1-2.6,2-4.1,2.6c-0.4,0.2-0.9,0.3-1.3,0.4
							c-0.1,0-0.2,0-0.3,0.1c-0.2,0-0.5,0-0.7-0.1c-0.1-0.1-0.2-0.4-0.2-0.4c0-2,0.5-4.6,1.7-6c0.7-0.8,1.1-1.3,1.9-1.8
							c0.2-0.2,0.7-0.4,1-0.5c0,0,0.1,0,0.1,0h0c0.1,0,0.2,0,0.3,0.1c0.1,0.1,0.2,0.3,0.2,0.5c0,0.2,0,0.3,0,0.4c0,0,0,0,0,0.1
							C100.4,39.5,100.8,40.7,101.2,41.4z"/>
					</g>
					<g>
						<path class="st0" d="M80.4,56.1c1.2-0.2,2.5-0.4,3.8-0.7c0.9-0.2,1.4-0.3,2.3-0.6c0.8-0.2,2.3-0.6,3.1-0.8
							c0.8-0.2,4.3-1.2,5.3-1.5c1.6-0.6,5.3-2.4,5.7-2.6c0.1,0,2.2-1.1,2.3-1.2c0.5-0.3,1.2-0.7,1.7-1c0,0,0.9-0.7,0.9-0.7
							c-0.1,0.1,1.8-1.5,1.8-1.5c0.6-0.6,1.2-1,1.6-1.5c1.2-1.2,0.7-1.4,0.7-1.6c0-0.1-1-0.8-1.1-0.8c-1.1-1-2.3-1.9-2.7-2.3
							c-0.3-0.3-0.8-0.8-1-1.1c-0.2-0.5-0.3-0.8-0.2-1c0.2-0.6,0.2-0.8,0.6-1.2c0.1-0.1,0.3-0.4,0.5-0.5c0.3-0.2,1.8-2.1,2.2-2.5
							c0.1-0.1,0.3-0.3,0.3-0.6c0-0.1-0.1-0.2-0.1-0.2c-0.3-0.5-0.9-0.8-1.3-1c-0.2-0.1-2.2-1-3.2-1.2c-0.2-0.1-1-0.4-1.1-0.5
							c-0.2-0.2-0.5-0.3-0.4-0.7c0.1-0.3,0.2-0.9,0.3-1.1c0.1-0.2,0.4-0.8,0.5-1c0.1-0.1,0.1-0.3,0.2-0.4c0.1-0.1,0.2-0.3,0.1-0.4
							c-0.1-0.2-0.4-0.3-0.8-0.5c-0.2-0.1-0.3-0.2-0.6-0.2c-0.2,0-0.3-0.1-0.6-0.1c-0.4,0-0.8,0-1.2,0c-0.4,0-1.5,0.4-1.7,0.5
							c-0.8,0.3-1.5-0.3-1.9-0.7c-0.9,0-0.2,0.3-1,0.1c0.4,0.7,0.3,0.9,0.1,0.8c-0.2,0-4.2-1.4-4.3-1.5c-0.2-0.1-0.4-0.1-0.6-0.2
							c-0.4-0.1-0.9-0.3-1.4-0.4c-3.6-1.1-6.4-1.5-9.7-2.1c-1.6-0.3-3.3-0.6-5.1-0.7c-0.7-0.1-1.4-0.1-2.1-0.1c-0.2,0-0.5,0-0.7,0
							c-0.2,0-0.5,0-0.7,0c-0.3,0-2.2-0.1-2.6-0.2c-2.1-0.2-6.2-0.4-8.4-0.2c-0.7,0-1.4,0.2-2.1,0.3c-0.1,0-0.2,0-0.3,0
							c-0.2,0-0.4,0.1-0.6,0.2c-0.4,0.2-0.6,0.6-0.4,1c0.1,0.3,0.2,0.5,0.5,0.9c0.7,1,3.6,4.5,3.9,5.1c0.1,0.2,0.3,0.4,0.4,0.7
							c0.1,0.1,0.3,0.5,0.3,0.5c-0.1,0.2-0.2,0.2-0.3,0.4c-0.2,0.2-0.3,0.4-0.4,0.6c-0.2,0.3-0.5,0.6-0.7,0.9
							c-0.6,0.7-1.2,1.5-1.7,2.2c-0.2,0.3-0.4,0.7-0.7,1.1c-0.1,0.3-0.1,0.5,0.1,0.7c0.4,0.3,2.8,4,3.3,4.3c0.1,0.1,0.2,0.2,0.3,0.4
							c0,0,0.1,0.1,0.1,0.1c0,0,0,0,0.1,0.1c0,0,0,0.1,0,0.1c0,0.4-0.2,0.7-0.3,0.9c0,0,0,0.1-0.1,0.1c-0.2,0.4-0.5,0.8-0.7,1.1
							c-1.5,2.3-3.1,4.7-4.2,7.3c0.1,0.4,0.1,0.6,0.2,1c0.1,0.2,0.1,0.4,0.2,0.5c0.4,1.2,2.9,3.8,3.2,4c0.3,0.2,1.5,1.2,1.8,1.3
							c0.4,0.1,2,0.5,2.9,0.6c2.3,0.2,5.6,0.6,7.8,0.3c0.2,0,0.5,0,0.8,0C75.6,56.8,78.1,56.5,80.4,56.1z M96.4,28.1
							c0.1,0,0.1-0.1,0.1-0.1c0.9-0.9,1.9-1.3,3-1.6c0.1,0,0.2-0.1,0.3-0.1c0.5-0.1,0.9-0.1,1.4,0.1c0.1,0,0.3,0.2,0.3,0.2
							c0.1,0.2-0.1,0.6-0.2,0.9c-0.1,0.1-0.1,0.2-0.1,0.3c-0.6,1.1-0.6,2.3-0.8,3.4c-0.1,0.4-0.1,0.8-0.1,1.2c0,0.1,0,0.1,0,0.2
							c0,0.4-0.2,0.6-0.5,0.7c-0.1,0-0.1,0-0.2,0c-0.2,0.1-0.5,0.1-0.7,0.2c0,0-0.1,0-0.1,0c-0.4,0-0.8,0.1-1.1,0.1
							c-0.3,0-0.7,0-1,0.1c-0.7,0.1-1.2,0-2-0.2c-0.1-0.1-0.1-0.2-0.1-0.2c0-0.1,0-0.2,0-0.2c0-0.2-0.1-0.3-0.1-0.5
							c0-0.9,0.3-1.6,0.5-2.3c0.1-0.1,0.3-0.8,0.5-0.9C95.8,28.9,96.1,28.5,96.4,28.1z M68.8,55.8c-1.1,0-5.2-0.6-5.6-0.8
							c-0.1,0-1.3-0.6-1.4-0.7c-0.6-0.7-2.3-2.3-3-3.1c-0.1-0.2-0.6-0.7-0.7-0.9c-0.2-0.5-0.2-1,0.1-1.5c0.3-0.4,3.2-5.2,3.4-5.6
							c0.1-0.2,0.2-0.4,0.4-0.6c0.1-0.2,0.3-0.4,0.4-0.6c0.3-0.5,0.6-0.9,0.9-1.4c0.5-0.8,0.5-0.9-0.2-1.5c-0.7-0.6-1.8-2.7-1.8-2.7
							c-0.5-0.5-1.6-2.2-1.7-2.6c0-0.4,0.2-0.7,0.6-1.3c0.8-1.2,1.5-2.1,2.3-2.9c0.5-0.5,0.6-1,0.1-1.7c-0.1-0.2-0.2-0.3-0.3-0.5
							c0,0,0-0.1-0.1-0.1c-0.2-0.3-0.4-0.5-0.6-0.8c-0.4-0.6-3.1-3.8-3.3-4c-0.1-0.2-0.2-0.5,0-0.5c0.6-0.1,1.5-0.4,1.8-0.4
							c0.4,0,1.3-0.1,1.6-0.1c2.1-0.1,5.6,0.3,7.6,0.3c1,0,2.9,0.2,3.9,0.3c0.9,0.1,3.2,0.3,3.5,0.3c2.1,0.2,6.9,1.2,7.8,1.4
							c0.5,0.1,3.2,0.8,3.9,1c2.7,0.8,4.8,1.5,5.2,1.7c0,0,0.1,0,0.1,0c0.3,0.1,0.7,0.2,1,0.7c0,0,0,0.1,0,0.1
							c0.1,0.5,0,0.8-0.2,1.1c0,0-0.1,0.1-0.1,0.1c-0.8,1.3-1.1,2.8-1.3,4.4c0,0.2-0.1,0.5-0.1,0.8c0,0.4,0.1,0.5,0.4,0.6
							c1.3,0.5,1.9,0.5,2.8,0.4c0.6,0,1.1-0.1,1.6-0.2c0.6-0.1,0.8-0.1,1.4-0.2c0.4,0,0.7-0.1,1.1-0.2c0.1,0,0.1,0,0.2,0
							c0.9-0.2,0.8-0.2,0.7-1.3c-0.1-0.6-0.2-1.4,0-2c0.1-0.4,0.8-0.4,1-0.3c0.6,0.2,2.1,0.5,3,1c0.4,0.2,0.7,0.6,0.8,0.8
							c0.1,0.3-0.1,0.7-0.3,0.9c0,0-1.2,1.4-1.4,1.6c-0.4,0.4-0.7,0.8-1.1,1.2c-0.7,0.7-0.7,0.9,0,1.9c1.4,2,2.3,2.7,3.8,3.8
							c0.2,0.1,0.3,0.2,0.5,0.4c0.1,0.1,0.1,0.2,0.2,0.4c0,0,0,0.1,0,0.1c-0.1,0.5-0.6,1.1-0.9,1.3c-0.6,0.6-1.4,1.2-1.4,1.2
							c-0.1,0-0.6,0.5-0.6,0.5c-1.1,1-2,1.3-3.4,2c-0.1,0-0.1,0.1-0.2,0.1c-2.3,1.2-3.5,1.9-5.8,2.9c-2,0.8-4.3,1.4-6.4,2
							c-0.6,0.2-4.1,1.1-4.9,1.3c-0.1,0-0.2,0-0.3,0.1c-0.7,0.1-5.3,0.9-7.2,1.2c-0.1,0-0.1,0-0.2,0c-0.6,0.1-1.2,0.1-1.8,0.2
							C74.6,55.6,71.6,55.9,68.8,55.8z"/>
					</g>
				</g>
			</g>
		</g>
	</g>
	<g>
		<path class="st0" d="M110.5,71.7c-0.3-0.9-1.6-2.9-2.3-3.5c-0.6-0.6-0.7-1.6-0.6-2.7c0-0.6,0-1.7,0.1-2.3c0.3-1.7,0-5,0-5.6
			c0-1.8-0.2-4.2-0.4-5.4c-0.1-0.8-0.3-1.8-0.4-2.8c-0.1-0.6-0.4-2.5-0.4-2.8c0-0.2,0-0.2,0.5-0.9c-1.5,1.2-1.8,1.3-3.3,2.5
			c1.2-0.5,1.2-0.7,1.6,0.5c0.9,2.5,0.8,5.1,1.1,7.8c0.1,0.9,0.2,4,0.1,5.1c0,0.6-0.5,3.9-0.7,4.1c-0.2,0.2-0.7,0.2-0.7,0.2
			c-0.2,0-1.5-0.1-1.9-0.2c-0.1,0-0.2-0.1-0.3-0.1c-0.3-0.1-1-0.2-1.6-0.2c-0.5,0-1.9,0.1-1.9,0.1c-0.4,0.1-0.7,0.1-1.1,0.1
			c-1.4,0.2-4.2,0.9-6,1.6c-2.8,1-5.2,2.8-7.6,4.5c-1.8,1.3-3.3,2.5-4.5,3.7c-0.4,0.4-0.8,0.7-1.2,1.1c-0.2,0.2-0.4,0.3-0.6,0.5
			c-0.1,0.1-0.1,0.1-0.2,0.2c-0.2,0.2-0.4,0.3-0.6,0.5c-0.8,0.8-1.8,1.4-2.7,1.9c-0.9,0.6-1.9,1.2-1.9,1.2c-0.2,0.1-0.3,0.2-0.6,0.3
			c-0.2,0.1-0.4,0.2-0.6,0.3c-1.9,1.1-3.9,1.8-6.1,2.3c-0.2,0.1-0.4,0.1-0.6,0.2c-0.4,0.1-3.1,0.2-4,0.2c-1.4,0-2.4-0.2-3.8-0.5
			c-0.6-0.1-2.3-0.6-2.8-0.7c-2.6-1-4.3-2.5-6-3.7c-0.6-0.4-1.2-0.9-1.7-1.6c-1.3-1.5-2.5-3.3-3.1-5.2c-0.5-1.4-0.6-3-0.6-4.1
			c0-0.4,0-0.6,0.1-1.1c0-0.3,0.2-1.1,0.2-1.5c0-0.6,0-0.7,0.3-1.3c0.2-0.6-0.2-0.9-0.8-1.2c-0.6-0.2-1.2-0.4-1.8-0.4
			c-0.1,0-0.3,0-0.4,0c-1.4,0.1-2.8,0.3-4,1c-0.8,0.4-1.7,1-2.5,1.8c-1.7,1.8-3.4,3.7-4.7,5.8c-0.1,0.2-0.2,0.4-0.3,0.6
			c-0.1,0.2-0.2,0.3-0.3,0.5c-0.1,0.2-0.2,0.4-0.4,0.6c-0.1,0.2-0.3,0.4-0.5,0.6c-0.3,0.4-1,0.7-1.4,0.7c-0.4,0-1-0.1-1.4-0.2
			c-0.7-0.4-1.2-0.6-1.7-1.1c-1.4-1.2-2.5-2.7-3.4-4.2c-0.3-0.4-0.9-1.7-1-1.9c-0.2-0.5-1.4-1.7-2.6,0.5c-1.2,2.2-1.9,4.7-2.1,7.3
			c-0.1,0.9-0.1,1.2-0.2,2.1c0,0.5-0.1,1.2-0.1,1.6c0,0.1,0,0.1,0,0.2c0,0.2,0,1-0.2,1.3c-0.1,0.1-0.1,0.1-0.1,0.2
			c-0.1-0.1-0.1-0.1-0.2-0.2c-0.1-0.1-0.1-0.2-0.2-0.2c-0.1-0.2-0.3-0.3-0.4-0.5c-1.1-1.9-2.3-4.3-2.8-6.5c-0.2-0.9-0.4-1.9-0.7-2.9
			c-0.2-0.7-0.1-1.4-0.3-2.2c-0.5-2.5-1-5.1-0.9-7.7c0.1-4,0.2-8.3,1.7-12.2c0.1-0.3,0.3-1,0.4-1.3c0.2-0.7,1.5-2.3,1.5-2.3
			c-0.6-0.9-1.5-1-2.1-1.9c0,0.1-0.9,3.2-1,3.3c-0.1,0.3-0.1,0.6-0.2,0.9c-0.3,1-0.6,2-0.9,3C7.6,51,7.5,53,7.4,55.4
			c0,0.4-0.1,0.8-0.1,1.2c-0.1,0.9-0.1,1.8-0.2,2.6c-0.1,1.5-0.1,3,0.2,4.6c0.1,0.6,0.2,1.1,0.3,1.7c0.1,0.6,0,1.1,0.1,1.7
			c0.2,1.2,0.5,2.6,0.9,3.8c0.2,0.7,0.5,1.5,0.7,2.2c0.3,0.9,0.6,1.7,0.9,2.6c0.7,2,1.2,3.8,2.2,5.4c0.3,0.5,0.6,1.1,0.9,1.6
			c0.3,0.6,0.7,1.3,1.1,1.9c1.2,2,2.5,4.1,4,5.9c1.2,1.4,2.9,3.2,4.4,4.7c1.5,1.5,2.6,2.6,4,3.4c0.7,0.4,1.4,0.9,2.1,1.3
			c0.8,0.5,1.9,1.2,2.8,1.7c0.9,0.5,2.9,1.4,2.9,1.4c0.6,0.2,1.3,0.5,1.9,0.8c1.4,0.7,2.4,1,4.1,1.5c0.9,0.3,2,0.8,3.1,1.1
			c0.2,0.1,0.6,0.1,0.8,0.2c0.2,0.1,0.3,0.1,0.5,0.1c1.1,0.3,2.8,0.5,3.9,0.8c0,0,0,0,0.1,0c0.5,0.1,1.1,0.2,1.6,0.2
			c0.2,0,4.6,0.4,6,0.5c0.1,0,0.2,0,0.3,0c0.6,0.1,4.5-0.2,5.7-0.3c1.1-0.1,2.3-0.3,3.4-0.5c0.5-0.1,1.1-0.2,1.6-0.2
			c2.2-0.3,4.5-0.9,6-1.3c0.4-0.2,0.6-0.2,1-0.4c1.5-0.6,2.6-1.1,4.1-1.7c2.8-1.1,5.4-2.6,7.8-4.4c2.3-1.6,4.4-3.6,6.4-5.5
			c1.7-1.7,3.4-3.6,4.8-5.5c0.6-0.8,1.6-2.3,2.2-3.2c0.4-0.6,1.1-1.7,1.6-2.3c1.4-2.2,2.4-4.6,3.3-7c0.3-0.8,0.6-1.6,0.9-2.4
			c0.2-0.6,0.4-1.1,0.6-1.7c0-0.1,0-0.1,0.1-0.2c0.1-0.3,0.1-0.7,0.5-0.8c0.1,0,0.3,0.1,0.4,0.1c0.2,0.1,0.3,0.2,0.5,0.3
			s1.6,1.5,1.7,1.6c0.1,0,0.2,0.2,0.3,0.2c0.3,0,0.5-0.2,0.5-0.5C110.7,72.3,110.6,71.7,110.5,71.7z M40.8,65.4c0.4-1,0.8-1.2,1-1.2
			c0.1,0,0.2,0,0.4,0.1c0,0,0,0,0.1,0.1c0,0,0,0.1,0.1,0.1c0,0,0,0.1,0,0.1c0,0.1,0,0.2,0,0.3c-0.3,1.6-0.2,3.3-0.1,5
			c0.1,1.6,0.5,3,1.2,4.3c1.4,2.8,3.5,5.3,6.1,7c1.5,0.9,2.1,1.3,4.5,2.4c0.8,0.3,2,0.7,2.7,0.9c0.4,0.1,0.8,0.1,1.2,0.2
			c0.2,0,0.3,0.1,0.5,0.1c0.1,0,0.2,0.1,0.2,0.1c0,0,0,0,0.1,0c0,0,0.1,0,0.1,0.1c0.1,0.1,0,0.6-0.5,0.6c-0.1,0-0.2,0-0.4,0
			c-2,0-4.5,0-5.8-0.2c-0.1,0-0.2-0.1-0.4-0.1c-0.1,0-0.1,0-0.2,0c-0.1,0-0.3,0-0.4-0.1c-0.3,0-1.2-0.2-1.5-0.3
			c-1.2-0.3-3.5-2.1-4.5-2.9c-0.4-0.3-0.8-0.6-1.1-1c-1.4-1.7-2.8-3.8-3.7-5.9c-0.7-1.8-0.9-3.8-0.6-5.8c0.2-1,0.4-1.9,0.7-2.8
			C40.6,66,40.7,65.7,40.8,65.4z M33.4,71.5c0.1-0.6,0.2-1.2,0.3-1.8c0-0.1,0-0.2,0.1-0.4c0.3-1.5,1.2-2.5,2-3.1
			c0.7-0.6,0.9-0.8,1.7-1.2c0.1-0.1,0.2-0.1,0.3-0.2c0.5-0.2,1.1-0.4,1.5-0.5c0.2-0.1,0.6-0.1,0.9,0c0,0-0.8,1.7-0.9,2.1
			c-0.5,1.7-0.6,3-0.7,4.7c-0.1,1,0.3,2.2,0.6,3.4c0.5,2.1,1.8,4.6,3.3,6.1c0.2,0.2,0.5,0.5,0.7,0.7c0.2,0.2,0.4,0.4,0.5,0.6
			c0.7,0.7,1.2,1.3,2.2,1.8c0.1,0,0.9,0.7,0.7,1.1c0,0-0.2,0-0.3,0c0,0,0,0-0.1,0c-1,0-1.8-0.2-2.8-0.5c-0.6-0.2-1.2-0.3-1.8-0.5
			c-0.6-0.2-1.3-0.3-1.9-0.6c-0.7-0.3-2.1-0.9-3.1-1.8c-0.6-0.5-1.1-1.2-1.5-1.9c-1-2-1.7-4.4-2-6.6C33.3,72.5,33.3,72,33.4,71.5z
			 M27,75.3c0.8,0,1.6-0.4,1.9-0.7c0.3-0.3,0.5-0.7,0.7-0.9c0.2-0.3,0.5-1,0.6-1.2c0.4-0.7,0.6-0.9,1.1-1.7c0.1-0.1,0.2-0.3,0.3-0.4
			c0-0.1,0.1-0.1,0.1-0.1c0-0.1,0.1-0.1,0.1-0.1c0,0,0.1,0.1,0.1,0.1c0.3,0.2,0.3,0.6,0.3,0.8c0,0,0,0.1,0,0.1c0,0.3,0,0.6,0,0.9
			c0,0.4,0,0.8,0,1.2c0.1,1.7,0.5,3.3,1.2,4.9c0,0,0,0,0,0.1c0.2,0.4,0.4,0.8,0.5,1.2c0,0.1,0.1,0.7,0,0.9c-0.1,0.1-0.5,0-0.5,0
			c-0.1-0.1-0.2-0.1-0.3-0.1c-0.2-0.1-0.3-0.1-0.5-0.2c-0.5-0.3-0.9-0.5-1.4-0.8c-1.7-0.9-1.1-0.6-2.8-1.6c-0.8-0.6-1.1-0.9-1.9-1.4
			c-0.4-0.3-0.6-0.5-1.1-0.9C25.6,75.2,26.5,75.3,27,75.3z M20.1,70.8C20.1,70.8,20.1,70.8,20.1,70.8c0-0.1,0.5,0.4,0.7,0.7
			c0.5,0.4,1.2,1.4,1.6,1.9c1.7,1.9,3.9,3.6,5.6,4.9c0.3,0.2,1.1,0.8,2,1.4c0.5,0.3,1.2,0.7,1.7,1c2.5,1.6,5.4,2.7,8.1,3.8
			c1.2,0.5,2.5,0.7,3.8,1c0,0,0,0,0.1,0c2.1,0.5,4.3,1,6.5,1.2c0.4,0,0.7,0.1,1,0.1c0.1,0,2,0.1,2.1,0.1c0.1,0,0.2,0,0.3,0
			c1.4,0,1.2,0,2.6,0c0.2,0,0.6,0,0.8,0c0.7,0,1.5,0,2.4-0.2c0.5-0.1,4.2-0.8,5.3-1.2c0.4-0.1,0.7-0.2,1.1-0.4
			c0.4-0.1,0.8-0.3,1.1-0.4c0.2-0.1,0.5-0.2,0.9-0.2c0,0,0.1,0,0.1,0c0.1,0,0.1,0,0.2,0c0,0,0.1,0,0.2,0c0.1,0,0.2,0,0.3,0
			c-0.1,0.1-0.1,0.2-0.1,0.2c0,0.1-0.1,0.1-0.1,0.2c-0.1,0.1-0.1,0.2-0.2,0.3c-0.2,0.2-0.4,0.4-0.7,0.5c-0.1,0.1-0.2,0.1-0.3,0.2
			c-1.6,1-3.2,2.1-5,2.8c-1.8,0.7-3.8,1.4-5.9,1.7c-1.3,0.2-2.7,0.2-4,0.3c-0.6,0-1.1,0.1-1.7,0.1c0,0-5.2-0.3-6.4-0.5
			c-4.6-1-8.2-2.3-11.5-4.6c-4.4-3.1-5.3-4.2-6-5c-2.5-2.6-4.2-4.3-6.1-8.2c-0.1-0.2-0.2-0.4-0.3-0.6c0-0.1-0.1-0.2-0.1-0.2
			C20.2,71.5,20,70.8,20.1,70.8z M22.3,90.7c-1.5-0.9-2.8-2-4.1-3.2c-0.5-0.5-0.9-1.1-1.1-1.9c-0.3-1-0.7-2.2-0.9-3.5
			c-0.4-1.6-0.4-2.7-0.3-4.1c0-0.2,0-0.5,0-0.7c0-0.3,0-0.7,0-1c0-0.2,0.1-0.4,0.1-0.6c0.1-1,0.3-2.4,0.7-3.4
			c0.1-0.2,0.1-0.4,0.2-0.5c0.1-0.2,0.2-0.4,0.2-0.7c0-0.1,0.2-0.6,0.2-0.7c0-0.1,0.2-0.4,0.2-0.4s0.1,0,0.1,0.3
			c0,0.1,0.2,0.9,0.2,1c0,0.3,0.1,0.6,0.1,0.8c0,0.2,0.7,5.4,3.7,11.5c3.9,8,9.6,10.6,9.7,10.7c0,0,0,0.1,0,0.1c0,0,0,0.1,0,0.1
			c0,0,0,0-0.1,0.1c-0.1,0.1-0.3,0.2-0.4,0.2c-0.1,0-0.2-0.1-0.3-0.1c0,0-0.1,0-0.1,0c0,0-0.1,0-0.1,0c-1.2-0.4-2.5-0.8-3.7-1.5
			c-0.8-0.4-1.5-0.8-2.3-1.3C23.6,91.4,23,91,22.3,90.7z M65.3,105.3c0,0.2-0.1,0.4-0.2,0.5c-0.2,0.3-0.4,0.5-0.8,0.6
			c-0.1,0-0.2,0-0.3,0c-0.4,0-0.8,0.1-1.2,0.1c0,0,0,0,0,0c-1.2,0-2.3,0.2-3.5,0.2c-0.7,0-1.3,0-2,0c-0.6,0-1.3,0-2.3-0.2
			c-0.1,0-0.2,0-0.3-0.1c0.1-0.1,0.1-0.1,0.2-0.2c0.1-0.1,0.1-0.2,0.2-0.2c0.1-0.1,0.2-0.2,0.3-0.3c0.5-0.3,1.1-0.6,1.7-0.9
			c0.4-0.2,0.7-0.3,1.1-0.5c0.3-0.1,0.5-0.3,0.8-0.4c0.8-0.4,1.7-0.6,2.5-1c0.2-0.1,0.3-0.2,0.5-0.2c0.2-0.1,0.5-0.3,0.8-0.4
			c0,0,0.1,0,0.1-0.1c0.4-0.2,0.9-0.4,1.4-0.5c0.1,0,0.2,0,0.3,0c0.4,0,0.7,0.2,0.8,0.7C65.4,103.4,65.5,104.2,65.3,105.3z
			 M65.7,96.3c-0.1,1-0.3,1.9-0.4,3.1c-0.1,0.3-0.2,0.6-0.6,0.8c-0.1,0.1-0.2,0.1-0.3,0.1c-0.6,0.3-1.2,0.6-1.8,0.9
			c-1.3,0.7-2.7,1.4-4.1,2c-1.5,0.7-3.1,1.1-4.6,1.8c-0.6,0.2-1.1,0.5-1.7,0.7c-0.7,0.3-1.4,0.4-2.2,0.4c-0.4,0-0.9-0.1-1.4-0.1
			c-1-0.2-2.1-0.4-3.3-0.8c-0.5-0.1-0.8-0.2-1.4-0.3c-2.3-0.8-4.6-1.6-6.8-2.4c-0.3-0.1-0.6-0.3-0.9-0.4c-0.1-0.1-0.3-0.1-0.4-0.2
			c-0.3-0.1-0.5-0.3-0.8-0.4c-0.6-0.3-1.2-0.6-1.8-0.8c-1.6-0.7-3-1.4-4.2-2.3c-0.5-0.4-1-0.7-1.6-1.1c-0.1-0.1-0.1-0.1-0.2-0.1
			c-1-0.8-2-1.6-2.9-2.4c-0.2-0.2-0.5-0.5-0.7-0.7c0,0-0.1-0.1-0.1-0.1c0-0.1,0-0.1,0-0.1c0.1-0.2,0.3-0.3,0.4-0.3
			c0.1,0,0.2,0.1,0.2,0.1c0,0,0,0,0,0c0.2,0.1,0.3,0.1,0.5,0.2c0.9,0.4,1.7,0.8,2.6,1.2c2.7,1.2,5.6,2.1,8.4,2.7
			c2.8,0.5,5.5,0.8,8.4,1c0.1,0,0.1,0,0.2,0c0.5,0,0.8,0.1,1.2,0.1c0.6,0.1,1.2,0.1,1.8,0.2c1.1,0,2.2,0,3.4-0.2
			c0.6-0.1,1.2-0.1,1.8-0.2c0.1,0,0.1,0,0.2,0c2.6-0.2,5.2-0.8,7.6-1.6c0.8-0.2,1.7-0.6,2.5-0.8c0.5-0.2,1-0.4,1.6-0.6
			c0.1,0,0.1,0,0.2-0.1c0.2-0.1,0.4-0.2,0.6-0.2c0.2,0,0.3,0,0.5,0.1c0.1,0,0.1,0,0.1,0c0,0.1,0,0.1,0,0.1c0,0.1,0,0.1,0,0.2
			C65.7,95.9,65.8,96.1,65.7,96.3z M62.8,94.9c-0.3,0.1-3.1,1.1-4.3,1.2c-0.2,0-0.4,0.1-0.6,0.1c-0.1,0-0.1,0-0.2,0
			c-0.3,0.1-0.7,0.2-1,0.2c-0.7,0.2-1.4,0.3-2.2,0.5c-1,0.2-2.1,0.3-3.1,0.3c-0.1,0-0.2,0-0.3,0c-1.2,0.1-2.5,0.3-3.9,0.3
			c-0.6,0-1.3-0.1-2-0.1c-1-0.1-2-0.2-3-0.3c-0.4-0.1-0.8-0.1-1.2-0.2c-1.4-0.2-2.7-0.5-3.9-0.9c-4.4-1.2-11.1-6-14.8-13.5
			c-2.4-4.9-3.8-11.6-3.5-11.8c0.1-0.1,0.5,1,0.5,1c0,0.1,0.1,0.2,0.1,0.2c0,0.1,0,0,0,0c0.2,0.3,1.5,2.8,1.9,3.5
			c1.1,1.8,4.2,5.5,5.3,6.6c2.3,2.4,5.1,4.3,8.6,6.2c2,1.1,4.1,1.8,5.8,2.2c0.7,0.2,3.4,0.8,4.9,1c0.7,0.1,4.2,0.1,4.8,0.1
			c0.8,0,1.6,0,2.3-0.1c0.4-0.1,0.8-0.1,1.3-0.2c1-0.1,2.1-0.3,3.2-0.4c1.4-0.3,2.8-0.4,4.4-1.2c0.7-0.3,1.4-0.6,2-0.9
			c1.3-0.6,2.7-1.5,3.9-2.2c0.2-0.1,0.3-0.2,0.5-0.2c0,0,0,0,0,0c0.1,0,0.3,0,0.4,0.1c0.1,0,0.2,1.2,0.2,1.3c-0.1,0.2-0.5,0.6-0.7,1
			c-0.3,0.7-0.6,1.2-0.9,1.9c-0.3,0.6-0.5,1.2-0.8,1.8c-0.1,0.1-0.1,0.2-0.1,0.4C66.1,94,63.6,94.7,62.8,94.9z M77.2,103
			c-1.4,0.7-2.5,1-4.4,1.7c-0.5,0.2-2.3,0.7-2.8,0.8c-0.3,0.1-0.6,0.1-0.8,0.1c-0.1,0-0.2,0-0.3,0c-0.9-0.1-1.6-0.3-1.8-1.1
			c-0.1-0.3-0.2-0.6-0.2-0.8c-0.1-1.3-0.2-2.4-0.2-3.7c0-0.2,0-0.2,0-0.4c-0.1-1.1,0.1-2.2,0.3-3.3c0-0.2,0.1-0.5,0.1-0.7
			c0.3-2.2,1.5-4.6,2.5-6.6c0.2-0.4,0.4-0.6,0.7-0.9c0.3-0.3,0.7-0.4,0.7-0.4s0,0.5,0.1,0.7c0.1,0.4,0.1,1.1,0.2,1.3
			c0.1,0.5,0.1,1,0.2,1.4c0.2,0.8,0.1,1.2,0.4,2c0.2,0.6,0.4,1.4,0.7,2c0.2,0.6,0.7,1.8,0.9,2.4c0.8,1.7,1.9,2.9,3.2,3.8
			c0.1,0.1,1.4,1.1,1.4,1.1C77.8,102.6,77.2,103,77.2,103z M82.8,100.5c-0.1,0.1-0.2,0.2-0.3,0.2c-0.6,0.3-1.1,0.3-1.7,0.6
			c-0.2,0.1-0.3,0.1-0.4,0.2c-0.2,0.1-0.4,0.2-0.7,0.2l0,0c-0.4,0-0.8,0.1-1.1-0.2c0,0-0.1-0.1-0.1-0.1c-0.3-0.3-0.9-0.5-1.3-0.8
			c-0.8-0.7-1.6-1.4-2.2-2.5c-0.7-1.2-1.3-2.3-1.6-3.5c0-0.1,0-0.2,0-0.3c0,0,0-0.1,0-0.1c0-0.1,0-0.1,0-0.1c0.1,0,0.1,0,0.1-0.1
			c0.1,0,0.2-0.1,0.3-0.1c0.3,0,0.4,0.2,0.5,0.3c0,0,0,0,0.1,0.1c0.2,0.2,0.5,0.5,0.7,0.7c0.4,0.4,0.9,0.9,1.3,1.3
			c0.5,0.4,1,0.9,1.5,1.3c0.1,0.1,0.1,0.1,0.2,0.2c0.9,0.7,2.1,1.5,3,1.9c0.6,0.2,1.8,0.8,1.8,0.8C82.9,100.4,82.8,100.5,82.8,100.5
			z M89.7,95.1c0,0,0,0.1,0,0.1c0,0.1,0,0.3-0.1,0.4c-0.3,0.3-0.6,0.7-0.9,0.9c-0.6,0.5-1.2,0.9-1.7,1.3c-0.2,0.2-0.4,0.3-0.6,0.5
			c-0.1,0.1-0.2,0.1-0.3,0.2c-0.9,0.5-1.5,0.8-2,0.8c-0.4,0-0.8,0-1.3-0.1c-0.1,0-0.2-0.1-0.3-0.1c-1.8-0.5-3.3-1.5-4.5-2.6
			c-0.3-0.3-0.6-0.6-0.9-0.8c-0.3-0.3-0.6-0.6-0.9-0.8c-0.1-0.1-0.5-0.5-0.6-0.6c-0.1-0.1-0.1-0.1-0.2-0.2c0.1-0.1,0.2-0.1,0.3-0.1
			c0.2-0.1,0.4-0.1,0.6-0.1c0.2,0,0.5,0.2,0.7,0.2c0.1,0,0.1,0,0.1,0c0.3,0.1,0.8,0.3,1.2,0.4c0.9,0.2,1.8,0.4,2.6,0.4
			c1.5,0.2,2.8,0.3,4.4,0.2c0.9,0,1.8-0.1,2.7-0.2c0.3,0,0.6-0.1,0.8-0.1c0.3,0,0.6,0,0.8,0.1c0.1,0,0.1,0,0.2,0
			C89.7,95,89.7,95,89.7,95.1z M87.2,91.3c0,0.2,0,0.3,0.1,0.5c0.1,0.4,0.3,0.7,0.4,1.1c0.1,0.6-0.2,0.9-0.8,1.1
			c-0.2,0.1-0.4,0.1-0.6,0.1c-0.6,0-1.1,0.1-1.5,0.1c-1.3,0-2.5-0.1-3.5-0.2c-0.6-0.1-1.4-0.2-1.7-0.3c-0.3-0.1-0.6-0.1-0.9-0.5
			c0,0,0,0-0.1-0.1c0,0,0-0.1,0-0.1s0-0.1,0-0.1c0-0.1,0-0.1,0.1-0.2c0.1-0.1,0.2-0.2,0.3-0.3c3.1-3.1,6.2-6.3,9-9.6
			c0.1-0.1,0.2-0.1,0.2-0.1c0,0,0.1,0,0.1,0c0.1,0,0.2,0,0.3,0c0,0.1,0,0.2-0.1,0.3c0,0.1,0,0.2,0,0.2c0,0.2-0.1,0.3-0.1,0.5
			c-0.1,0.4-0.1,0.5-0.3,0.9c-0.2,0.4-0.6,1.7-0.8,2.4C87,88.3,86.9,89.7,87.2,91.3z M92.8,92.3c-0.1,0.1-0.3,0.3-0.4,0.4
			c-0.2,0.2-0.5,0.5-0.8,0.7c-0.4,0.4-0.4,0.6-1,0.7c-0.1,0-0.2,0-0.3,0c-0.5,0-0.9-0.2-1.1-0.6c-0.2-0.4-0.4-0.8-0.5-1.2
			c-0.8-2.7-0.3-5.3,0.5-7.8c0.7-2,2-4.4,3.5-5.9c1.2-1.3,2.9-2.9,4.1-3.6c0.1,0,0.1-0.1,0.1-0.1c0.1-0.1,0.2-0.1,0.3-0.1
			c0.1-0.1,0.2,0.1,0.2,0.2c-0.1,0.1-0.1,0.2-0.2,0.3c-0.1,0.2-0.2,0.3-0.3,0.5c-0.2,0.3-0.4,0.6-0.6,0.8c-0.1,0.1-0.1,0.2-0.2,0.3
			c-0.1,0.2-0.2,0.3-0.3,0.5c-1.4,2.5-2.6,5.3-2.7,8.2c0,0.9,0.1,1.8,0.3,2.6c0,0.1,0,0.1,0.1,0.2c0,0.2,0.1,0.3,0.1,0.4
			C94.2,90.1,93.9,91.2,92.8,92.3z M99.7,83.6c-0.9,1.2-1.8,2.3-2.7,3.5c-0.3,0.4-0.7,0.9-1.1,1.4c0,0-0.1,0.1-0.1,0.1c0,0,0,0,0,0
			c-0.1,0.2-0.3,0.3-0.6,0.4c-0.1,0-0.1,0-0.2,0c-0.2-0.1-0.5-0.2-0.5-0.7c0-0.3,0-0.6-0.1-0.9c-0.1-0.9-0.1-1.8-0.1-2.8
			c0-0.6,0.2-1.3,0.4-2.2c0.3-1,0.8-2,1.2-3c0,0,0-0.1,0-0.1c0.7-1.5,1.4-2.8,2.2-4c0.2-0.4,0.7-0.9,1-1.1c0.1-0.1,0.6-0.3,0.6-0.3
			c0.1,0,0.1,0,0.2,0c0,0,0.1,0.3,0.1,0.4c0,0.1-0.1,1.3-0.1,1.4c-0.1,1.2-0.1,2.9,0,3.7c0.1,0.7,0.2,1.5,0.2,2.1
			C100.3,82.3,100.3,82.8,99.7,83.6z M104.7,72.6c0,0.2-0.3,0.8-0.3,1c-0.4,1.2-0.9,2.6-1.5,4c-0.1,0.3-0.7,1.6-1.3,1.6
			c-0.3,0-0.4-0.9-0.4-1.2c-0.1-0.3-0.1-0.5-0.1-0.8c0-0.1,0-0.6,0-0.7c0,0.2,0,0.3,0,0.5c0-0.2,0-0.3,0-0.5c0.1-1.8,0.2-3.2,1-3.9
			c0.3-0.3,0.9-0.6,1.1-0.6c0.4-0.1,0.6-0.1,0.8-0.1c0.1,0,0.1,0,0.2,0c0.2,0,0.7-0.1,0.7,0.5C104.7,72.4,104.7,72.5,104.7,72.6z
			 M106.4,69.9c-0.1,0-0.2,0.1-0.3,0.1c-0.2,0.1-0.7,0.1-0.8,0.1c-2.1,0.1-4.1,0.9-5.5,1.7c-0.1,0-0.1,0-0.2,0.1
			c-0.2,0.1-0.3,0.2-0.5,0.3c-1.2,0.8-2.4,1.7-3.7,2.6c-0.4,0.3-0.8,0.6-1.1,0.8c-0.3,0.2-0.5,0.4-0.8,0.6c-3.3,2.5-6.1,5.7-8.8,8.8
			c-1.3,1.5-2.7,3-4.1,4.5c-0.6,0.6-1.2,1.2-1.8,1.8c-0.4,0.4-0.8,0.8-1.2,1.2c-0.4,0.3-0.8,0.5-1.2,0.5l0,0c-0.1,0-0.2,0-0.3,0
			c-0.6-0.1-1.3-0.2-1.9-0.6c-0.1-0.1-0.3-0.3-0.3-0.5c0-0.2,0.1-0.4,0.3-0.6c0.2-0.2,0.4-0.4,0.6-0.6c1.6-1.3,3.1-2.7,4.4-4
			c0.4-0.4,0.8-0.8,1.2-1.1c0.2-0.2,0.5-0.4,0.7-0.7c0.4-0.3,0.7-0.7,1.1-1.1c0.9-0.8,1.8-1.8,2.7-2.7c2-2.1,4-4.3,6.2-6.2
			c0.3-0.3,0.7-0.6,1.1-0.8c0.7-0.5,1.4-1.2,2.2-1.6c0.7-0.4,1.4-0.9,2.1-1.3c1-0.6,2-1.1,3-1.3c0.6-0.2,1.2-0.3,1.8-0.5
			c0.4-0.1,2-0.3,2.4-0.3c0.9,0,1.8,0.2,2.7,0.6c0.2,0.1,0.3,0.1,0.5,0.2C106.5,69.8,106.5,69.8,106.4,69.9z M105.4,68.1
			c-0.3-0.1-0.7-0.1-1-0.1c-0.6-0.1-1.1-0.1-1.6-0.1c-1.3,0-2.5,0.3-3.7,0.8c-0.2,0.1-0.3,0.1-0.5,0.2c-0.2,0.1-0.3,0.1-0.5,0.2
			c-0.1,0-0.1,0.1-0.2,0.1c-0.4,0.2-0.8,0.3-1.2,0.6c-2.9,1.7-5.8,3.6-8.3,5.7c-1,0.8-1.9,1.7-2.8,2.6c-0.1,0.1-0.1,0.1-0.2,0.2
			c-1.7,1.7-3.2,3.7-4.9,5.4c-0.1,0.1-0.2,0.2-0.3,0.3c-0.8,0.8-1.7,1.6-2.4,2.4c-1.3,1.4-2.7,2.3-4.3,3.5c-0.1,0.1-0.2,0.1-0.3,0.2
			c-0.2,0.1-0.4,0.1-0.5,0.2c-0.2,0-0.4-0.7-0.5-1.2c0-0.2,0-0.2-0.1-0.4c-0.1-0.4,0-0.7,0-0.8c0-0.2,0-0.5,0-0.7
			c0-0.2,0.1-0.6-0.1-0.9c-0.1-0.2-0.8-0.2-1.4,0.2c0,0-0.6,0.4-0.6,0.4c-0.3,0-0.4-0.8-0.6-0.9c-0.1-0.2-0.1-0.4,0-0.7
			c0.1-0.2,0.3-0.4,0.5-0.6c0.2-0.2,0.5-0.4,0.8-0.6c0.4-0.3,0.8-0.5,1.2-0.8c1.9-1.2,3.8-2.6,5.6-4c0.5-0.4,1-0.8,1.5-1.2
			c0.1-0.1,0.2-0.2,0.3-0.2c0.7-0.7,1.4-1.4,2.2-2c0.3-0.2,0.6-0.5,0.8-0.7c1.3-1.1,2.7-2.2,4.2-3.2c0.9-0.6,1.9-1.2,3.2-1.9
			c0.7-0.4,1.4-0.8,2.1-1.1c0.4-0.2,0.7-0.4,1.1-0.6c1.1-0.6,1.7-0.8,2.9-1.1c0.9-0.2,1.8-0.4,2.7-0.5c0.3-0.1,0.6-0.1,0.9-0.2
			c0.2,0,0.4-0.1,0.7-0.1c1.8-0.1,3.5,0.3,5.6,1c0.1,0,1,1,1,1C106.2,68.3,105.9,68.3,105.4,68.1z"/>
	</g>
	<g>
		<g>
			<path class="st0" d="M74.9,80.9c-3.8-1.3-6.7-5.3-6.6-9.4c0.1-2.7,1.1-5.7,3-7.5c1.8-1.7,4.2-3.3,7.1-3.3c2.1,0,4.7,1.2,6.2,2.5
				c1.5,1.4,2.8,3.9,3,6c0,0,0,0,0,0c0,0.2,0,0.3,0.1,0.4c0,0.2,0.1,0.4,0.1,0.8c-0.5,0.2-0.8,0.3-1.3,0.5c0-0.3,0-0.8,0-1
				c0-0.1,0-0.2-0.1-0.5c-0.4-2.3-1.3-4-2.6-5.2c-1.2-1-3.1-2.2-5.4-2.2c-2.1,0-4.8,1.4-6.2,2.9c-1.4,1.6-2.7,4.3-2.6,6.5
				c0.1,3.5,2.2,7.1,5.8,8.2C75.2,80.1,75.1,80.4,74.9,80.9z"/>
		</g>
	</g>
	<path class="st0" d="M77.8,40.7c0-0.2-0.2-0.7-0.4-1.2c-0.5-0.8-2.3-2.6-3.8-4.1c-0.4-0.4-0.8-0.8-1-1c-2.1-2.1-2.7-3.2-3.2-3.8
		c-0.1-0.1-0.2-0.3-0.2-0.4c-0.1-0.1-0.2-0.4-0.2-0.5c0-0.2,0.2-0.2,0.2-0.2c0.1,0,0.1,0,0.2,0c0.1,0,0.3,0,1.1,0.1
		c1.3,0.2,2.1,0.9,2.9,1.5c0,0,0,0,0.1,0c0.2,0.2,0.7,0.6,0.8,0.7c0,0,0.1,0.1,0.1,0.1c0.1,0.2,0.3,0.4,0.5,0.7
		c0.2,0.3,0.4,0.8,0.4,0.8l0,0c0,0.3,0.4,0.9,0.8,0.9l0.3,0c0,0,0.1,0,0.1,0c0.1,0,0.3,0,0.4-0.1c0.1-0.1,0.2-0.2,0.2-0.4
		c0-0.2-0.1-1-0.7-1.9c-0.3-0.5-0.6-0.9-0.9-1.2c-0.4-0.4-0.8-0.8-0.8-0.8l-0.1-0.1l0,0c-0.2-0.2-0.7-0.5-1.2-0.8
		c-0.9-0.6-1.7-0.8-2.3-1c-0.5-0.1-1.2-0.2-1.4-0.3c-0.1,0-0.3,0-0.5,0l-0.1,0c-0.1,0-0.1,0-0.2,0c-0.1,0-0.2,0-0.3,0
		c-0.4,0-0.8,0.1-0.9,0.2c-0.1,0.1-0.2,0.1-0.2,0.2c-0.1,0.1-0.2,0.1-0.3,0.2c-0.2,0.3-0.7,1.7-0.1,2.2c1.5,1.1,7.4,7,8.9,9.6
		c0.2,0.3,0.5,1,0.5,1.4c0.2,1.9-2.3,5.8-2.9,6.3c0,0-0.1,0.2-0.3,0.2c-0.1,0-0.2,0-0.3-0.2c-0.9-1.4-1.5-2.8-1.8-4.6
		c-0.4-2-0.5-4.5-0.5-5c0-0.2-0.1-0.3-0.2-0.5c-0.2-0.2-0.6-0.2-1,0.1l0,0l0,0c-0.3,0.9-0.1,4.7-0.1,5l0,0.1
		c0.2,1.2,0.8,3.7,2.9,6.5c0.2,0.3,0.5,0.4,0.8,0.5c0,0,0.1,0,0.1,0c0.1,0,0.1,0,0.1,0c0.3-0.1,1.3-1.1,2-2.5
		c0.1-0.2,0.3-0.5,0.5-0.9C76.6,45,78.1,42.2,77.8,40.7z"/>
</g>
</svg>
