<?xml version="1.0" encoding="utf-8"?>
<!-- Generator: Adobe Illustrator 24.0.2, SVG Export Plug-In . SVG Version: 6.00 Build 0)  -->
<svg version="1.1" id="Layer_3" xmlns="http://www.w3.org/2000/svg" xmlns:xlink="http://www.w3.org/1999/xlink" x="0px" y="0px"
	 viewBox="0 0 245.9 38.2" style="enable-background:new 0 0 245.9 38.2;" xml:space="preserve">
<style type="text/css">
	.st0{fill:#FFFFFF;}
	.st1{fill-rule:evenodd;clip-rule:evenodd;fill:#FFFFFF;}
</style>
<g id="Layer_2_3_">
	<g>
		<path class="st0" d="M152.3,27.2c-0.1,0-0.2,0-0.3-0.1c-0.1,0-0.1,0-0.2-0.1c-0.1-0.1-0.2-0.2-0.3-0.4c-0.1-0.2-0.2-0.5-0.3-0.9
			c0-0.1-0.1-0.2-0.1-0.3c0-0.1-0.1-0.1-0.1-0.2c-0.1-0.4-0.2-0.7-0.2-0.9c-0.1-0.2-0.1-0.4-0.2-1.1c0-0.3-0.1-0.7-0.1-1.1l-0.1-0.9
			v-0.4c0-0.1-0.1-1.4-0.1-1.4v-0.2c0-0.2,0.1-1.2,0.2-1.5c0.3-1.4,0.7-2.5,1.3-3.7c0.5-1.1,1.6-2.3,2.2-2.6
			c0.3-0.2,0.5-0.3,0.8-0.3c0.1,0,0.2,0,0.2,0.1c0.1,0.1,0.2,0.1,0.2,0.2c-0.7,0.7-2.3,2.4-3.1,4.4c-0.3,0.9-0.5,1.6-0.7,2.4
			l-0.1,0.7c-0.1,0.4-0.1,1.4,0,1.6l0.2,0.1c0.2-0.4,0.3-0.7,0.4-0.9l0.1-0.3c0.3-0.7,0.4-1,0.4-1.1c0.1-0.1,0.3-0.7,0.4-0.8
			l0.1-0.1c0.2-0.2,0.2-0.3,0.4-0.7c0.3-0.4,0.5-0.7,0.8-0.9c0.2-0.1,0.3-0.3,0.7-0.5c0.1-0.1,0.1-0.1,0.1-0.1
			c0.1,0,0.1-0.1,0.2-0.2c0.1-0.1,0.2-0.1,0.3-0.2l0,0l0.1-0.1c0,0,0.1-0.1,0.3-0.1h0.2c0.3,0,0.5,0.5,0.5,1c0,0.3,0.1,0.9,0,1.1
			c0,0.5-0.1,0.9-0.1,1.2v0.1c0,0.3-0.1,0.7-0.1,1.2c0,0.4-0.1,0.7-0.2,1.1l-0.1,0.2c-0.1,0.2-0.1,0.3-0.2,0.5
			c-0.1,0.2-0.1,0.4-0.2,0.7v0.1c0,0.1-0.1,0.3-0.1,0.4c-0.1,0.1-0.5,1.1-0.5,1.2c-0.2,0.5-0.3,0.7-0.5,1c-0.2,0.2-0.3,0.5-0.7,1
			c-0.1,0.1-0.2,0.3-0.3,0.4l-0.1,0.1c-0.2,0.2-0.3,0.4-0.4,0.5s-0.3,0.3-0.5,0.4C152.5,27.2,152.5,27.2,152.3,27.2z M155.5,16.5
			c-0.9,0.5-2,2-2.2,2.5c-0.1,0.1-0.7,1.5-0.7,1.5c-0.3,0.8-0.8,3.1-0.9,3.7c0.1,0.7,0.3,1.1,0.4,1.3l0,0h0.1
			c0.4-0.1,1.1-0.9,1.5-1.7c0.1-0.2,0.2-0.3,0.3-0.5c0.1-0.3,0.4-1.2,0.7-1.7l0.1-0.3c0.5-1.6,0.8-3,0.8-4.4v-0.2L155.5,16.5z"/>
		<path class="st0" d="M77.4,13.8c0-0.1-0.1-0.3-0.1-0.8c0-0.1,0-0.1-0.1-0.2c0-0.1,0-0.1-0.1-0.2c0-0.2-0.1-0.4-0.1-0.7
			c-0.1-0.1-0.1-0.2-0.2-0.3c0,0-0.1,0-0.1-0.1l0,0c-0.1,0-0.2-0.1-0.2-0.1l0,0c-0.1,0-0.1,0-0.1,0l0,0c-0.2,0-0.4,0.1-0.5,0.2
			c-0.1,0-0.2,0.1-0.4,0.2l-0.1,0.1C75.1,12,75,12,74.9,12.2c-0.3,0.2-0.5,0.3-0.7,0.4l0,0c-0.2,0.1-0.3,0.2-0.5,0.5
			c0,0-0.5,0.5-0.5,0.7C73,13.9,73,14,72.9,14.1v0.1c-0.1,0.1-0.2,0.3-0.3,0.5c-0.1,0.1-0.1,0.2-0.2,0.3c0,0,0,0.1-0.1,0.1
			c-0.1,0.2-0.2,0.4-0.3,0.9c0,0.2-0.1,0.4-0.1,0.7s-0.1,0.4-0.1,0.8c0,0.2,0,0.7,0,1c0,0.2,0,0.3,0,0.5c0,0.5,0.1,0.9,0.5,1.1
			c0,0,0.1,0,0.1,0.1c0.1,0,0.3,0,0.3,0c0.2,0,0.7-0.2,0.7-0.2c0.2-0.2,0.4-0.3,0.5-0.4c0.2-0.1,0.9-0.7,1-0.8c0,0,0.7-0.8,0.9-1.1
			c0.1-0.1,0.1-0.1,0.1-0.2c0.1-0.1,0.2-0.3,0.3-0.5c-0.1,0.4-0.4,2.3-0.9,3.7c-0.2,0.5-0.3,1-0.4,1.4c-0.1,0.5-0.3,1.1-0.5,1.7
			c-0.5,1.7-1.1,2.7-1.3,3v0.1c0,0.1,0.1,0.2,0.1,0.3c0.1,0.1,0.1,0.1,0.2,0.1l0,0c0.1,0,0.4-0.2,0.7-0.3c0.1-0.1,0.1-0.1,0.2-0.1
			c0.5-0.3,2-4.8,2-5c0.3-1.3,0.4-2,0.8-3.2c0.1-0.7,0.2-1.1,0.2-1.6l0.1-0.4c0-0.2,0-0.3,0-0.4v-0.3v-0.1c0-0.3,0-0.5,0-0.9
			C77.5,14.1,77.4,14,77.4,13.8L77.4,13.8z M76.3,13.9c-0.1,0.7-0.5,2-1,2.6c-0.1,0.1-0.4,0.4-0.7,0.8c-0.2,0.2-0.3,0.3-0.3,0.4
			c-0.3,0.3-0.8,0.7-1.3,0.9h-0.1c0,0,0,0-0.1,0l-0.1-0.3v-0.1c0.1-1.4,0.2-1.6,0.8-2.8c0.1-0.1,0.1-0.1,0.1-0.2
			c0.2-0.4,0.5-1,0.8-1.2c0.1-0.1,0.2-0.2,0.2-0.2s0,0,0.1-0.1c0.5-0.5,1.1-0.9,1.4-0.9l0,0l0,0l0,0c0.1,0.1,0.1,0.3,0.1,0.5
			C76.3,13.6,76.3,13.7,76.3,13.9z"/>
		<path class="st0" d="M61,18.8c-0.2,0-0.4,0-0.5,0h-0.1h-0.1c-0.3,0-1,0-1.5,0c0-0.2,0.1-0.8,0-1c0-0.2,0-0.3,0-0.4l0,0
			c0-0.1,0-0.2,0-0.4c0-0.1,0-0.2,0-0.3c0-0.1,0-0.1,0-0.2l0,0c0-0.1-0.2-0.7-0.3-0.7c-0.2,0-0.4,0-0.5,0.1c-0.1,0-0.1,0.1-0.1,0.2
			c0,0,0,0,0,0.1c0,0.3,0,1.2,0,1.5v0.8v0.1c0,0,0,0,0,0.1c-0.2,0-0.4,0-0.5,0c-0.2,0-0.3,0-0.4,0h-0.1c-0.1,0-0.2,0-0.3,0
			s-0.2,0-0.3,0l0,0h-0.1l0,0l0,0c-0.1,0-0.3,0.1-0.4,0.2c-0.1,0-0.1,0.1-0.1,0.1c-0.1,0.7,0.2,0.8,0.4,0.8c0,0,0,0,0.1,0
			c0.2,0.1,1,0.1,1.4,0.1h0.7l0,0c0,0,0,0.1,0,0.3v0.1c0,0.3,0,0.7,0,0.8c-0.1,0.5,0.3,1.3,0.5,1.3c0,0,0,0,0.1,0
			c0.2,0,0.4-0.1,0.4-0.2l0.1-0.1c0-0.2,0-0.4-0.1-0.7l0,0c0-0.1,0-0.8-0.1-1.4l0,0H59c0,0,0.1,0,0.2,0c0.2,0,0.7,0,0.8,0
			s0.1,0,0.2,0c0.3,0,0.7-0.1,0.9-0.3c0.1-0.1,0.2-0.1,0.2-0.2c0-0.2-0.1-0.4-0.1-0.5C61.1,18.8,61,18.8,61,18.8z"/>
		<path class="st0" d="M119.3,27.6c-0.1,0-0.3,0-0.4-0.1s-0.2-0.2-0.2-0.3c0-0.2,0.1-0.5,0.2-0.5h0.4c0.1,0,0.7,0,1.2-0.1l0.1-1.6
			c0.1-1.6,0.2-3.3,0.4-4.9c0-0.3,0.1-0.8,0.1-1.1v-0.5v-0.4l0.1-0.5c0-0.4,0.1-0.9,0.1-1.3v-0.3c0-0.9,0.1-1.3,0.2-2.2l-0.4,0.1
			c-0.2,0.1-0.3,0.1-0.4,0.2c-0.1,0-0.1,0.1-0.2,0.1c-0.2,0.1-0.5,0.3-0.9,0.3c-0.1,0-0.1,0-0.2-0.1c-0.1,0-0.2-0.4-0.2-0.7
			c0.2-0.2,1.3-1,1.4-1.1c0.5-0.2,0.7-0.3,0.8-0.3c0.1,0,0.1,0,0.3-0.2l0.5-0.3c0.1-0.1,0.1-0.1,0.1-0.1c0.1,0,0.1-0.1,0.2-0.1h0.1
			h0.1c0.1,0.1,0.1,0.1,0.1,0.2c0,0.2,0,0.3,0,0.4l-0.1,0.7c-0.2,1.5-0.3,2.5-0.4,3.6c-0.1,0.8-0.1,1.5-0.2,2.4
			c-0.1,0.8-0.1,1.6-0.2,2.5V22c0,1.1-0.1,2.4-0.2,3.7v0.2h0.1h0.1c0.1,0,0.2,0,0.3,0c0.1,0,0.2,0,0.3,0s0.2,0,0.3-0.1h0.2
			c0.1,0,0.2,0,0.2,0.1c0.1,0.1,0.1,0.1,0.1,0.1c0,0.7-0.1,0.7-0.3,0.8c-0.2,0.1-1,0.2-1.2,0.2l-0.8,0.1c-0.2,0-0.5,0.1-0.8,0.1
			h-0.2c-0.4,0-0.7,0.1-0.7,0.1C119.5,27.6,119.5,27.6,119.3,27.6z"/>
		<path class="st0" d="M135.1,27.2c-0.1,0-0.3,0-0.4-0.1s-0.2-0.2-0.2-0.3c0-0.2,0.1-0.5,0.1-0.5c0.1,0,0.1,0,0.2,0
			c0.1,0,0.2,0,0.2,0h0.1c0.2-0.1,0.5-0.1,0.9-0.1c0.1-0.7,0-0.9,0-1.5v-1c0-1.2,0-2.5,0.1-3.8c0-0.3,0-0.7,0-1v-0.5v-0.4v-0.5
			c0-0.4,0-0.9,0-1.3v-0.2c0-0.9,0-1.3,0.1-2.3h-0.3c0,0-0.3,0.1-0.4,0.2c0,0-0.1,0.1-0.2,0.1c-0.3,0.2-0.9,0.5-1.2,0.5
			c-0.1,0-0.1,0-0.2-0.1c-0.1,0-0.2-0.4-0.2-0.7c0-0.1,0-0.1,0-0.1c0.2-0.2,1.5-1.1,1.7-1.2c0.4-0.2,0.5-0.2,0.7-0.2s0.1,0,0.3-0.2
			l0.4-0.3c0.1-0.1,0.1-0.1,0.1-0.1l0.1-0.1h0.1c0.1,0,0.1,0,0.2,0.1c0.1,0,0.1,0.1,0.1,0.2c0,0.2,0,0.3,0,0.4v0.7
			c-0.1,1.6-0.1,2.6-0.1,3.7c0,0.7,0,1.4,0,2.2c0,0.8,0,1.6,0,2.5v0.8c0,1.2,0.1,2.5,0.1,3.8v0.2l0.1,0.1c0,0,0.2,0,0.3,0
			c0.2,0,0.5,0,0.7,0h0.1h0.1c0,0,0.1,0,0.2,0.1s0.1,0.1,0.1,0.1c0.1,0.7-0.1,0.7-0.2,0.8c-0.2,0.1-0.9,0.1-1.3,0.1
			c-0.2,0-0.3,0-0.3,0l-1.1,0.1H136c-0.4,0-0.7,0.1-0.8,0.1C135.2,27.2,135.2,27.2,135.1,27.2L135.1,27.2z"/>
		<path class="st0" d="M127.4,27.2C127.4,27.1,127.4,27.1,127.4,27.2c-0.2-0.1-0.2-0.3-0.3-0.4c-0.1-0.4-0.2-0.9,0-1.5l0.2-0.7
			c0.3-1.5,0.8-3.2,1.3-4.8c0.1-0.2,0.1-0.4,0.2-0.7V19l-0.1-0.1c-0.2,0.1-0.3,0.1-0.4,0.1s-0.2,0-0.3,0.1c-0.1,0-0.2,0.1-0.2,0.1
			l-0.1,0.1l0,0c0,0-0.1,0-0.1-0.1c-0.1-0.1-0.1-0.1-0.1-0.1c-0.1-0.7,0.1-0.8,0.2-0.9c0.2-0.1,0.9-0.3,1.1-0.4l0.5-0.2l0.2-0.4
			c0.1-0.4,0.2-0.9,0.3-1.3l0.1-0.3c0.2-0.8,0.3-1.2,0.5-1.9v-0.1h-0.1c-0.3,0.1-0.7,0.2-1.1,0.3l-0.7,0.2c-0.1,0-0.2,0.1-0.3,0.2
			c-0.3,0.2-0.9,0.4-1.2,0.4c-0.1,0-0.2,0-0.2-0.1c-0.1,0-0.1-0.3-0.1-0.5c0-0.1,0-0.2,0-0.2c0.3-0.2,1.9-1,2.2-1.1
			c0.8-0.3,1-0.3,1.1-0.3s0.1,0,0.4-0.2l1-0.4c0.1-0.1,0.2-0.1,0.3-0.2h0.1l0,0l0.1,0.1c0.1,0,0.1,0,0.2,0.1c0,0,0,0.1,0,0.2v0.1
			c0,0.1,0,0.2-0.1,0.3c-0.7,1.9-0.9,3.1-1.2,4.3l-0.1,0.5h0.1c0.2,0,0.3,0,0.3,0c0.1,0,0.1,0,0.2,0c0.1,0,0.2,0,0.3,0.1
			s0.3,0.2,0.3,0.3c0,0.2,0,0.7-0.1,0.7s-0.3,0-0.4,0c0,0-0.7,0.1-1.1,0.2l-0.1,0.2l-0.5,0.2c-0.2,0.8-0.4,1.6-0.7,2.5l-0.1,0.7
			c-0.2,1.2-0.5,2.5-0.9,3.8v0.1c-0.1,0.3-0.1,0.5-0.3,0.8C127.8,27.1,127.6,27.2,127.4,27.2L127.4,27.2z"/>
		<path class="st0" d="M89.1,27.8C89,27.7,89,27.6,89,27.3c-0.1-0.3,0-0.8,0.1-0.9c0.1-0.2,0.5-0.7,0.8-1c0.1-0.2,0.2-0.3,0.3-0.3
			c0.1-0.1,0.2-0.3,0.3-0.5c0.4-0.5,1-1.2,1.2-2c0.1-0.2,0.2-0.7,0.4-1c0.2-0.4,0.3-0.8,0.4-1c0.1-0.1,0.1-0.3,0.2-0.4
			c0-0.1,0-0.3,0-0.4c0,0,0-0.1-0.1-0.1l0,0l0,0l-0.1-0.1c-0.1,0-0.2,0-0.3,0c0,0-0.4,0-0.5,0s-0.3,0-0.4,0
			c-0.4,0.1-0.9,0.1-1.5,0.3c-0.1,0-0.3,0.1-0.5,0.1c-0.3,0-0.4,0-0.4-0.1c-0.1-0.1-0.3-0.9-0.3-1s0.8-0.8,1.2-1.1
			c0.2-0.2,0.4-0.3,0.5-0.4l0.3-0.3c0.4-0.4,0.8-0.7,1.1-1c0.4-0.3,0.8-0.5,1.1-0.9c0,0,0.1-0.1,0.2-0.1c0.2-0.2,0.4-0.3,0.4-0.4
			s-0.1-0.2-0.2-0.3c-0.2-0.1-0.3-0.2-0.4-0.2C92.5,14,92.2,14,92,14s-0.4-0.1-0.7-0.1c-0.2-0.1-0.4-0.1-0.7-0.1
			c-0.1,0-0.4,0-0.8-0.1c-0.7-0.1-1.7-0.2-2.2-0.2c-0.1,0-0.1,0-0.1,0c-0.1,0-0.4-0.1-0.5-0.1c0-0.1,0-0.1,0-0.2
			c0-0.3,0.1-0.5,0.2-0.7c-0.2-0.1-0.1-0.1,0.1-0.1h0.2c0.1,0,0.2,0,0.3,0.1l0.3,0.1c0.4,0.1,1,0.2,1.5,0.2c0.3,0,0.5,0.1,0.9,0.1
			c1,0.2,2.1,0.4,3.4,0.9c0.1,0,0.2,0.1,0.3,0.2c0.1,0.1,0.1,0.1,0.1,0.2v0.1c0,0.1,0.1,0.3,0,0.3c-0.2,0.2-0.7,0.5-1,0.9l-0.3,0.3
			c-0.3,0.3-0.5,0.5-0.8,0.8s-0.3,0.3-0.5,0.5s-0.4,0.4-0.7,0.7c-0.1,0.1-0.3,0.3-0.4,0.4l0,0l-0.3,0.1c0.1,0.2,0.2,0.3,0.3,0.3h0.1
			l0.4-0.1c0.3,0,0.7-0.1,1-0.1c0.2,0,1-0.2,1-0.2c0.2,0,0.4-0.1,0.7-0.1c0.1,0,0.2,0,0.3,0l0,0c0.1,0,0.1,0,0.1,0s0.1,0.1,0.1,0.2
			v0.2c0,0.4-0.3,1.1-0.7,2c-0.1,0.2-0.2,0.5-0.3,0.8l-0.1,0.3c-0.1,0.3-0.3,0.7-0.5,1.1c0,0.1-0.2,0.4-0.4,0.9l-0.5,1.1l-0.3,0.4
			c-0.4,0.9-0.9,1.6-1.4,2.3c-0.1,0.2-0.9,0.8-1,0.8L89.1,27.8z"/>
		<path class="st0" d="M69.4,18.8L69.4,18.8c-0.1,0-0.2,0-0.4,0c-0.1,0-0.1,0-0.2,0c-0.1,0-0.2,0-0.3,0c-0.2,0-0.3,0-0.5,0
			c-0.1,0-0.3,0-0.4,0c-0.4,0-2.1-0.4-2.2-0.7l0,0l0,0c0-0.1,0.7-0.3,1.1-0.5c0.2-0.1,0.4-0.2,0.5-0.2c0.2-0.1,0.4-0.2,0.7-0.3
			c0.3-0.1,0.5-0.3,0.9-0.5c0.3-0.2,1-0.7,1.2-0.9c0.1,0,0-0.2,0-0.4v-0.1c0-0.1,0-0.2-0.1-0.2c-0.1-0.1-0.2-0.2-0.3-0.3
			c-1.1-0.8-1.9-1.1-2.7-1.4c-0.7-0.2-1.9-0.7-2.6-0.9l-0.4-0.1c-0.1,0-0.2-0.1-0.4-0.1c-0.1,0-0.1,0-0.2,0c-0.2,0-0.3,0-0.4,0.1
			c-0.1,0.1-0.1,0.3-0.1,0.5c0,0.1,0,0.1,0.1,0.2l0,0l0,0c0,0,0.4,0.2,0.5,0.2l0,0c0.4,0,2.1,0.5,2.6,0.8c0.1,0,0.3,0.1,0.5,0.2
			c0.5,0.2,1.2,0.4,1.4,0.5c0.2,0.1,0.5,0.2,0.7,0.3c0.1,0.1,0.2,0.2,0.1,0.4c0,0.1-0.1,0.2-0.2,0.3c-0.3,0.2-1,0.5-1.3,0.7
			c-0.4,0.2-2.3,1-2.6,1.2l0,0c-0.1,0-0.1,0-0.2,0.1c0,0,0,0-0.1,0h-0.1c0,0-0.7,0.2-0.8,0.4c0,0.1,0.1,1,0.2,1.1
			c0.2,0.2,1,0.3,1,0.3l0,0c0.4,0,0.9,0.1,1.3,0.2c0.3,0.1,0.5,0.1,0.8,0.2c0.2,0,0.5,0.1,0.8,0.1H67c0.1,0,0.1,0,0.2,0
			s0.2,0.1,0.3,0.1c0.2,0.1,0.2,0.3,0.1,0.4c0,0.1-0.1,0.2-0.2,0.3c-0.1,0.2-0.3,0.4-0.4,0.8c-0.2,0.3-0.3,0.7-0.5,0.9
			c-0.3,0.5-1,1.3-1.9,2.3L64.5,25l0,0l0,0c0,0-0.1,0.1-0.3,0.3c-0.7,0.5-1.3,1.2-1.2,1.4c0,0.2,0.1,0.3,0.1,0.4s0,0.1,0.1,0.2v0.1
			c0,0,0,0,0.1,0l0,0c0.2,0,1.1-0.4,1.2-0.7l0,0l0,0c0.8-0.5,1.3-1.3,2-2.1l0.1-0.1c0.1-0.1,0.1-0.2,0.2-0.3c0,0,0.1-0.2,0.2-0.3
			l0.1-0.1c0.3-0.4,0.9-1.1,0.9-1.2c0.1-0.2,0.3-0.5,0.5-0.9s0.3-0.5,0.5-0.9c0.3-0.7,0.7-1.2,0.7-1.5l0,0l0,0v-0.2
			C69.7,18.9,69.6,18.8,69.4,18.8z"/>
		<path class="st0" d="M102.7,22c-0.1-0.1-0.3-0.1-0.4-0.1l0,0l0,0c-0.1,0-0.1,0-0.2,0.1l0,0c-0.1,0-0.2,0.1-0.4,0.1h-0.1l0,0v-0.2
			c0-0.9,0.1-1.7,0.1-2.5c0.1-0.9,0.1-1.6,0.1-2.3c0.1-1.2,0.1-2.3,0.3-4.2c0-0.2,0-0.3,0-0.4l0,0l0,0c0-0.1,0-0.1,0-0.2l0,0l0,0
			l0,0c-0.1-0.1-0.2-0.2-0.3-0.2l0,0l0,0c-0.1,0-0.2,0-0.2,0c-0.2,0.3-0.3,0.4-0.4,0.7c-0.2,0.5-0.4,1-0.5,1.3
			c-0.1,0.3-0.3,0.8-0.4,1.2l-0.4,0.4c-0.2,0.5-0.4,0.9-0.5,1.2C99,17,99,17.1,99,17.2c-0.5,1.2-1.2,2.3-1.9,3.4
			c-0.3,0.7-0.8,1.2-1.2,2l0,0c0,0.1-0.1,0.2-0.1,0.2l0,0c-0.1,0.2-0.2,0.5,0.2,1c0,0.1,0.2,0.2,0.3,0.3c0.3,0.1,0.7,0.2,1,0.1
			c0.1,0,0.5-0.1,1-0.2c0.1,0,0.2,0,0.3,0c0.4-0.1,0.9-0.2,1.3-0.3l0.2-0.1v0.2c0,0.4,0,0.9,0,1.3v0.7c0,0.7,0.1,1.1,0.3,1.4
			c0.1,0.1,0.1,0.2,0.2,0.2h0.1l0,0c0.1,0,0.3-0.2,0.4-0.3c0.1-0.2,0.1-0.5,0.1-0.9V26c0-1,0-2,0.1-3c0.5-0.1,0.9-0.2,1.1-0.3
			c0,0,0,0,0.1,0c0.2-0.1,0.5-0.2,0.3-1C102.8,22.1,102.8,22,102.7,22z M100.4,18.7c0,0.1,0,0.3,0,0.4v0.1c0,0.3,0,0.7-0.1,1
			c0,0.8,0,1.4-0.1,2c-0.3,0.1-0.7,0.2-0.8,0.2c-0.1,0.1-1.7,0.3-2.4,0.4v-0.1c0-0.1,0.1-0.2,0.1-0.2l0,0c0.4-0.8,0.9-1.5,1.3-2.4
			c0.1-0.3,0.3-0.7,0.5-1V19c0.1-0.1,0.1-0.2,0.2-0.3l0.5-0.9c0.1-0.1,0.1-0.2,0.2-0.3v-0.1c0.1-0.3,0.2-0.4,0.3-0.7
			c0.1-0.1,0.1-0.3,0.2-0.4v0.1c0,0.4,0,0.9-0.1,1.3v0.1c0,0.1,0,0.2,0,0.4V18.7z"/>
		<path class="st0" d="M109.8,12.4c-0.2-0.4-0.3-0.5-0.4-0.7l0,0v-0.1c0-0.1-0.1-0.1-0.1-0.1h-0.1c-0.1,0-0.3-0.1-0.4,0h-0.1h-0.1
			c-0.1,0-0.2,0-0.3,0.1c-0.7,0.1-0.9,0.2-1.5,0.3c-0.2,0.1-0.2,0.1-0.4,0.2l0,0c-0.1,0-0.1,0-0.2,0.1l0,0l0,0
			c-0.1,0.1-0.2,0.2-0.3,0.4c-0.1,0.1-0.1,0.3-0.2,0.4c-0.1,0.3-0.2,0.9-0.3,1.2c-0.1,0.8-0.2,1.3-0.2,2c0,0.3-0.1,0.7-0.1,1.1
			c-0.1,0.4-0.1,0.9-0.1,1.3v0.2c0,0.2,0,0.4,0,0.7c0,0.4,0,0.8,0.1,1.1c0,0.2,0,0.4,0,0.7s0.1,0.4,0.1,0.7c0.1,0.4,0.1,0.5,0.2,1
			c0.2,1,0.5,1.9,1,2.8c0.1,0.1,0.1,0.3,0.2,0.4c0,0.1,0.1,0.1,0.1,0.2l0.1,0.1c0.2,0.3,0.2,0.5,0.4,0.7h0.1c0,0,0,0,0.1,0
			c0.1,0,0.2,0,0.3,0c0.3-0.1,0.4-0.2,0.5-0.4c0-0.1,0.1-0.1,0.1-0.2s0.1-0.2,0.2-0.3c0.3-0.5,0.3-0.8,0.5-1.2
			c0-0.2,0.1-0.4,0.2-0.7c0.1-0.4,0.5-1.9,0.7-2.1c0.1-0.5,0.2-1.3,0.3-2.1c0-0.5,0.1-1.1,0.2-1.6c0.2-1.7,0.4-3.6,0-5.1
			C110.1,12.9,110.1,12.7,109.8,12.4z M107.3,25.9L107.3,25.9l-0.1-0.2c0-0.1,0-0.1-0.1-0.2c-0.1-0.2-0.1-0.3-0.2-0.5
			c-0.2-0.7-0.3-1-0.7-2v-0.1c-0.1-0.2-0.1-0.4-0.1-0.7c-0.1-0.4-0.1-1.5-0.2-2.1c0-0.1,0-0.2,0-0.2c-0.1-2.2,0-3.8,0.3-6.4l0,0
			c0-0.1,0.1-0.2,0.2-0.5c0.2-0.1,0.3-0.1,0.5-0.1c0.4-0.1,0.7-0.2,1.1-0.3c0.1,0,0.2-0.1,0.3-0.1c0,0,0,0.1,0.1,0.1
			c0,0,0.1,0,0.1,0.1c0.4,0.8,0.4,1.7,0.4,3c0,0.4,0,0.8,0,1.2s0,0.5,0,1c0,1.1-0.2,2.2-0.4,3.2C108.1,23.6,107.4,25.9,107.3,25.9z"
			/>
		<path class="st0" d="M161.3,26.9c-0.2-0.1-0.3-0.3-0.5-0.7c0-0.1-0.1-0.1-0.1-0.1s-0.1-0.1-0.1-0.2l-0.2-0.4c-0.4-1-0.9-1.7-1-2.7
			c-0.1-0.4-0.1-0.5-0.2-1c0-0.2-0.1-0.4-0.1-0.7s0-0.4,0-0.5c0-0.4-0.1-0.8-0.1-1.1c0-0.2,0-0.9,0-0.9c0-0.5,0-0.9,0-1.5L159,16
			c0.1-0.7,0.1-1.2,0.2-2c0-0.2,0.2-0.8,0.3-1.2c0-0.1,0.1-0.3,0.2-0.4c0-0.2,0.2-0.4,0.3-0.4c0.1-0.1,0.1-0.1,0.2-0.1
			c0.2-0.1,0.3-0.1,0.4-0.2c0.7-0.2,1-0.2,1.5-0.3l0.5-0.1c0.1,0,0.2,0,0.2,0c0.1,0,0.1,0,0.2,0s0.2,0.1,0.2,0.1v0.1v0.1v0.1
			c0.1,0.1,0.3,0.2,0.4,0.7c0.1,0.3,0.2,0.5,0.3,0.9c0.4,1.6,0.2,3.4,0,5.1c-0.1,0.5-0.1,1.1-0.2,1.6c-0.1,0.7-0.2,1.5-0.3,2.1
			c0,0.2-0.4,1.6-0.7,2.1c-0.1,0.3-0.2,0.5-0.2,0.7c-0.1,0.4-0.2,0.7-0.5,1.2l-0.3,0.4c-0.1,0.2-0.2,0.4-0.5,0.4
			C161.5,26.9,161.4,26.9,161.3,26.9L161.3,26.9z M161.3,25.6v0.1l0,0c0.4,0,1.5-4.9,1.5-5c0.2-1,0.3-2.1,0.4-3.2c0-0.4,0-0.5,0-1
			c0-0.4,0-0.9,0-1.3c0-1.2,0-2.2-0.4-3c-0.1-0.1-0.1-0.1-0.1-0.1l0,0h-0.1l-0.3,0.1c-0.4,0.1-0.7,0.2-1.1,0.3
			c-0.2,0.1-0.3,0.1-0.5,0.1c-0.1,0.2-0.2,0.4-0.2,0.5c-0.3,2.6-0.5,4.3-0.3,6.4v0.2c0,0.5,0.1,1.6,0.2,2.1c0.1,0.3,0.1,0.4,0.1,0.7
			v0.1c0.2,1.1,0.4,1.4,0.7,2.1L161.3,25.6h0.1H161.3z"/>
		<path class="st0" d="M144.3,27.3c-0.1,0-0.1,0-0.2,0c-0.3-0.1-0.9-1-1.4-2c0-0.1-0.1-0.3-0.2-0.4c-0.5-1.2-1.7-3.5-1.5-4.7
			c0-0.2,0.1-0.5,0.3-0.9c0.2-0.3,0.8-0.9,1.4-1.5l0.7-0.7l-0.1-0.2l-0.2-0.2c-0.3-0.3-0.9-0.7-1-0.9c-0.1-0.1-0.3-0.3-0.2-0.5
			c0-0.4,0.2-0.9,0.5-1.3c0.2-0.3,0.4-0.5,0.7-0.8c0.3-0.2,0.5-0.4,0.5-0.5c0.2-0.2,0.4-0.3,0.8-0.5c0.7-0.4,1.1-0.7,1.4-0.8
			c0.3-0.1,0.8-0.2,0.9-0.2s0.5,0,0.5,0c0.1,0,0.1,0,0.2,0c0.3,0,0.5,0.1,0.7,0.2l0.1,0.1c0.1,0.1,0.1,0.1,0.2,0.2
			c0.1,0.2,0.5,1.2,0,1.6c-0.5,0.4-2.1,2.1-3.6,3.8c0.5,0.5,1.3,1.2,1.3,1.2s0.4,0.3,0.5,0.5c0.4,0.9,0.2,3.6,0.2,3.7v0.1
			c-0.1,0.9-0.4,2.7-2,4.5C144.6,27.2,144.5,27.3,144.3,27.3z M144,17.7c-0.7,0.8-1.2,1.5-1.5,2.1c-0.1,0.2-0.3,0.8-0.3,1
			c0,1.1,1.3,4,1.7,4.5c0.2,0.3,0.3,0.5,0.3,0.5l0,0c0,0,0.1,0,0.1-0.1c0.5-0.9,1-1.9,1.2-3.2c0.2-1.2-0.1-3.6-0.2-3.7
			c-0.1-0.1-0.4-0.4-0.7-0.5l-0.2-0.2L144,17.7L144,17.7z M146.4,12.4c-0.1,0-0.2,0-0.5,0.1c-0.8,0.1-1.2,0.5-1.7,1H144
			c-0.1,0.1-0.4,0.4-0.5,0.5s-0.2,0.3-0.3,0.5c-0.1,0.1-0.1,0.3-0.2,0.5c0,0.1-0.1,0.2-0.1,0.3c0.1,0.1,0.1,0.2,0.2,0.2l0.2,0.2
			c0.1,0.1,0.2,0.2,0.3,0.3c0.1,0.1,0.2,0.2,0.3,0.3c0.2-0.2,0.4-0.3,0.5-0.5c1.2-1.4,1.6-2.2,2-2.6c0.1-0.1,0.1-0.2,0.2-0.3
			c0-0.1,0.1-0.2,0.1-0.3s0-0.1-0.1-0.2L146.4,12.4z"/>
		<path class="st0" d="M169.4,27.2c-0.2,0-0.8-0.7-1.2-1.6c0-0.1-0.1-0.2-0.2-0.4c0-0.1-1.9-3.3-1.5-4.9c0-0.2,0.1-0.7,0.3-1
			c0.2-0.3,0.7-1,1.3-1.6c0.2-0.2,0.3-0.4,0.7-0.7l-0.1-0.2l-0.1-0.1c-0.3-0.3-0.9-0.9-1-1.1c-0.1-0.2-0.2-0.4-0.2-0.7
			c0-0.4,0.1-0.9,0.4-1.4c0.2-0.2,0.4-0.5,0.5-0.7s0.3-0.2,0.4-0.3c0.2-0.1,0.4-0.2,0.8-0.4c0.5-0.2,1-0.3,1.3-0.4
			c0.2,0,0.5-0.1,0.7-0.1s0.1,0,0.1,0c0.1,0,0.2,0,0.2,0h0.2c0.1,0,0.1,0,0.2,0c0.3,0,0.4,0.1,0.7,0.3l0.1,0.1
			c0.1,0.1,0.2,0.2,0.2,0.3c0.1,0.3,0,1.6-0.4,2c-0.5,0.3-1.2,1.1-2.4,2.3l-0.3,0.3c0.5,0.5,1.4,1,1.4,1c0.1,0.1,0.5,0.2,0.5,0.3
			c0.5,0.5,0.4,2.4,0.4,2.5c-0.3,1.7-1.1,3.7-2.3,5.8c-0.2,0.3-0.3,0.4-0.4,0.5C169.6,27.2,169.5,27.2,169.4,27.2L169.4,27.2
			L169.4,27.2z M169.3,17.6c-0.7,0.8-1.2,1.6-1.4,2.2c-0.1,0.3-0.3,0.9-0.3,1.1c0,1.2,1.4,3.8,1.9,4.2c0.2,0.4,0.3,0.4,0.3,0.4
			c0.1,0,0.1,0,0.2-0.2c0.7-1.3,1.1-2.6,1.3-3.8v-0.2c0.2-1.1,0.3-2.1-0.4-2.7c0,0-0.1-0.1-0.2-0.1c-0.2-0.1-0.3-0.2-0.4-0.2
			l-0.2-0.1C169.6,17.8,169.6,17.7,169.3,17.6L169.3,17.6L169.3,17.6z M171.3,12.7c-0.1,0-0.3,0-0.4,0c-0.8,0.1-1.1,0.3-1.6,0.7
			c-0.1,0.1-0.5,0.4-0.5,0.4c-0.1,0.1-0.2,0.2-0.3,0.4c-0.1,0.1-0.2,0.4-0.2,0.4c0,0.1,0,0.2-0.1,0.3c0.1,0.1,0.1,0.2,0.2,0.2
			c0.1,0.1,0.2,0.2,0.2,0.2l0.3,0.3c0.1,0.1,0.3,0.3,0.3,0.4l0.4-0.3l0.1-0.1c1.1-1.1,1.5-1.6,1.7-2.1l0.1-0.1
			c0.1-0.1,0.1-0.2,0.2-0.3c0,0,0.1-0.2,0.1-0.3s-0.1-0.2-0.1-0.2C171.6,12.7,171.4,12.7,171.3,12.7z"/>
		<path class="st0" d="M83.3,18.4c0.2-0.1,0.4-0.1,0.5-0.1c0.1,0,0.2-0.1,0.2-0.1s0.1,0,0.1-0.1l0,0c0.1,0,0.3,0.1,0.3,0.2
			c0,0.9-0.2,0.9-0.3,1c-0.2,0.1-1,0.3-1.1,0.4c0,0-0.3,0.1-0.4,0.1c-0.3,0.1-0.5,0.2-0.9,0.3c-0.1,0-0.7,0.1-0.8,0.2
			c-0.3,0.2-0.8-0.2-0.8-0.4c0-0.3,0.1-0.8,0.2-0.8c0.1,0,0.3,0,0.4,0c0,0,1.5-0.4,1.6-0.4S83.1,18.4,83.3,18.4z"/>
		<path class="st0" d="M116.3,19.4c0.2-0.1,0.4-0.1,0.5-0.1c0.1,0,0.2-0.1,0.2-0.1s0.1,0,0.1-0.1l0,0c0.1,0,0.3,0.1,0.3,0.2
			c0,0.9-0.2,0.9-0.3,1c-0.2,0.1-1,0.4-1.1,0.4c0,0-0.2,0.1-0.4,0.1c-0.3,0.1-0.5,0.2-0.9,0.3c-0.1,0-0.7,0.2-0.8,0.2
			c-0.3,0.2-0.8-0.2-0.8-0.4c0-0.3,0.1-0.8,0.1-0.8c0.1,0,0.3,0,0.4,0c0,0,1.5-0.4,1.6-0.5C115.5,19.5,116.2,19.5,116.3,19.4z"/>
	</g>
</g>
<g id="Layer_2_4_">
	<g>
		<path class="st1" d="M27.1,21.8c-0.2-0.1-0.7-0.6-0.9-0.7C26,21,25.8,21,25.7,21.2s-0.6,0.4-0.8,0.5c-0.1,0.1-0.2,0.1-0.3,0
			c-0.2-0.1-0.7-0.4-1.3-1.1c-0.5-0.5-0.7-1.1-0.8-1.3c-0.1-0.2,0.1-0.2,0.2-0.3c0.1-0.1,0.3-0.1,0.4-0.2s0-0.3,0.1-0.4
			s0-0.4-0.1-0.5c0-0.1,0-0.8-0.1-1.2s-0.3-0.4-0.4-0.4s-0.2,0-0.3,0c-0.2,0-0.4,0.1-0.5,0.2c-0.2,0.2-0.6,0.6-0.8,1.4
			c-0.1,0.9,0.3,1.8,0.3,1.9s1.1,1.9,2.7,2.9c0.4,0.2,0.7,0.4,0.9,0.5c0.4,0.2,0.7,0.4,1,0.4s1.2-0.3,1.4-0.7
			c0.2-0.4,0.1-0.8,0.1-0.9C27.4,21.9,27.3,21.9,27.1,21.8"/>
		<path class="st0" d="M29.4,14.7c-0.3-0.4-0.4-0.6-0.8-0.9c-0.2-0.1-0.9-0.5-1.1-0.6c-1.1-0.7-2-0.9-3.3-0.9
			c-1.2,0-2.2,0.1-3.3,0.7c-0.2,0.1-0.5,0.3-0.8,0.4c-0.2,0.1-0.5,0.5-0.7,0.6c-1.9,1.5-3.2,3.5-3.2,5.8c0,0.6-0.1,1.3,0.1,1.8
			c0.1,0.2,0.2,0.8,0.3,1s0.5,0.7,0.6,0.9c0.2,0.4,0.4,0.7,0.6,1c-0.1,0.3-0.1,0.7-0.1,0.8c0,0.2-0.8,2.4-0.8,2.5
			c-0.1,0.2-0.2,0.4-0.3,0.6c0,0.1,0.2,0.3,0.4,0.4c0.2,0.2,0.9,0.3,1.3,0c0.1-0.1,0.9-0.5,1-0.6c0.4-0.2,0.8-0.5,1.2-0.8
			c0.2-0.1,0.6-0.3,0.6-0.3s0.2-0.1,0.3-0.2c0.4,0.1,0.7,0.2,1.1,0.3c0.2,0,0.6,0.2,0.7,0.2c0.4,0.1,0.6,0,1,0
			c0.6,0,1.3-0.4,1.9-0.5c0.2-0.1,0.5-0.1,0.7-0.2c0.9-0.3,1.5-0.5,2.2-1.1c0.9-0.8,1.6-1.7,2-2.7c0.3-0.8,0.7-2.1,0.7-3
			C31.8,17.8,30.7,16.2,29.4,14.7z M28.7,23.5c-0.1,0.1-0.3,0.3-0.4,0.4s-0.2,0.4-0.3,0.4c-1,0.8-2.3,1.3-3.7,1.3
			c-0.5,0-1,0-1.5-0.1c-0.4-0.1-0.9-0.2-1.3-0.4c0,0-0.1,0-0.1,0.1c-0.3,0.2-0.5,0.3-0.8,0.4c-0.2,0.1-0.6,0.4-0.8,0.6l-0.1,0.1
			c-0.1,0.1-0.7,0.4-1.3,0.8c0-0.1,0.1-0.2,0.1-0.3c0.1-0.4,0.3-0.8,0.4-1.2v-0.1c0.1-0.2,0.2-0.6,0.2-0.6c0-0.2,0.3-0.8,0.4-1.3
			c-0.1-0.1-0.1-0.1-0.2-0.1c-0.2-0.2-0.5-0.6-0.7-0.9c-0.2-0.3-0.4-0.5-0.5-0.7c-0.3-0.7-0.3-1-0.3-1.8c0-1,0.3-2,0.9-2.9
			c0.2-0.2,0.3-0.5,0.5-0.7c0.2-0.2,0.3-0.4,0.5-0.6c0.3-0.3,0.7-0.6,1.1-0.9c1.1-0.8,2-1.2,3.2-1.2c0.3,0,0.8-0.1,1.1,0
			c0.2,0,0.3,0.1,0.5,0.1c2.5,0.7,4.4,2.9,4.4,5.6c0,0.2,0.1,1.2,0.1,1.4C29.9,22.1,29.5,22.6,28.7,23.5z"/>
	</g>
</g>
</svg>
